<?xml version="1.0" encoding="utf-8" standalone="no"?>
<!DOCTYPE svg PUBLIC "-//W3C//DTD SVG 1.1//EN"
  "http://www.w3.org/Graphics/SVG/1.1/DTD/svg11.dtd">
<!-- Created with matplotlib (https://matplotlib.org/) -->
<svg height="758.16pt" version="1.1" viewBox="0 0 534.96 758.16" width="534.96pt" xmlns="http://www.w3.org/2000/svg" xmlns:xlink="http://www.w3.org/1999/xlink">
 <metadata>
  <rdf:RDF xmlns:cc="http://creativecommons.org/ns#" xmlns:dc="http://purl.org/dc/elements/1.1/" xmlns:rdf="http://www.w3.org/1999/02/22-rdf-syntax-ns#">
   <cc:Work>
    <dc:type rdf:resource="http://purl.org/dc/dcmitype/StillImage"/>
    <dc:date>2021-05-11T09:35:09.577055</dc:date>
    <dc:format>image/svg+xml</dc:format>
    <dc:creator>
     <cc:Agent>
      <dc:title>Matplotlib v3.3.2, https://matplotlib.org/</dc:title>
     </cc:Agent>
    </dc:creator>
   </cc:Work>
  </rdf:RDF>
 </metadata>
 <defs>
  <style type="text/css">*{stroke-linecap:butt;stroke-linejoin:round;}</style>
 </defs>
 <g id="figure_1">
  <g id="patch_1">
   <path d="M 0 758.16 
L 534.96 758.16 
L 534.96 0 
L 0 0 
z
" style="fill:#ffffff;"/>
  </g>
  <g id="axes_1">
   <g id="patch_2">
    <path d="M 66.87 356.3352 
L 481.464 356.3352 
L 481.464 90.9792 
L 66.87 90.9792 
z
" style="fill:#ffffff;"/>
   </g>
   <g id="patch_3">
    <path clip-path="url(#p699961039f)" d="M 85.715182 356.3352 
L 89.11071 356.3352 
L 89.11071 356.312646 
L 85.715182 356.312646 
z
" style="fill:#607c8e;"/>
   </g>
   <g id="patch_4">
    <path clip-path="url(#p699961039f)" d="M 89.487991 356.3352 
L 92.883519 356.3352 
L 92.883519 356.3352 
L 89.487991 356.3352 
z
" style="fill:#607c8e;"/>
   </g>
   <g id="patch_5">
    <path clip-path="url(#p699961039f)" d="M 93.2608 356.3352 
L 96.656328 356.3352 
L 96.656328 356.290092 
L 93.2608 356.290092 
z
" style="fill:#607c8e;"/>
   </g>
   <g id="patch_6">
    <path clip-path="url(#p699961039f)" d="M 97.033609 356.3352 
L 100.429138 356.3352 
L 100.429138 356.312646 
L 97.033609 356.312646 
z
" style="fill:#607c8e;"/>
   </g>
   <g id="patch_7">
    <path clip-path="url(#p699961039f)" d="M 100.806419 356.3352 
L 104.201947 356.3352 
L 104.201947 356.267537 
L 100.806419 356.267537 
z
" style="fill:#607c8e;"/>
   </g>
   <g id="patch_8">
    <path clip-path="url(#p699961039f)" d="M 104.579228 356.3352 
L 107.974756 356.3352 
L 107.974756 356.267537 
L 104.579228 356.267537 
z
" style="fill:#607c8e;"/>
   </g>
   <g id="patch_9">
    <path clip-path="url(#p699961039f)" d="M 108.352037 356.3352 
L 111.747565 356.3352 
L 111.747565 356.312646 
L 108.352037 356.312646 
z
" style="fill:#607c8e;"/>
   </g>
   <g id="patch_10">
    <path clip-path="url(#p699961039f)" d="M 112.124846 356.3352 
L 115.520374 356.3352 
L 115.520374 356.312646 
L 112.124846 356.312646 
z
" style="fill:#607c8e;"/>
   </g>
   <g id="patch_11">
    <path clip-path="url(#p699961039f)" d="M 115.897655 356.3352 
L 119.293183 356.3352 
L 119.293183 356.267537 
L 115.897655 356.267537 
z
" style="fill:#607c8e;"/>
   </g>
   <g id="patch_12">
    <path clip-path="url(#p699961039f)" d="M 119.670464 356.3352 
L 123.065993 356.3352 
L 123.065993 356.267537 
L 119.670464 356.267537 
z
" style="fill:#607c8e;"/>
   </g>
   <g id="patch_13">
    <path clip-path="url(#p699961039f)" d="M 123.443274 356.3352 
L 126.838802 356.3352 
L 126.838802 356.267537 
L 123.443274 356.267537 
z
" style="fill:#607c8e;"/>
   </g>
   <g id="patch_14">
    <path clip-path="url(#p699961039f)" d="M 127.216083 356.3352 
L 130.611611 356.3352 
L 130.611611 356.222429 
L 127.216083 356.222429 
z
" style="fill:#607c8e;"/>
   </g>
   <g id="patch_15">
    <path clip-path="url(#p699961039f)" d="M 130.988892 356.3352 
L 134.38442 356.3352 
L 134.38442 356.17732 
L 130.988892 356.17732 
z
" style="fill:#607c8e;"/>
   </g>
   <g id="patch_16">
    <path clip-path="url(#p699961039f)" d="M 134.761701 356.3352 
L 138.157229 356.3352 
L 138.157229 356.199875 
L 134.761701 356.199875 
z
" style="fill:#607c8e;"/>
   </g>
   <g id="patch_17">
    <path clip-path="url(#p699961039f)" d="M 138.53451 356.3352 
L 141.930038 356.3352 
L 141.930038 356.244983 
L 138.53451 356.244983 
z
" style="fill:#607c8e;"/>
   </g>
   <g id="patch_18">
    <path clip-path="url(#p699961039f)" d="M 142.307319 356.3352 
L 145.702848 356.3352 
L 145.702848 356.132212 
L 142.307319 356.132212 
z
" style="fill:#607c8e;"/>
   </g>
   <g id="patch_19">
    <path clip-path="url(#p699961039f)" d="M 146.080129 356.3352 
L 149.475657 356.3352 
L 149.475657 356.290092 
L 146.080129 356.290092 
z
" style="fill:#607c8e;"/>
   </g>
   <g id="patch_20">
    <path clip-path="url(#p699961039f)" d="M 149.852938 356.3352 
L 153.248466 356.3352 
L 153.248466 356.064549 
L 149.852938 356.064549 
z
" style="fill:#607c8e;"/>
   </g>
   <g id="patch_21">
    <path clip-path="url(#p699961039f)" d="M 153.625747 356.3352 
L 157.021275 356.3352 
L 157.021275 356.019441 
L 153.625747 356.019441 
z
" style="fill:#607c8e;"/>
   </g>
   <g id="patch_22">
    <path clip-path="url(#p699961039f)" d="M 157.398556 356.3352 
L 160.794084 356.3352 
L 160.794084 356.041995 
L 157.398556 356.041995 
z
" style="fill:#607c8e;"/>
   </g>
   <g id="patch_23">
    <path clip-path="url(#p699961039f)" d="M 161.171365 356.3352 
L 164.566894 356.3352 
L 164.566894 355.793899 
L 161.171365 355.793899 
z
" style="fill:#607c8e;"/>
   </g>
   <g id="patch_24">
    <path clip-path="url(#p699961039f)" d="M 164.944174 356.3352 
L 168.339703 356.3352 
L 168.339703 355.951778 
L 164.944174 355.951778 
z
" style="fill:#607c8e;"/>
   </g>
   <g id="patch_25">
    <path clip-path="url(#p699961039f)" d="M 168.716984 356.3352 
L 172.112512 356.3352 
L 172.112512 355.681128 
L 168.716984 355.681128 
z
" style="fill:#607c8e;"/>
   </g>
   <g id="patch_26">
    <path clip-path="url(#p699961039f)" d="M 172.489793 356.3352 
L 175.885321 356.3352 
L 175.885321 355.613465 
L 172.489793 355.613465 
z
" style="fill:#607c8e;"/>
   </g>
   <g id="patch_27">
    <path clip-path="url(#p699961039f)" d="M 176.262602 356.3352 
L 179.65813 356.3352 
L 179.65813 355.455586 
L 176.262602 355.455586 
z
" style="fill:#607c8e;"/>
   </g>
   <g id="patch_28">
    <path clip-path="url(#p699961039f)" d="M 180.035411 356.3352 
L 183.430939 356.3352 
L 183.430939 355.32026 
L 180.035411 355.32026 
z
" style="fill:#607c8e;"/>
   </g>
   <g id="patch_29">
    <path clip-path="url(#p699961039f)" d="M 183.80822 356.3352 
L 187.203749 356.3352 
L 187.203749 355.230043 
L 183.80822 355.230043 
z
" style="fill:#607c8e;"/>
   </g>
   <g id="patch_30">
    <path clip-path="url(#p699961039f)" d="M 187.581029 356.3352 
L 190.976558 356.3352 
L 190.976558 355.252598 
L 187.581029 355.252598 
z
" style="fill:#607c8e;"/>
   </g>
   <g id="patch_31">
    <path clip-path="url(#p699961039f)" d="M 191.353839 356.3352 
L 194.749367 356.3352 
L 194.749367 355.094718 
L 191.353839 355.094718 
z
" style="fill:#607c8e;"/>
   </g>
   <g id="patch_32">
    <path clip-path="url(#p699961039f)" d="M 195.126648 356.3352 
L 198.522176 356.3352 
L 198.522176 354.846622 
L 195.126648 354.846622 
z
" style="fill:#607c8e;"/>
   </g>
   <g id="patch_33">
    <path clip-path="url(#p699961039f)" d="M 198.899457 356.3352 
L 202.294985 356.3352 
L 202.294985 354.89173 
L 198.899457 354.89173 
z
" style="fill:#607c8e;"/>
   </g>
   <g id="patch_34">
    <path clip-path="url(#p699961039f)" d="M 202.672266 356.3352 
L 206.067794 356.3352 
L 206.067794 354.372983 
L 202.672266 354.372983 
z
" style="fill:#607c8e;"/>
   </g>
   <g id="patch_35">
    <path clip-path="url(#p699961039f)" d="M 206.445075 356.3352 
L 209.840604 356.3352 
L 209.840604 354.598525 
L 206.445075 354.598525 
z
" style="fill:#607c8e;"/>
   </g>
   <g id="patch_36">
    <path clip-path="url(#p699961039f)" d="M 210.217885 356.3352 
L 213.613413 356.3352 
L 213.613413 353.921899 
L 210.217885 353.921899 
z
" style="fill:#607c8e;"/>
   </g>
   <g id="patch_37">
    <path clip-path="url(#p699961039f)" d="M 213.990694 356.3352 
L 217.386222 356.3352 
L 217.386222 353.921899 
L 213.990694 353.921899 
z
" style="fill:#607c8e;"/>
   </g>
   <g id="patch_38">
    <path clip-path="url(#p699961039f)" d="M 217.763503 356.3352 
L 221.159031 356.3352 
L 221.159031 354.079778 
L 217.763503 354.079778 
z
" style="fill:#607c8e;"/>
   </g>
   <g id="patch_39">
    <path clip-path="url(#p699961039f)" d="M 221.536312 356.3352 
L 224.93184 356.3352 
L 224.93184 353.718911 
L 221.536312 353.718911 
z
" style="fill:#607c8e;"/>
   </g>
   <g id="patch_40">
    <path clip-path="url(#p699961039f)" d="M 225.309121 356.3352 
L 228.704649 356.3352 
L 228.704649 353.854236 
L 225.309121 353.854236 
z
" style="fill:#607c8e;"/>
   </g>
   <g id="patch_41">
    <path clip-path="url(#p699961039f)" d="M 229.08193 356.3352 
L 232.477459 356.3352 
L 232.477459 354.012116 
L 229.08193 354.012116 
z
" style="fill:#607c8e;"/>
   </g>
   <g id="patch_42">
    <path clip-path="url(#p699961039f)" d="M 232.85474 356.3352 
L 236.250268 356.3352 
L 236.250268 353.403152 
L 232.85474 353.403152 
z
" style="fill:#607c8e;"/>
   </g>
   <g id="patch_43">
    <path clip-path="url(#p699961039f)" d="M 236.627549 356.3352 
L 240.023077 356.3352 
L 240.023077 352.771634 
L 236.627549 352.771634 
z
" style="fill:#607c8e;"/>
   </g>
   <g id="patch_44">
    <path clip-path="url(#p699961039f)" d="M 240.400358 356.3352 
L 243.795886 356.3352 
L 243.795886 352.929513 
L 240.400358 352.929513 
z
" style="fill:#607c8e;"/>
   </g>
   <g id="patch_45">
    <path clip-path="url(#p699961039f)" d="M 244.173167 356.3352 
L 247.568695 356.3352 
L 247.568695 351.779248 
L 244.173167 351.779248 
z
" style="fill:#607c8e;"/>
   </g>
   <g id="patch_46">
    <path clip-path="url(#p699961039f)" d="M 247.945976 356.3352 
L 251.341505 356.3352 
L 251.341505 352.072453 
L 247.945976 352.072453 
z
" style="fill:#607c8e;"/>
   </g>
   <g id="patch_47">
    <path clip-path="url(#p699961039f)" d="M 251.718785 356.3352 
L 255.114314 356.3352 
L 255.114314 351.892019 
L 251.718785 351.892019 
z
" style="fill:#607c8e;"/>
   </g>
   <g id="patch_48">
    <path clip-path="url(#p699961039f)" d="M 255.491595 356.3352 
L 258.887123 356.3352 
L 258.887123 351.125176 
L 255.491595 351.125176 
z
" style="fill:#607c8e;"/>
   </g>
   <g id="patch_49">
    <path clip-path="url(#p699961039f)" d="M 259.264404 356.3352 
L 262.659932 356.3352 
L 262.659932 351.846911 
L 259.264404 351.846911 
z
" style="fill:#607c8e;"/>
   </g>
   <g id="patch_50">
    <path clip-path="url(#p699961039f)" d="M 263.037213 356.3352 
L 266.432741 356.3352 
L 266.432741 351.215393 
L 263.037213 351.215393 
z
" style="fill:#607c8e;"/>
   </g>
   <g id="patch_51">
    <path clip-path="url(#p699961039f)" d="M 266.810022 356.3352 
L 270.20555 356.3352 
L 270.20555 349.230622 
L 266.810022 349.230622 
z
" style="fill:#607c8e;"/>
   </g>
   <g id="patch_52">
    <path clip-path="url(#p699961039f)" d="M 270.582831 356.3352 
L 273.97836 356.3352 
L 273.97836 347.877369 
L 270.582831 347.877369 
z
" style="fill:#607c8e;"/>
   </g>
   <g id="patch_53">
    <path clip-path="url(#p699961039f)" d="M 274.35564 356.3352 
L 277.751169 356.3352 
L 277.751169 344.133369 
L 274.35564 344.133369 
z
" style="fill:#607c8e;"/>
   </g>
   <g id="patch_54">
    <path clip-path="url(#p699961039f)" d="M 278.12845 356.3352 
L 281.523978 356.3352 
L 281.523978 336.464935 
L 278.12845 336.464935 
z
" style="fill:#607c8e;"/>
   </g>
   <g id="patch_55">
    <path clip-path="url(#p699961039f)" d="M 281.901259 356.3352 
L 285.296787 356.3352 
L 285.296787 328.322863 
L 281.901259 328.322863 
z
" style="fill:#607c8e;"/>
   </g>
   <g id="patch_56">
    <path clip-path="url(#p699961039f)" d="M 285.674068 356.3352 
L 289.069596 356.3352 
L 289.069596 323.451152 
L 285.674068 323.451152 
z
" style="fill:#607c8e;"/>
   </g>
   <g id="patch_57">
    <path clip-path="url(#p699961039f)" d="M 289.446877 356.3352 
L 292.842405 356.3352 
L 292.842405 292.281224 
L 289.446877 292.281224 
z
" style="fill:#607c8e;"/>
   </g>
   <g id="patch_58">
    <path clip-path="url(#p699961039f)" d="M 293.219686 356.3352 
L 296.615215 356.3352 
L 296.615215 220.423489 
L 293.219686 220.423489 
z
" style="fill:#607c8e;"/>
   </g>
   <g id="patch_59">
    <path clip-path="url(#p699961039f)" d="M 296.992495 356.3352 
L 300.388024 356.3352 
L 300.388024 175.518043 
L 296.992495 175.518043 
z
" style="fill:#607c8e;"/>
   </g>
   <g id="patch_60">
    <path clip-path="url(#p699961039f)" d="M 300.765305 356.3352 
L 304.160833 356.3352 
L 304.160833 103.6152 
L 300.765305 103.6152 
z
" style="fill:#607c8e;"/>
   </g>
   <g id="patch_61">
    <path clip-path="url(#p699961039f)" d="M 304.538114 356.3352 
L 307.933642 356.3352 
L 307.933642 314.29414 
L 304.538114 314.29414 
z
" style="fill:#607c8e;"/>
   </g>
   <g id="patch_62">
    <path clip-path="url(#p699961039f)" d="M 308.310923 356.3352 
L 311.706451 356.3352 
L 311.706451 349.43361 
L 308.310923 349.43361 
z
" style="fill:#607c8e;"/>
   </g>
   <g id="patch_63">
    <path clip-path="url(#p699961039f)" d="M 312.083732 356.3352 
L 315.47926 356.3352 
L 315.47926 351.959682 
L 312.083732 351.959682 
z
" style="fill:#607c8e;"/>
   </g>
   <g id="patch_64">
    <path clip-path="url(#p699961039f)" d="M 315.856541 356.3352 
L 319.25207 356.3352 
L 319.25207 353.651248 
L 315.856541 353.651248 
z
" style="fill:#607c8e;"/>
   </g>
   <g id="patch_65">
    <path clip-path="url(#p699961039f)" d="M 319.629351 356.3352 
L 323.024879 356.3352 
L 323.024879 354.553417 
L 319.629351 354.553417 
z
" style="fill:#607c8e;"/>
   </g>
   <g id="patch_66">
    <path clip-path="url(#p699961039f)" d="M 323.40216 356.3352 
L 326.797688 356.3352 
L 326.797688 354.508308 
L 323.40216 354.508308 
z
" style="fill:#607c8e;"/>
   </g>
   <g id="patch_67">
    <path clip-path="url(#p699961039f)" d="M 327.174969 356.3352 
L 330.570497 356.3352 
L 330.570497 355.139827 
L 327.174969 355.139827 
z
" style="fill:#607c8e;"/>
   </g>
   <g id="patch_68">
    <path clip-path="url(#p699961039f)" d="M 330.947778 356.3352 
L 334.343306 356.3352 
L 334.343306 355.410477 
L 330.947778 355.410477 
z
" style="fill:#607c8e;"/>
   </g>
   <g id="patch_69">
    <path clip-path="url(#p699961039f)" d="M 334.720587 356.3352 
L 338.116115 356.3352 
L 338.116115 355.500694 
L 334.720587 355.500694 
z
" style="fill:#607c8e;"/>
   </g>
   <g id="patch_70">
    <path clip-path="url(#p699961039f)" d="M 338.493396 356.3352 
L 341.888925 356.3352 
L 341.888925 355.771345 
L 338.493396 355.771345 
z
" style="fill:#607c8e;"/>
   </g>
   <g id="patch_71">
    <path clip-path="url(#p699961039f)" d="M 342.266206 356.3352 
L 345.661734 356.3352 
L 345.661734 355.861561 
L 342.266206 355.861561 
z
" style="fill:#607c8e;"/>
   </g>
   <g id="patch_72">
    <path clip-path="url(#p699961039f)" d="M 346.039015 356.3352 
L 349.434543 356.3352 
L 349.434543 355.74879 
L 346.039015 355.74879 
z
" style="fill:#607c8e;"/>
   </g>
   <g id="patch_73">
    <path clip-path="url(#p699961039f)" d="M 349.811824 356.3352 
L 353.207352 356.3352 
L 353.207352 355.929224 
L 349.811824 355.929224 
z
" style="fill:#607c8e;"/>
   </g>
   <g id="patch_74">
    <path clip-path="url(#p699961039f)" d="M 353.584633 356.3352 
L 356.980161 356.3352 
L 356.980161 356.064549 
L 353.584633 356.064549 
z
" style="fill:#607c8e;"/>
   </g>
   <g id="patch_75">
    <path clip-path="url(#p699961039f)" d="M 357.357442 356.3352 
L 360.752971 356.3352 
L 360.752971 356.041995 
L 357.357442 356.041995 
z
" style="fill:#607c8e;"/>
   </g>
   <g id="patch_76">
    <path clip-path="url(#p699961039f)" d="M 361.130251 356.3352 
L 364.52578 356.3352 
L 364.52578 356.17732 
L 361.130251 356.17732 
z
" style="fill:#607c8e;"/>
   </g>
   <g id="patch_77">
    <path clip-path="url(#p699961039f)" d="M 364.903061 356.3352 
L 368.298589 356.3352 
L 368.298589 356.154766 
L 364.903061 356.154766 
z
" style="fill:#607c8e;"/>
   </g>
   <g id="patch_78">
    <path clip-path="url(#p699961039f)" d="M 368.67587 356.3352 
L 372.071398 356.3352 
L 372.071398 356.17732 
L 368.67587 356.17732 
z
" style="fill:#607c8e;"/>
   </g>
   <g id="patch_79">
    <path clip-path="url(#p699961039f)" d="M 372.448679 356.3352 
L 375.844207 356.3352 
L 375.844207 356.199875 
L 372.448679 356.199875 
z
" style="fill:#607c8e;"/>
   </g>
   <g id="patch_80">
    <path clip-path="url(#p699961039f)" d="M 376.221488 356.3352 
L 379.617016 356.3352 
L 379.617016 356.154766 
L 376.221488 356.154766 
z
" style="fill:#607c8e;"/>
   </g>
   <g id="patch_81">
    <path clip-path="url(#p699961039f)" d="M 379.994297 356.3352 
L 383.389826 356.3352 
L 383.389826 356.132212 
L 379.994297 356.132212 
z
" style="fill:#607c8e;"/>
   </g>
   <g id="patch_82">
    <path clip-path="url(#p699961039f)" d="M 383.767106 356.3352 
L 387.162635 356.3352 
L 387.162635 356.244983 
L 383.767106 356.244983 
z
" style="fill:#607c8e;"/>
   </g>
   <g id="patch_83">
    <path clip-path="url(#p699961039f)" d="M 387.539916 356.3352 
L 390.935444 356.3352 
L 390.935444 356.064549 
L 387.539916 356.064549 
z
" style="fill:#607c8e;"/>
   </g>
   <g id="patch_84">
    <path clip-path="url(#p699961039f)" d="M 391.312725 356.3352 
L 394.708253 356.3352 
L 394.708253 356.267537 
L 391.312725 356.267537 
z
" style="fill:#607c8e;"/>
   </g>
   <g id="patch_85">
    <path clip-path="url(#p699961039f)" d="M 395.085534 356.3352 
L 398.481062 356.3352 
L 398.481062 356.267537 
L 395.085534 356.267537 
z
" style="fill:#607c8e;"/>
   </g>
   <g id="patch_86">
    <path clip-path="url(#p699961039f)" d="M 398.858343 356.3352 
L 402.253871 356.3352 
L 402.253871 356.312646 
L 398.858343 356.312646 
z
" style="fill:#607c8e;"/>
   </g>
   <g id="patch_87">
    <path clip-path="url(#p699961039f)" d="M 402.631152 356.3352 
L 406.026681 356.3352 
L 406.026681 356.290092 
L 402.631152 356.290092 
z
" style="fill:#607c8e;"/>
   </g>
   <g id="patch_88">
    <path clip-path="url(#p699961039f)" d="M 406.403962 356.3352 
L 409.79949 356.3352 
L 409.79949 356.312646 
L 406.403962 356.312646 
z
" style="fill:#607c8e;"/>
   </g>
   <g id="patch_89">
    <path clip-path="url(#p699961039f)" d="M 410.176771 356.3352 
L 413.572299 356.3352 
L 413.572299 356.222429 
L 410.176771 356.222429 
z
" style="fill:#607c8e;"/>
   </g>
   <g id="patch_90">
    <path clip-path="url(#p699961039f)" d="M 413.94958 356.3352 
L 417.345108 356.3352 
L 417.345108 356.290092 
L 413.94958 356.290092 
z
" style="fill:#607c8e;"/>
   </g>
   <g id="patch_91">
    <path clip-path="url(#p699961039f)" d="M 417.722389 356.3352 
L 421.117917 356.3352 
L 421.117917 356.267537 
L 417.722389 356.267537 
z
" style="fill:#607c8e;"/>
   </g>
   <g id="patch_92">
    <path clip-path="url(#p699961039f)" d="M 421.495198 356.3352 
L 424.890726 356.3352 
L 424.890726 356.312646 
L 421.495198 356.312646 
z
" style="fill:#607c8e;"/>
   </g>
   <g id="patch_93">
    <path clip-path="url(#p699961039f)" d="M 425.268007 356.3352 
L 428.663536 356.3352 
L 428.663536 356.3352 
L 425.268007 356.3352 
z
" style="fill:#607c8e;"/>
   </g>
   <g id="patch_94">
    <path clip-path="url(#p699961039f)" d="M 429.040817 356.3352 
L 432.436345 356.3352 
L 432.436345 356.3352 
L 429.040817 356.3352 
z
" style="fill:#607c8e;"/>
   </g>
   <g id="patch_95">
    <path clip-path="url(#p699961039f)" d="M 432.813626 356.3352 
L 436.209154 356.3352 
L 436.209154 356.3352 
L 432.813626 356.3352 
z
" style="fill:#607c8e;"/>
   </g>
   <g id="patch_96">
    <path clip-path="url(#p699961039f)" d="M 436.586435 356.3352 
L 439.981963 356.3352 
L 439.981963 356.3352 
L 436.586435 356.3352 
z
" style="fill:#607c8e;"/>
   </g>
   <g id="patch_97">
    <path clip-path="url(#p699961039f)" d="M 440.359244 356.3352 
L 443.754772 356.3352 
L 443.754772 356.267537 
L 440.359244 356.267537 
z
" style="fill:#607c8e;"/>
   </g>
   <g id="patch_98">
    <path clip-path="url(#p699961039f)" d="M 444.132053 356.3352 
L 447.527581 356.3352 
L 447.527581 356.3352 
L 444.132053 356.3352 
z
" style="fill:#607c8e;"/>
   </g>
   <g id="patch_99">
    <path clip-path="url(#p699961039f)" d="M 447.904862 356.3352 
L 451.300391 356.3352 
L 451.300391 356.312646 
L 447.904862 356.312646 
z
" style="fill:#607c8e;"/>
   </g>
   <g id="patch_100">
    <path clip-path="url(#p699961039f)" d="M 451.677672 356.3352 
L 455.0732 356.3352 
L 455.0732 356.312646 
L 451.677672 356.312646 
z
" style="fill:#607c8e;"/>
   </g>
   <g id="patch_101">
    <path clip-path="url(#p699961039f)" d="M 455.450481 356.3352 
L 458.846009 356.3352 
L 458.846009 356.312646 
L 455.450481 356.312646 
z
" style="fill:#607c8e;"/>
   </g>
   <g id="patch_102">
    <path clip-path="url(#p699961039f)" d="M 459.22329 356.3352 
L 462.618818 356.3352 
L 462.618818 356.290092 
L 459.22329 356.290092 
z
" style="fill:#607c8e;"/>
   </g>
   <g id="matplotlib.axis_1">
    <g id="xtick_1">
     <g id="line2d_1">
      <path clip-path="url(#p699961039f)" d="M 144.542101 356.3352 
L 144.542101 90.9792 
" style="fill:none;stroke:#b0b0b0;stroke-dasharray:2.96,1.28;stroke-dashoffset:0;stroke-opacity:0.5;stroke-width:0.8;"/>
     </g>
     <g id="line2d_2">
      <defs>
       <path d="M 0 0 
L 0 3.5 
" id="m0f92438dd3" style="stroke:#000000;stroke-width:0.8;"/>
      </defs>
      <g>
       <use style="stroke:#000000;stroke-width:0.8;" x="144.542101" xlink:href="#m0f92438dd3" y="356.3352"/>
      </g>
     </g>
     <g id="text_1">
      <!-- −200 -->
      <g transform="translate(130.808507 370.933637)scale(0.1 -0.1)">
       <defs>
        <path d="M 10.59375 35.5 
L 73.1875 35.5 
L 73.1875 27.203125 
L 10.59375 27.203125 
z
" id="DejaVuSans-8722"/>
        <path d="M 19.1875 8.296875 
L 53.609375 8.296875 
L 53.609375 0 
L 7.328125 0 
L 7.328125 8.296875 
Q 12.9375 14.109375 22.625 23.890625 
Q 32.328125 33.6875 34.8125 36.53125 
Q 39.546875 41.84375 41.421875 45.53125 
Q 43.3125 49.21875 43.3125 52.78125 
Q 43.3125 58.59375 39.234375 62.25 
Q 35.15625 65.921875 28.609375 65.921875 
Q 23.96875 65.921875 18.8125 64.3125 
Q 13.671875 62.703125 7.8125 59.421875 
L 7.8125 69.390625 
Q 13.765625 71.78125 18.9375 73 
Q 24.125 74.21875 28.421875 74.21875 
Q 39.75 74.21875 46.484375 68.546875 
Q 53.21875 62.890625 53.21875 53.421875 
Q 53.21875 48.921875 51.53125 44.890625 
Q 49.859375 40.875 45.40625 35.40625 
Q 44.1875 33.984375 37.640625 27.21875 
Q 31.109375 20.453125 19.1875 8.296875 
z
" id="DejaVuSans-50"/>
        <path d="M 31.78125 66.40625 
Q 24.171875 66.40625 20.328125 58.90625 
Q 16.5 51.421875 16.5 36.375 
Q 16.5 21.390625 20.328125 13.890625 
Q 24.171875 6.390625 31.78125 6.390625 
Q 39.453125 6.390625 43.28125 13.890625 
Q 47.125 21.390625 47.125 36.375 
Q 47.125 51.421875 43.28125 58.90625 
Q 39.453125 66.40625 31.78125 66.40625 
z
M 31.78125 74.21875 
Q 44.046875 74.21875 50.515625 64.515625 
Q 56.984375 54.828125 56.984375 36.375 
Q 56.984375 17.96875 50.515625 8.265625 
Q 44.046875 -1.421875 31.78125 -1.421875 
Q 19.53125 -1.421875 13.0625 8.265625 
Q 6.59375 17.96875 6.59375 36.375 
Q 6.59375 54.828125 13.0625 64.515625 
Q 19.53125 74.21875 31.78125 74.21875 
z
" id="DejaVuSans-48"/>
       </defs>
       <use xlink:href="#DejaVuSans-8722"/>
       <use x="83.789062" xlink:href="#DejaVuSans-50"/>
       <use x="147.412109" xlink:href="#DejaVuSans-48"/>
       <use x="211.035156" xlink:href="#DejaVuSans-48"/>
      </g>
     </g>
    </g>
    <g id="xtick_2">
     <g id="line2d_3">
      <path clip-path="url(#p699961039f)" d="M 225.054461 356.3352 
L 225.054461 90.9792 
" style="fill:none;stroke:#b0b0b0;stroke-dasharray:2.96,1.28;stroke-dashoffset:0;stroke-opacity:0.5;stroke-width:0.8;"/>
     </g>
     <g id="line2d_4">
      <g>
       <use style="stroke:#000000;stroke-width:0.8;" x="225.054461" xlink:href="#m0f92438dd3" y="356.3352"/>
      </g>
     </g>
     <g id="text_2">
      <!-- −100 -->
      <g transform="translate(211.320867 370.933637)scale(0.1 -0.1)">
       <defs>
        <path d="M 12.40625 8.296875 
L 28.515625 8.296875 
L 28.515625 63.921875 
L 10.984375 60.40625 
L 10.984375 69.390625 
L 28.421875 72.90625 
L 38.28125 72.90625 
L 38.28125 8.296875 
L 54.390625 8.296875 
L 54.390625 0 
L 12.40625 0 
z
" id="DejaVuSans-49"/>
       </defs>
       <use xlink:href="#DejaVuSans-8722"/>
       <use x="83.789062" xlink:href="#DejaVuSans-49"/>
       <use x="147.412109" xlink:href="#DejaVuSans-48"/>
       <use x="211.035156" xlink:href="#DejaVuSans-48"/>
      </g>
     </g>
    </g>
    <g id="xtick_3">
     <g id="line2d_5">
      <path clip-path="url(#p699961039f)" d="M 305.56682 356.3352 
L 305.56682 90.9792 
" style="fill:none;stroke:#b0b0b0;stroke-dasharray:2.96,1.28;stroke-dashoffset:0;stroke-opacity:0.5;stroke-width:0.8;"/>
     </g>
     <g id="line2d_6">
      <g>
       <use style="stroke:#000000;stroke-width:0.8;" x="305.56682" xlink:href="#m0f92438dd3" y="356.3352"/>
      </g>
     </g>
     <g id="text_3">
      <!-- 0 -->
      <g transform="translate(302.38557 370.933637)scale(0.1 -0.1)">
       <use xlink:href="#DejaVuSans-48"/>
      </g>
     </g>
    </g>
    <g id="xtick_4">
     <g id="line2d_7">
      <path clip-path="url(#p699961039f)" d="M 386.07918 356.3352 
L 386.07918 90.9792 
" style="fill:none;stroke:#b0b0b0;stroke-dasharray:2.96,1.28;stroke-dashoffset:0;stroke-opacity:0.5;stroke-width:0.8;"/>
     </g>
     <g id="line2d_8">
      <g>
       <use style="stroke:#000000;stroke-width:0.8;" x="386.07918" xlink:href="#m0f92438dd3" y="356.3352"/>
      </g>
     </g>
     <g id="text_4">
      <!-- 100 -->
      <g transform="translate(376.53543 370.933637)scale(0.1 -0.1)">
       <use xlink:href="#DejaVuSans-49"/>
       <use x="63.623047" xlink:href="#DejaVuSans-48"/>
       <use x="127.246094" xlink:href="#DejaVuSans-48"/>
      </g>
     </g>
    </g>
    <g id="xtick_5">
     <g id="line2d_9">
      <path clip-path="url(#p699961039f)" d="M 466.59154 356.3352 
L 466.59154 90.9792 
" style="fill:none;stroke:#b0b0b0;stroke-dasharray:2.96,1.28;stroke-dashoffset:0;stroke-opacity:0.5;stroke-width:0.8;"/>
     </g>
     <g id="line2d_10">
      <g>
       <use style="stroke:#000000;stroke-width:0.8;" x="466.59154" xlink:href="#m0f92438dd3" y="356.3352"/>
      </g>
     </g>
     <g id="text_5">
      <!-- 200 -->
      <g transform="translate(457.04779 370.933637)scale(0.1 -0.1)">
       <use xlink:href="#DejaVuSans-50"/>
       <use x="63.623047" xlink:href="#DejaVuSans-48"/>
       <use x="127.246094" xlink:href="#DejaVuSans-48"/>
      </g>
     </g>
    </g>
    <g id="text_6">
     <!-- decreasing  time -->
     <g transform="translate(223.893563 386.13145)scale(0.12 -0.12)">
      <defs>
       <path d="M 45.40625 46.390625 
L 45.40625 75.984375 
L 54.390625 75.984375 
L 54.390625 0 
L 45.40625 0 
L 45.40625 8.203125 
Q 42.578125 3.328125 38.25 0.953125 
Q 33.9375 -1.421875 27.875 -1.421875 
Q 17.96875 -1.421875 11.734375 6.484375 
Q 5.515625 14.40625 5.515625 27.296875 
Q 5.515625 40.1875 11.734375 48.09375 
Q 17.96875 56 27.875 56 
Q 33.9375 56 38.25 53.625 
Q 42.578125 51.265625 45.40625 46.390625 
z
M 14.796875 27.296875 
Q 14.796875 17.390625 18.875 11.75 
Q 22.953125 6.109375 30.078125 6.109375 
Q 37.203125 6.109375 41.296875 11.75 
Q 45.40625 17.390625 45.40625 27.296875 
Q 45.40625 37.203125 41.296875 42.84375 
Q 37.203125 48.484375 30.078125 48.484375 
Q 22.953125 48.484375 18.875 42.84375 
Q 14.796875 37.203125 14.796875 27.296875 
z
" id="DejaVuSans-100"/>
       <path d="M 56.203125 29.59375 
L 56.203125 25.203125 
L 14.890625 25.203125 
Q 15.484375 15.921875 20.484375 11.0625 
Q 25.484375 6.203125 34.421875 6.203125 
Q 39.59375 6.203125 44.453125 7.46875 
Q 49.3125 8.734375 54.109375 11.28125 
L 54.109375 2.78125 
Q 49.265625 0.734375 44.1875 -0.34375 
Q 39.109375 -1.421875 33.890625 -1.421875 
Q 20.796875 -1.421875 13.15625 6.1875 
Q 5.515625 13.8125 5.515625 26.8125 
Q 5.515625 40.234375 12.765625 48.109375 
Q 20.015625 56 32.328125 56 
Q 43.359375 56 49.78125 48.890625 
Q 56.203125 41.796875 56.203125 29.59375 
z
M 47.21875 32.234375 
Q 47.125 39.59375 43.09375 43.984375 
Q 39.0625 48.390625 32.421875 48.390625 
Q 24.90625 48.390625 20.390625 44.140625 
Q 15.875 39.890625 15.1875 32.171875 
z
" id="DejaVuSans-101"/>
       <path d="M 48.78125 52.59375 
L 48.78125 44.1875 
Q 44.96875 46.296875 41.140625 47.34375 
Q 37.3125 48.390625 33.40625 48.390625 
Q 24.65625 48.390625 19.8125 42.84375 
Q 14.984375 37.3125 14.984375 27.296875 
Q 14.984375 17.28125 19.8125 11.734375 
Q 24.65625 6.203125 33.40625 6.203125 
Q 37.3125 6.203125 41.140625 7.25 
Q 44.96875 8.296875 48.78125 10.40625 
L 48.78125 2.09375 
Q 45.015625 0.34375 40.984375 -0.53125 
Q 36.96875 -1.421875 32.421875 -1.421875 
Q 20.0625 -1.421875 12.78125 6.34375 
Q 5.515625 14.109375 5.515625 27.296875 
Q 5.515625 40.671875 12.859375 48.328125 
Q 20.21875 56 33.015625 56 
Q 37.15625 56 41.109375 55.140625 
Q 45.0625 54.296875 48.78125 52.59375 
z
" id="DejaVuSans-99"/>
       <path d="M 41.109375 46.296875 
Q 39.59375 47.171875 37.8125 47.578125 
Q 36.03125 48 33.890625 48 
Q 26.265625 48 22.1875 43.046875 
Q 18.109375 38.09375 18.109375 28.8125 
L 18.109375 0 
L 9.078125 0 
L 9.078125 54.6875 
L 18.109375 54.6875 
L 18.109375 46.1875 
Q 20.953125 51.171875 25.484375 53.578125 
Q 30.03125 56 36.53125 56 
Q 37.453125 56 38.578125 55.875 
Q 39.703125 55.765625 41.0625 55.515625 
z
" id="DejaVuSans-114"/>
       <path d="M 34.28125 27.484375 
Q 23.390625 27.484375 19.1875 25 
Q 14.984375 22.515625 14.984375 16.5 
Q 14.984375 11.71875 18.140625 8.90625 
Q 21.296875 6.109375 26.703125 6.109375 
Q 34.1875 6.109375 38.703125 11.40625 
Q 43.21875 16.703125 43.21875 25.484375 
L 43.21875 27.484375 
z
M 52.203125 31.203125 
L 52.203125 0 
L 43.21875 0 
L 43.21875 8.296875 
Q 40.140625 3.328125 35.546875 0.953125 
Q 30.953125 -1.421875 24.3125 -1.421875 
Q 15.921875 -1.421875 10.953125 3.296875 
Q 6 8.015625 6 15.921875 
Q 6 25.140625 12.171875 29.828125 
Q 18.359375 34.515625 30.609375 34.515625 
L 43.21875 34.515625 
L 43.21875 35.40625 
Q 43.21875 41.609375 39.140625 45 
Q 35.0625 48.390625 27.6875 48.390625 
Q 23 48.390625 18.546875 47.265625 
Q 14.109375 46.140625 10.015625 43.890625 
L 10.015625 52.203125 
Q 14.9375 54.109375 19.578125 55.046875 
Q 24.21875 56 28.609375 56 
Q 40.484375 56 46.34375 49.84375 
Q 52.203125 43.703125 52.203125 31.203125 
z
" id="DejaVuSans-97"/>
       <path d="M 44.28125 53.078125 
L 44.28125 44.578125 
Q 40.484375 46.53125 36.375 47.5 
Q 32.28125 48.484375 27.875 48.484375 
Q 21.1875 48.484375 17.84375 46.4375 
Q 14.5 44.390625 14.5 40.28125 
Q 14.5 37.15625 16.890625 35.375 
Q 19.28125 33.59375 26.515625 31.984375 
L 29.59375 31.296875 
Q 39.15625 29.25 43.1875 25.515625 
Q 47.21875 21.78125 47.21875 15.09375 
Q 47.21875 7.46875 41.1875 3.015625 
Q 35.15625 -1.421875 24.609375 -1.421875 
Q 20.21875 -1.421875 15.453125 -0.5625 
Q 10.6875 0.296875 5.421875 2 
L 5.421875 11.28125 
Q 10.40625 8.6875 15.234375 7.390625 
Q 20.0625 6.109375 24.8125 6.109375 
Q 31.15625 6.109375 34.5625 8.28125 
Q 37.984375 10.453125 37.984375 14.40625 
Q 37.984375 18.0625 35.515625 20.015625 
Q 33.0625 21.96875 24.703125 23.78125 
L 21.578125 24.515625 
Q 13.234375 26.265625 9.515625 29.90625 
Q 5.8125 33.546875 5.8125 39.890625 
Q 5.8125 47.609375 11.28125 51.796875 
Q 16.75 56 26.8125 56 
Q 31.78125 56 36.171875 55.265625 
Q 40.578125 54.546875 44.28125 53.078125 
z
" id="DejaVuSans-115"/>
       <path d="M 9.421875 54.6875 
L 18.40625 54.6875 
L 18.40625 0 
L 9.421875 0 
z
M 9.421875 75.984375 
L 18.40625 75.984375 
L 18.40625 64.59375 
L 9.421875 64.59375 
z
" id="DejaVuSans-105"/>
       <path d="M 54.890625 33.015625 
L 54.890625 0 
L 45.90625 0 
L 45.90625 32.71875 
Q 45.90625 40.484375 42.875 44.328125 
Q 39.84375 48.1875 33.796875 48.1875 
Q 26.515625 48.1875 22.3125 43.546875 
Q 18.109375 38.921875 18.109375 30.90625 
L 18.109375 0 
L 9.078125 0 
L 9.078125 54.6875 
L 18.109375 54.6875 
L 18.109375 46.1875 
Q 21.34375 51.125 25.703125 53.5625 
Q 30.078125 56 35.796875 56 
Q 45.21875 56 50.046875 50.171875 
Q 54.890625 44.34375 54.890625 33.015625 
z
" id="DejaVuSans-110"/>
       <path d="M 45.40625 27.984375 
Q 45.40625 37.75 41.375 43.109375 
Q 37.359375 48.484375 30.078125 48.484375 
Q 22.859375 48.484375 18.828125 43.109375 
Q 14.796875 37.75 14.796875 27.984375 
Q 14.796875 18.265625 18.828125 12.890625 
Q 22.859375 7.515625 30.078125 7.515625 
Q 37.359375 7.515625 41.375 12.890625 
Q 45.40625 18.265625 45.40625 27.984375 
z
M 54.390625 6.78125 
Q 54.390625 -7.171875 48.1875 -13.984375 
Q 42 -20.796875 29.203125 -20.796875 
Q 24.46875 -20.796875 20.265625 -20.09375 
Q 16.0625 -19.390625 12.109375 -17.921875 
L 12.109375 -9.1875 
Q 16.0625 -11.328125 19.921875 -12.34375 
Q 23.78125 -13.375 27.78125 -13.375 
Q 36.625 -13.375 41.015625 -8.765625 
Q 45.40625 -4.15625 45.40625 5.171875 
L 45.40625 9.625 
Q 42.625 4.78125 38.28125 2.390625 
Q 33.9375 0 27.875 0 
Q 17.828125 0 11.671875 7.65625 
Q 5.515625 15.328125 5.515625 27.984375 
Q 5.515625 40.671875 11.671875 48.328125 
Q 17.828125 56 27.875 56 
Q 33.9375 56 38.28125 53.609375 
Q 42.625 51.21875 45.40625 46.390625 
L 45.40625 54.6875 
L 54.390625 54.6875 
z
" id="DejaVuSans-103"/>
       <path id="DejaVuSans-32"/>
       <path d="M 18.3125 70.21875 
L 18.3125 54.6875 
L 36.8125 54.6875 
L 36.8125 47.703125 
L 18.3125 47.703125 
L 18.3125 18.015625 
Q 18.3125 11.328125 20.140625 9.421875 
Q 21.96875 7.515625 27.59375 7.515625 
L 36.8125 7.515625 
L 36.8125 0 
L 27.59375 0 
Q 17.1875 0 13.234375 3.875 
Q 9.28125 7.765625 9.28125 18.015625 
L 9.28125 47.703125 
L 2.6875 47.703125 
L 2.6875 54.6875 
L 9.28125 54.6875 
L 9.28125 70.21875 
z
" id="DejaVuSans-116"/>
       <path d="M 52 44.1875 
Q 55.375 50.25 60.0625 53.125 
Q 64.75 56 71.09375 56 
Q 79.640625 56 84.28125 50.015625 
Q 88.921875 44.046875 88.921875 33.015625 
L 88.921875 0 
L 79.890625 0 
L 79.890625 32.71875 
Q 79.890625 40.578125 77.09375 44.375 
Q 74.3125 48.1875 68.609375 48.1875 
Q 61.625 48.1875 57.5625 43.546875 
Q 53.515625 38.921875 53.515625 30.90625 
L 53.515625 0 
L 44.484375 0 
L 44.484375 32.71875 
Q 44.484375 40.625 41.703125 44.40625 
Q 38.921875 48.1875 33.109375 48.1875 
Q 26.21875 48.1875 22.15625 43.53125 
Q 18.109375 38.875 18.109375 30.90625 
L 18.109375 0 
L 9.078125 0 
L 9.078125 54.6875 
L 18.109375 54.6875 
L 18.109375 46.1875 
Q 21.1875 51.21875 25.484375 53.609375 
Q 29.78125 56 35.6875 56 
Q 41.65625 56 45.828125 52.96875 
Q 50 49.953125 52 44.1875 
z
" id="DejaVuSans-109"/>
      </defs>
      <use xlink:href="#DejaVuSans-100"/>
      <use x="63.476562" xlink:href="#DejaVuSans-101"/>
      <use x="125" xlink:href="#DejaVuSans-99"/>
      <use x="179.980469" xlink:href="#DejaVuSans-114"/>
      <use x="218.84375" xlink:href="#DejaVuSans-101"/>
      <use x="280.367188" xlink:href="#DejaVuSans-97"/>
      <use x="341.646484" xlink:href="#DejaVuSans-115"/>
      <use x="393.746094" xlink:href="#DejaVuSans-105"/>
      <use x="421.529297" xlink:href="#DejaVuSans-110"/>
      <use x="484.908203" xlink:href="#DejaVuSans-103"/>
      <use x="548.384766" xlink:href="#DejaVuSans-32"/>
      <use x="580.171875" xlink:href="#DejaVuSans-32"/>
      <use x="611.958984" xlink:href="#DejaVuSans-116"/>
      <use x="651.167969" xlink:href="#DejaVuSans-105"/>
      <use x="678.951172" xlink:href="#DejaVuSans-109"/>
      <use x="776.363281" xlink:href="#DejaVuSans-101"/>
     </g>
    </g>
   </g>
   <g id="matplotlib.axis_2">
    <g id="ytick_1">
     <g id="line2d_11">
      <path clip-path="url(#p699961039f)" d="M 66.87 356.3352 
L 481.464 356.3352 
" style="fill:none;stroke:#b0b0b0;stroke-dasharray:2.96,1.28;stroke-dashoffset:0;stroke-opacity:0.5;stroke-width:0.8;"/>
     </g>
     <g id="line2d_12">
      <defs>
       <path d="M 0 0 
L -3.5 0 
" id="md04d2ea904" style="stroke:#000000;stroke-width:0.8;"/>
      </defs>
      <g>
       <use style="stroke:#000000;stroke-width:0.8;" x="66.87" xlink:href="#md04d2ea904" y="356.3352"/>
      </g>
     </g>
     <g id="text_7">
      <!-- 0 -->
      <g transform="translate(53.5075 360.134419)scale(0.1 -0.1)">
       <use xlink:href="#DejaVuSans-48"/>
      </g>
     </g>
    </g>
    <g id="ytick_2">
     <g id="line2d_13">
      <path clip-path="url(#p699961039f)" d="M 66.87 311.226766 
L 481.464 311.226766 
" style="fill:none;stroke:#b0b0b0;stroke-dasharray:2.96,1.28;stroke-dashoffset:0;stroke-opacity:0.5;stroke-width:0.8;"/>
     </g>
     <g id="line2d_14">
      <g>
       <use style="stroke:#000000;stroke-width:0.8;" x="66.87" xlink:href="#md04d2ea904" y="311.226766"/>
      </g>
     </g>
     <g id="text_8">
      <!-- 2000 -->
      <g transform="translate(34.42 315.025985)scale(0.1 -0.1)">
       <use xlink:href="#DejaVuSans-50"/>
       <use x="63.623047" xlink:href="#DejaVuSans-48"/>
       <use x="127.246094" xlink:href="#DejaVuSans-48"/>
       <use x="190.869141" xlink:href="#DejaVuSans-48"/>
      </g>
     </g>
    </g>
    <g id="ytick_3">
     <g id="line2d_15">
      <path clip-path="url(#p699961039f)" d="M 66.87 266.118333 
L 481.464 266.118333 
" style="fill:none;stroke:#b0b0b0;stroke-dasharray:2.96,1.28;stroke-dashoffset:0;stroke-opacity:0.5;stroke-width:0.8;"/>
     </g>
     <g id="line2d_16">
      <g>
       <use style="stroke:#000000;stroke-width:0.8;" x="66.87" xlink:href="#md04d2ea904" y="266.118333"/>
      </g>
     </g>
     <g id="text_9">
      <!-- 4000 -->
      <g transform="translate(34.42 269.917551)scale(0.1 -0.1)">
       <defs>
        <path d="M 37.796875 64.3125 
L 12.890625 25.390625 
L 37.796875 25.390625 
z
M 35.203125 72.90625 
L 47.609375 72.90625 
L 47.609375 25.390625 
L 58.015625 25.390625 
L 58.015625 17.1875 
L 47.609375 17.1875 
L 47.609375 0 
L 37.796875 0 
L 37.796875 17.1875 
L 4.890625 17.1875 
L 4.890625 26.703125 
z
" id="DejaVuSans-52"/>
       </defs>
       <use xlink:href="#DejaVuSans-52"/>
       <use x="63.623047" xlink:href="#DejaVuSans-48"/>
       <use x="127.246094" xlink:href="#DejaVuSans-48"/>
       <use x="190.869141" xlink:href="#DejaVuSans-48"/>
      </g>
     </g>
    </g>
    <g id="ytick_4">
     <g id="line2d_17">
      <path clip-path="url(#p699961039f)" d="M 66.87 221.009899 
L 481.464 221.009899 
" style="fill:none;stroke:#b0b0b0;stroke-dasharray:2.96,1.28;stroke-dashoffset:0;stroke-opacity:0.5;stroke-width:0.8;"/>
     </g>
     <g id="line2d_18">
      <g>
       <use style="stroke:#000000;stroke-width:0.8;" x="66.87" xlink:href="#md04d2ea904" y="221.009899"/>
      </g>
     </g>
     <g id="text_10">
      <!-- 6000 -->
      <g transform="translate(34.42 224.809118)scale(0.1 -0.1)">
       <defs>
        <path d="M 33.015625 40.375 
Q 26.375 40.375 22.484375 35.828125 
Q 18.609375 31.296875 18.609375 23.390625 
Q 18.609375 15.53125 22.484375 10.953125 
Q 26.375 6.390625 33.015625 6.390625 
Q 39.65625 6.390625 43.53125 10.953125 
Q 47.40625 15.53125 47.40625 23.390625 
Q 47.40625 31.296875 43.53125 35.828125 
Q 39.65625 40.375 33.015625 40.375 
z
M 52.59375 71.296875 
L 52.59375 62.3125 
Q 48.875 64.0625 45.09375 64.984375 
Q 41.3125 65.921875 37.59375 65.921875 
Q 27.828125 65.921875 22.671875 59.328125 
Q 17.53125 52.734375 16.796875 39.40625 
Q 19.671875 43.65625 24.015625 45.921875 
Q 28.375 48.1875 33.59375 48.1875 
Q 44.578125 48.1875 50.953125 41.515625 
Q 57.328125 34.859375 57.328125 23.390625 
Q 57.328125 12.15625 50.6875 5.359375 
Q 44.046875 -1.421875 33.015625 -1.421875 
Q 20.359375 -1.421875 13.671875 8.265625 
Q 6.984375 17.96875 6.984375 36.375 
Q 6.984375 53.65625 15.1875 63.9375 
Q 23.390625 74.21875 37.203125 74.21875 
Q 40.921875 74.21875 44.703125 73.484375 
Q 48.484375 72.75 52.59375 71.296875 
z
" id="DejaVuSans-54"/>
       </defs>
       <use xlink:href="#DejaVuSans-54"/>
       <use x="63.623047" xlink:href="#DejaVuSans-48"/>
       <use x="127.246094" xlink:href="#DejaVuSans-48"/>
       <use x="190.869141" xlink:href="#DejaVuSans-48"/>
      </g>
     </g>
    </g>
    <g id="ytick_5">
     <g id="line2d_19">
      <path clip-path="url(#p699961039f)" d="M 66.87 175.901465 
L 481.464 175.901465 
" style="fill:none;stroke:#b0b0b0;stroke-dasharray:2.96,1.28;stroke-dashoffset:0;stroke-opacity:0.5;stroke-width:0.8;"/>
     </g>
     <g id="line2d_20">
      <g>
       <use style="stroke:#000000;stroke-width:0.8;" x="66.87" xlink:href="#md04d2ea904" y="175.901465"/>
      </g>
     </g>
     <g id="text_11">
      <!-- 8000 -->
      <g transform="translate(34.42 179.700684)scale(0.1 -0.1)">
       <defs>
        <path d="M 31.78125 34.625 
Q 24.75 34.625 20.71875 30.859375 
Q 16.703125 27.09375 16.703125 20.515625 
Q 16.703125 13.921875 20.71875 10.15625 
Q 24.75 6.390625 31.78125 6.390625 
Q 38.8125 6.390625 42.859375 10.171875 
Q 46.921875 13.96875 46.921875 20.515625 
Q 46.921875 27.09375 42.890625 30.859375 
Q 38.875 34.625 31.78125 34.625 
z
M 21.921875 38.8125 
Q 15.578125 40.375 12.03125 44.71875 
Q 8.5 49.078125 8.5 55.328125 
Q 8.5 64.0625 14.71875 69.140625 
Q 20.953125 74.21875 31.78125 74.21875 
Q 42.671875 74.21875 48.875 69.140625 
Q 55.078125 64.0625 55.078125 55.328125 
Q 55.078125 49.078125 51.53125 44.71875 
Q 48 40.375 41.703125 38.8125 
Q 48.828125 37.15625 52.796875 32.3125 
Q 56.78125 27.484375 56.78125 20.515625 
Q 56.78125 9.90625 50.3125 4.234375 
Q 43.84375 -1.421875 31.78125 -1.421875 
Q 19.734375 -1.421875 13.25 4.234375 
Q 6.78125 9.90625 6.78125 20.515625 
Q 6.78125 27.484375 10.78125 32.3125 
Q 14.796875 37.15625 21.921875 38.8125 
z
M 18.3125 54.390625 
Q 18.3125 48.734375 21.84375 45.5625 
Q 25.390625 42.390625 31.78125 42.390625 
Q 38.140625 42.390625 41.71875 45.5625 
Q 45.3125 48.734375 45.3125 54.390625 
Q 45.3125 60.0625 41.71875 63.234375 
Q 38.140625 66.40625 31.78125 66.40625 
Q 25.390625 66.40625 21.84375 63.234375 
Q 18.3125 60.0625 18.3125 54.390625 
z
" id="DejaVuSans-56"/>
       </defs>
       <use xlink:href="#DejaVuSans-56"/>
       <use x="63.623047" xlink:href="#DejaVuSans-48"/>
       <use x="127.246094" xlink:href="#DejaVuSans-48"/>
       <use x="190.869141" xlink:href="#DejaVuSans-48"/>
      </g>
     </g>
    </g>
    <g id="ytick_6">
     <g id="line2d_21">
      <path clip-path="url(#p699961039f)" d="M 66.87 130.793031 
L 481.464 130.793031 
" style="fill:none;stroke:#b0b0b0;stroke-dasharray:2.96,1.28;stroke-dashoffset:0;stroke-opacity:0.5;stroke-width:0.8;"/>
     </g>
     <g id="line2d_22">
      <g>
       <use style="stroke:#000000;stroke-width:0.8;" x="66.87" xlink:href="#md04d2ea904" y="130.793031"/>
      </g>
     </g>
     <g id="text_12">
      <!-- 10000 -->
      <g transform="translate(28.0575 134.59225)scale(0.1 -0.1)">
       <use xlink:href="#DejaVuSans-49"/>
       <use x="63.623047" xlink:href="#DejaVuSans-48"/>
       <use x="127.246094" xlink:href="#DejaVuSans-48"/>
       <use x="190.869141" xlink:href="#DejaVuSans-48"/>
       <use x="254.492188" xlink:href="#DejaVuSans-48"/>
      </g>
     </g>
    </g>
    <g id="text_13">
     <!-- counts -->
     <g transform="translate(21.561875 243.710325)rotate(-90)scale(0.12 -0.12)">
      <defs>
       <path d="M 30.609375 48.390625 
Q 23.390625 48.390625 19.1875 42.75 
Q 14.984375 37.109375 14.984375 27.296875 
Q 14.984375 17.484375 19.15625 11.84375 
Q 23.34375 6.203125 30.609375 6.203125 
Q 37.796875 6.203125 41.984375 11.859375 
Q 46.1875 17.53125 46.1875 27.296875 
Q 46.1875 37.015625 41.984375 42.703125 
Q 37.796875 48.390625 30.609375 48.390625 
z
M 30.609375 56 
Q 42.328125 56 49.015625 48.375 
Q 55.71875 40.765625 55.71875 27.296875 
Q 55.71875 13.875 49.015625 6.21875 
Q 42.328125 -1.421875 30.609375 -1.421875 
Q 18.84375 -1.421875 12.171875 6.21875 
Q 5.515625 13.875 5.515625 27.296875 
Q 5.515625 40.765625 12.171875 48.375 
Q 18.84375 56 30.609375 56 
z
" id="DejaVuSans-111"/>
       <path d="M 8.5 21.578125 
L 8.5 54.6875 
L 17.484375 54.6875 
L 17.484375 21.921875 
Q 17.484375 14.15625 20.5 10.265625 
Q 23.53125 6.390625 29.59375 6.390625 
Q 36.859375 6.390625 41.078125 11.03125 
Q 45.3125 15.671875 45.3125 23.6875 
L 45.3125 54.6875 
L 54.296875 54.6875 
L 54.296875 0 
L 45.3125 0 
L 45.3125 8.40625 
Q 42.046875 3.421875 37.71875 1 
Q 33.40625 -1.421875 27.6875 -1.421875 
Q 18.265625 -1.421875 13.375 4.4375 
Q 8.5 10.296875 8.5 21.578125 
z
M 31.109375 56 
z
" id="DejaVuSans-117"/>
      </defs>
      <use xlink:href="#DejaVuSans-99"/>
      <use x="54.980469" xlink:href="#DejaVuSans-111"/>
      <use x="116.162109" xlink:href="#DejaVuSans-117"/>
      <use x="179.541016" xlink:href="#DejaVuSans-110"/>
      <use x="242.919922" xlink:href="#DejaVuSans-116"/>
      <use x="282.128906" xlink:href="#DejaVuSans-115"/>
     </g>
    </g>
   </g>
   <g id="patch_103">
    <path d="M 66.87 356.3352 
L 66.87 90.9792 
" style="fill:none;stroke:#000000;stroke-linecap:square;stroke-linejoin:miter;stroke-width:0.8;"/>
   </g>
   <g id="patch_104">
    <path d="M 481.464 356.3352 
L 481.464 90.9792 
" style="fill:none;stroke:#000000;stroke-linecap:square;stroke-linejoin:miter;stroke-width:0.8;"/>
   </g>
   <g id="patch_105">
    <path d="M 66.87 356.3352 
L 481.464 356.3352 
" style="fill:none;stroke:#000000;stroke-linecap:square;stroke-linejoin:miter;stroke-width:0.8;"/>
   </g>
   <g id="patch_106">
    <path d="M 66.87 90.9792 
L 481.464 90.9792 
" style="fill:none;stroke:#000000;stroke-linecap:square;stroke-linejoin:miter;stroke-width:0.8;"/>
   </g>
   <g id="text_14">
    <!-- The finish time decreasing  time for class A, Uti 0.3 -->
    <g transform="translate(120.640125 80.9792)scale(0.12 -0.12)">
     <defs>
      <path d="M -0.296875 72.90625 
L 61.375 72.90625 
L 61.375 64.59375 
L 35.5 64.59375 
L 35.5 0 
L 25.59375 0 
L 25.59375 64.59375 
L -0.296875 64.59375 
z
" id="DejaVuSans-84"/>
      <path d="M 54.890625 33.015625 
L 54.890625 0 
L 45.90625 0 
L 45.90625 32.71875 
Q 45.90625 40.484375 42.875 44.328125 
Q 39.84375 48.1875 33.796875 48.1875 
Q 26.515625 48.1875 22.3125 43.546875 
Q 18.109375 38.921875 18.109375 30.90625 
L 18.109375 0 
L 9.078125 0 
L 9.078125 75.984375 
L 18.109375 75.984375 
L 18.109375 46.1875 
Q 21.34375 51.125 25.703125 53.5625 
Q 30.078125 56 35.796875 56 
Q 45.21875 56 50.046875 50.171875 
Q 54.890625 44.34375 54.890625 33.015625 
z
" id="DejaVuSans-104"/>
      <path d="M 37.109375 75.984375 
L 37.109375 68.5 
L 28.515625 68.5 
Q 23.6875 68.5 21.796875 66.546875 
Q 19.921875 64.59375 19.921875 59.515625 
L 19.921875 54.6875 
L 34.71875 54.6875 
L 34.71875 47.703125 
L 19.921875 47.703125 
L 19.921875 0 
L 10.890625 0 
L 10.890625 47.703125 
L 2.296875 47.703125 
L 2.296875 54.6875 
L 10.890625 54.6875 
L 10.890625 58.5 
Q 10.890625 67.625 15.140625 71.796875 
Q 19.390625 75.984375 28.609375 75.984375 
z
" id="DejaVuSans-102"/>
      <path d="M 9.421875 75.984375 
L 18.40625 75.984375 
L 18.40625 0 
L 9.421875 0 
z
" id="DejaVuSans-108"/>
      <path d="M 34.1875 63.1875 
L 20.796875 26.90625 
L 47.609375 26.90625 
z
M 28.609375 72.90625 
L 39.796875 72.90625 
L 67.578125 0 
L 57.328125 0 
L 50.6875 18.703125 
L 17.828125 18.703125 
L 11.1875 0 
L 0.78125 0 
z
" id="DejaVuSans-65"/>
      <path d="M 11.71875 12.40625 
L 22.015625 12.40625 
L 22.015625 4 
L 14.015625 -11.625 
L 7.71875 -11.625 
L 11.71875 4 
z
" id="DejaVuSans-44"/>
      <path d="M 8.6875 72.90625 
L 18.609375 72.90625 
L 18.609375 28.609375 
Q 18.609375 16.890625 22.84375 11.734375 
Q 27.09375 6.59375 36.625 6.59375 
Q 46.09375 6.59375 50.34375 11.734375 
Q 54.59375 16.890625 54.59375 28.609375 
L 54.59375 72.90625 
L 64.5 72.90625 
L 64.5 27.390625 
Q 64.5 13.140625 57.4375 5.859375 
Q 50.390625 -1.421875 36.625 -1.421875 
Q 22.796875 -1.421875 15.734375 5.859375 
Q 8.6875 13.140625 8.6875 27.390625 
z
" id="DejaVuSans-85"/>
      <path d="M 10.6875 12.40625 
L 21 12.40625 
L 21 0 
L 10.6875 0 
z
" id="DejaVuSans-46"/>
      <path d="M 40.578125 39.3125 
Q 47.65625 37.796875 51.625 33 
Q 55.609375 28.21875 55.609375 21.1875 
Q 55.609375 10.40625 48.1875 4.484375 
Q 40.765625 -1.421875 27.09375 -1.421875 
Q 22.515625 -1.421875 17.65625 -0.515625 
Q 12.796875 0.390625 7.625 2.203125 
L 7.625 11.71875 
Q 11.71875 9.328125 16.59375 8.109375 
Q 21.484375 6.890625 26.8125 6.890625 
Q 36.078125 6.890625 40.9375 10.546875 
Q 45.796875 14.203125 45.796875 21.1875 
Q 45.796875 27.640625 41.28125 31.265625 
Q 36.765625 34.90625 28.71875 34.90625 
L 20.21875 34.90625 
L 20.21875 43.015625 
L 29.109375 43.015625 
Q 36.375 43.015625 40.234375 45.921875 
Q 44.09375 48.828125 44.09375 54.296875 
Q 44.09375 59.90625 40.109375 62.90625 
Q 36.140625 65.921875 28.71875 65.921875 
Q 24.65625 65.921875 20.015625 65.03125 
Q 15.375 64.15625 9.8125 62.3125 
L 9.8125 71.09375 
Q 15.4375 72.65625 20.34375 73.4375 
Q 25.25 74.21875 29.59375 74.21875 
Q 40.828125 74.21875 47.359375 69.109375 
Q 53.90625 64.015625 53.90625 55.328125 
Q 53.90625 49.265625 50.4375 45.09375 
Q 46.96875 40.921875 40.578125 39.3125 
z
" id="DejaVuSans-51"/>
     </defs>
     <use xlink:href="#DejaVuSans-84"/>
     <use x="61.083984" xlink:href="#DejaVuSans-104"/>
     <use x="124.462891" xlink:href="#DejaVuSans-101"/>
     <use x="185.986328" xlink:href="#DejaVuSans-32"/>
     <use x="217.773438" xlink:href="#DejaVuSans-102"/>
     <use x="252.978516" xlink:href="#DejaVuSans-105"/>
     <use x="280.761719" xlink:href="#DejaVuSans-110"/>
     <use x="344.140625" xlink:href="#DejaVuSans-105"/>
     <use x="371.923828" xlink:href="#DejaVuSans-115"/>
     <use x="424.023438" xlink:href="#DejaVuSans-104"/>
     <use x="487.402344" xlink:href="#DejaVuSans-32"/>
     <use x="519.189453" xlink:href="#DejaVuSans-116"/>
     <use x="558.398438" xlink:href="#DejaVuSans-105"/>
     <use x="586.181641" xlink:href="#DejaVuSans-109"/>
     <use x="683.59375" xlink:href="#DejaVuSans-101"/>
     <use x="745.117188" xlink:href="#DejaVuSans-32"/>
     <use x="776.904297" xlink:href="#DejaVuSans-100"/>
     <use x="840.380859" xlink:href="#DejaVuSans-101"/>
     <use x="901.904297" xlink:href="#DejaVuSans-99"/>
     <use x="956.884766" xlink:href="#DejaVuSans-114"/>
     <use x="995.748047" xlink:href="#DejaVuSans-101"/>
     <use x="1057.271484" xlink:href="#DejaVuSans-97"/>
     <use x="1118.550781" xlink:href="#DejaVuSans-115"/>
     <use x="1170.650391" xlink:href="#DejaVuSans-105"/>
     <use x="1198.433594" xlink:href="#DejaVuSans-110"/>
     <use x="1261.8125" xlink:href="#DejaVuSans-103"/>
     <use x="1325.289062" xlink:href="#DejaVuSans-32"/>
     <use x="1357.076172" xlink:href="#DejaVuSans-32"/>
     <use x="1388.863281" xlink:href="#DejaVuSans-116"/>
     <use x="1428.072266" xlink:href="#DejaVuSans-105"/>
     <use x="1455.855469" xlink:href="#DejaVuSans-109"/>
     <use x="1553.267578" xlink:href="#DejaVuSans-101"/>
     <use x="1614.791016" xlink:href="#DejaVuSans-32"/>
     <use x="1646.578125" xlink:href="#DejaVuSans-102"/>
     <use x="1681.783203" xlink:href="#DejaVuSans-111"/>
     <use x="1742.964844" xlink:href="#DejaVuSans-114"/>
     <use x="1784.078125" xlink:href="#DejaVuSans-32"/>
     <use x="1815.865234" xlink:href="#DejaVuSans-99"/>
     <use x="1870.845703" xlink:href="#DejaVuSans-108"/>
     <use x="1898.628906" xlink:href="#DejaVuSans-97"/>
     <use x="1959.908203" xlink:href="#DejaVuSans-115"/>
     <use x="2012.007812" xlink:href="#DejaVuSans-115"/>
     <use x="2064.107422" xlink:href="#DejaVuSans-32"/>
     <use x="2095.894531" xlink:href="#DejaVuSans-65"/>
     <use x="2164.302734" xlink:href="#DejaVuSans-44"/>
     <use x="2196.089844" xlink:href="#DejaVuSans-32"/>
     <use x="2227.876953" xlink:href="#DejaVuSans-85"/>
     <use x="2301.070312" xlink:href="#DejaVuSans-116"/>
     <use x="2340.279297" xlink:href="#DejaVuSans-105"/>
     <use x="2368.0625" xlink:href="#DejaVuSans-32"/>
     <use x="2399.849609" xlink:href="#DejaVuSans-48"/>
     <use x="2463.472656" xlink:href="#DejaVuSans-46"/>
     <use x="2495.259766" xlink:href="#DejaVuSans-51"/>
    </g>
   </g>
  </g>
  <g id="axes_2">
   <g id="patch_107">
    <path d="M 66.87 674.7624 
L 481.464 674.7624 
L 481.464 409.4064 
L 66.87 409.4064 
z
" style="fill:#ffffff;"/>
   </g>
   <g id="patch_108">
    <path clip-path="url(#p4b705966dc)" d="M 85.715182 674.7624 
L 89.11071 674.7624 
L 89.11071 674.713716 
L 85.715182 674.713716 
z
" style="fill:#607c8e;"/>
   </g>
   <g id="patch_109">
    <path clip-path="url(#p4b705966dc)" d="M 89.487991 674.7624 
L 92.883519 674.7624 
L 92.883519 674.7624 
L 89.487991 674.7624 
z
" style="fill:#607c8e;"/>
   </g>
   <g id="patch_110">
    <path clip-path="url(#p4b705966dc)" d="M 93.2608 674.7624 
L 96.656328 674.7624 
L 96.656328 674.7624 
L 93.2608 674.7624 
z
" style="fill:#607c8e;"/>
   </g>
   <g id="patch_111">
    <path clip-path="url(#p4b705966dc)" d="M 97.033609 674.7624 
L 100.429138 674.7624 
L 100.429138 674.713716 
L 97.033609 674.713716 
z
" style="fill:#607c8e;"/>
   </g>
   <g id="patch_112">
    <path clip-path="url(#p4b705966dc)" d="M 100.806419 674.7624 
L 104.201947 674.7624 
L 104.201947 674.665031 
L 100.806419 674.665031 
z
" style="fill:#607c8e;"/>
   </g>
   <g id="patch_113">
    <path clip-path="url(#p4b705966dc)" d="M 104.579228 674.7624 
L 107.974756 674.7624 
L 107.974756 674.713716 
L 104.579228 674.713716 
z
" style="fill:#607c8e;"/>
   </g>
   <g id="patch_114">
    <path clip-path="url(#p4b705966dc)" d="M 108.352037 674.7624 
L 111.747565 674.7624 
L 111.747565 674.713716 
L 108.352037 674.713716 
z
" style="fill:#607c8e;"/>
   </g>
   <g id="patch_115">
    <path clip-path="url(#p4b705966dc)" d="M 112.124846 674.7624 
L 115.520374 674.7624 
L 115.520374 674.616347 
L 112.124846 674.616347 
z
" style="fill:#607c8e;"/>
   </g>
   <g id="patch_116">
    <path clip-path="url(#p4b705966dc)" d="M 115.897655 674.7624 
L 119.293183 674.7624 
L 119.293183 674.518979 
L 115.897655 674.518979 
z
" style="fill:#607c8e;"/>
   </g>
   <g id="patch_117">
    <path clip-path="url(#p4b705966dc)" d="M 119.670464 674.7624 
L 123.065993 674.7624 
L 123.065993 674.665031 
L 119.670464 674.665031 
z
" style="fill:#607c8e;"/>
   </g>
   <g id="patch_118">
    <path clip-path="url(#p4b705966dc)" d="M 123.443274 674.7624 
L 126.838802 674.7624 
L 126.838802 674.665031 
L 123.443274 674.665031 
z
" style="fill:#607c8e;"/>
   </g>
   <g id="patch_119">
    <path clip-path="url(#p4b705966dc)" d="M 127.216083 674.7624 
L 130.611611 674.7624 
L 130.611611 674.567663 
L 127.216083 674.567663 
z
" style="fill:#607c8e;"/>
   </g>
   <g id="patch_120">
    <path clip-path="url(#p4b705966dc)" d="M 130.988892 674.7624 
L 134.38442 674.7624 
L 134.38442 674.567663 
L 130.988892 674.567663 
z
" style="fill:#607c8e;"/>
   </g>
   <g id="patch_121">
    <path clip-path="url(#p4b705966dc)" d="M 134.761701 674.7624 
L 138.157229 674.7624 
L 138.157229 674.470294 
L 134.761701 674.470294 
z
" style="fill:#607c8e;"/>
   </g>
   <g id="patch_122">
    <path clip-path="url(#p4b705966dc)" d="M 138.53451 674.7624 
L 141.930038 674.7624 
L 141.930038 674.470294 
L 138.53451 674.470294 
z
" style="fill:#607c8e;"/>
   </g>
   <g id="patch_123">
    <path clip-path="url(#p4b705966dc)" d="M 142.307319 674.7624 
L 145.702848 674.7624 
L 145.702848 674.129505 
L 142.307319 674.129505 
z
" style="fill:#607c8e;"/>
   </g>
   <g id="patch_124">
    <path clip-path="url(#p4b705966dc)" d="M 146.080129 674.7624 
L 149.475657 674.7624 
L 149.475657 674.324242 
L 146.080129 674.324242 
z
" style="fill:#607c8e;"/>
   </g>
   <g id="patch_125">
    <path clip-path="url(#p4b705966dc)" d="M 149.852938 674.7624 
L 153.248466 674.7624 
L 153.248466 674.178189 
L 149.852938 674.178189 
z
" style="fill:#607c8e;"/>
   </g>
   <g id="patch_126">
    <path clip-path="url(#p4b705966dc)" d="M 153.625747 674.7624 
L 157.021275 674.7624 
L 157.021275 673.837399 
L 153.625747 673.837399 
z
" style="fill:#607c8e;"/>
   </g>
   <g id="patch_127">
    <path clip-path="url(#p4b705966dc)" d="M 157.398556 674.7624 
L 160.794084 674.7624 
L 160.794084 674.226873 
L 157.398556 674.226873 
z
" style="fill:#607c8e;"/>
   </g>
   <g id="patch_128">
    <path clip-path="url(#p4b705966dc)" d="M 161.171365 674.7624 
L 164.566894 674.7624 
L 164.566894 674.226873 
L 161.171365 674.226873 
z
" style="fill:#607c8e;"/>
   </g>
   <g id="patch_129">
    <path clip-path="url(#p4b705966dc)" d="M 164.944174 674.7624 
L 168.339703 674.7624 
L 168.339703 673.642662 
L 164.944174 673.642662 
z
" style="fill:#607c8e;"/>
   </g>
   <g id="patch_130">
    <path clip-path="url(#p4b705966dc)" d="M 168.716984 674.7624 
L 172.112512 674.7624 
L 172.112512 674.08082 
L 168.716984 674.08082 
z
" style="fill:#607c8e;"/>
   </g>
   <g id="patch_131">
    <path clip-path="url(#p4b705966dc)" d="M 172.489793 674.7624 
L 175.885321 674.7624 
L 175.885321 673.642662 
L 172.489793 673.642662 
z
" style="fill:#607c8e;"/>
   </g>
   <g id="patch_132">
    <path clip-path="url(#p4b705966dc)" d="M 176.262602 674.7624 
L 179.65813 674.7624 
L 179.65813 673.301872 
L 176.262602 673.301872 
z
" style="fill:#607c8e;"/>
   </g>
   <g id="patch_133">
    <path clip-path="url(#p4b705966dc)" d="M 180.035411 674.7624 
L 183.430939 674.7624 
L 183.430939 673.447925 
L 180.035411 673.447925 
z
" style="fill:#607c8e;"/>
   </g>
   <g id="patch_134">
    <path clip-path="url(#p4b705966dc)" d="M 183.80822 674.7624 
L 187.203749 674.7624 
L 187.203749 672.571608 
L 183.80822 672.571608 
z
" style="fill:#607c8e;"/>
   </g>
   <g id="patch_135">
    <path clip-path="url(#p4b705966dc)" d="M 187.581029 674.7624 
L 190.976558 674.7624 
L 190.976558 673.301872 
L 187.581029 673.301872 
z
" style="fill:#607c8e;"/>
   </g>
   <g id="patch_136">
    <path clip-path="url(#p4b705966dc)" d="M 191.353839 674.7624 
L 194.749367 674.7624 
L 194.749367 672.084766 
L 191.353839 672.084766 
z
" style="fill:#607c8e;"/>
   </g>
   <g id="patch_137">
    <path clip-path="url(#p4b705966dc)" d="M 195.126648 674.7624 
L 198.522176 674.7624 
L 198.522176 672.766345 
L 195.126648 672.766345 
z
" style="fill:#607c8e;"/>
   </g>
   <g id="patch_138">
    <path clip-path="url(#p4b705966dc)" d="M 198.899457 674.7624 
L 202.294985 674.7624 
L 202.294985 673.058451 
L 198.899457 673.058451 
z
" style="fill:#607c8e;"/>
   </g>
   <g id="patch_139">
    <path clip-path="url(#p4b705966dc)" d="M 202.672266 674.7624 
L 206.067794 674.7624 
L 206.067794 672.912398 
L 202.672266 672.912398 
z
" style="fill:#607c8e;"/>
   </g>
   <g id="patch_140">
    <path clip-path="url(#p4b705966dc)" d="M 206.445075 674.7624 
L 209.840604 674.7624 
L 209.840604 672.81503 
L 206.445075 672.81503 
z
" style="fill:#607c8e;"/>
   </g>
   <g id="patch_141">
    <path clip-path="url(#p4b705966dc)" d="M 210.217885 674.7624 
L 213.613413 674.7624 
L 213.613413 671.79266 
L 210.217885 671.79266 
z
" style="fill:#607c8e;"/>
   </g>
   <g id="patch_142">
    <path clip-path="url(#p4b705966dc)" d="M 213.990694 674.7624 
L 217.386222 674.7624 
L 217.386222 672.230818 
L 213.990694 672.230818 
z
" style="fill:#607c8e;"/>
   </g>
   <g id="patch_143">
    <path clip-path="url(#p4b705966dc)" d="M 217.763503 674.7624 
L 221.159031 674.7624 
L 221.159031 671.987397 
L 217.763503 671.987397 
z
" style="fill:#607c8e;"/>
   </g>
   <g id="patch_144">
    <path clip-path="url(#p4b705966dc)" d="M 221.536312 674.7624 
L 224.93184 674.7624 
L 224.93184 671.159765 
L 221.536312 671.159765 
z
" style="fill:#607c8e;"/>
   </g>
   <g id="patch_145">
    <path clip-path="url(#p4b705966dc)" d="M 225.309121 674.7624 
L 228.704649 674.7624 
L 228.704649 671.646607 
L 225.309121 671.646607 
z
" style="fill:#607c8e;"/>
   </g>
   <g id="patch_146">
    <path clip-path="url(#p4b705966dc)" d="M 229.08193 674.7624 
L 232.477459 674.7624 
L 232.477459 671.403186 
L 229.08193 671.403186 
z
" style="fill:#607c8e;"/>
   </g>
   <g id="patch_147">
    <path clip-path="url(#p4b705966dc)" d="M 232.85474 674.7624 
L 236.250268 674.7624 
L 236.250268 671.646607 
L 232.85474 671.646607 
z
" style="fill:#607c8e;"/>
   </g>
   <g id="patch_148">
    <path clip-path="url(#p4b705966dc)" d="M 236.627549 674.7624 
L 240.023077 674.7624 
L 240.023077 670.672922 
L 236.627549 670.672922 
z
" style="fill:#607c8e;"/>
   </g>
   <g id="patch_149">
    <path clip-path="url(#p4b705966dc)" d="M 240.400358 674.7624 
L 243.795886 674.7624 
L 243.795886 670.867659 
L 240.400358 670.867659 
z
" style="fill:#607c8e;"/>
   </g>
   <g id="patch_150">
    <path clip-path="url(#p4b705966dc)" d="M 244.173167 674.7624 
L 247.568695 674.7624 
L 247.568695 670.965028 
L 244.173167 670.965028 
z
" style="fill:#607c8e;"/>
   </g>
   <g id="patch_151">
    <path clip-path="url(#p4b705966dc)" d="M 247.945976 674.7624 
L 251.341505 674.7624 
L 251.341505 671.159765 
L 247.945976 671.159765 
z
" style="fill:#607c8e;"/>
   </g>
   <g id="patch_152">
    <path clip-path="url(#p4b705966dc)" d="M 251.718785 674.7624 
L 255.114314 674.7624 
L 255.114314 671.695292 
L 251.718785 671.695292 
z
" style="fill:#607c8e;"/>
   </g>
   <g id="patch_153">
    <path clip-path="url(#p4b705966dc)" d="M 255.491595 674.7624 
L 258.887123 674.7624 
L 258.887123 670.770291 
L 255.491595 670.770291 
z
" style="fill:#607c8e;"/>
   </g>
   <g id="patch_154">
    <path clip-path="url(#p4b705966dc)" d="M 259.264404 674.7624 
L 262.659932 674.7624 
L 262.659932 669.747921 
L 259.264404 669.747921 
z
" style="fill:#607c8e;"/>
   </g>
   <g id="patch_155">
    <path clip-path="url(#p4b705966dc)" d="M 263.037213 674.7624 
L 266.432741 674.7624 
L 266.432741 667.995288 
L 263.037213 667.995288 
z
" style="fill:#607c8e;"/>
   </g>
   <g id="patch_156">
    <path clip-path="url(#p4b705966dc)" d="M 266.810022 674.7624 
L 270.20555 674.7624 
L 270.20555 663.857125 
L 266.810022 663.857125 
z
" style="fill:#607c8e;"/>
   </g>
   <g id="patch_157">
    <path clip-path="url(#p4b705966dc)" d="M 270.582831 674.7624 
L 273.97836 674.7624 
L 273.97836 660.546596 
L 270.582831 660.546596 
z
" style="fill:#607c8e;"/>
   </g>
   <g id="patch_158">
    <path clip-path="url(#p4b705966dc)" d="M 274.35564 674.7624 
L 277.751169 674.7624 
L 277.751169 649.884743 
L 274.35564 649.884743 
z
" style="fill:#607c8e;"/>
   </g>
   <g id="patch_159">
    <path clip-path="url(#p4b705966dc)" d="M 278.12845 674.7624 
L 281.523978 674.7624 
L 281.523978 628.999194 
L 278.12845 628.999194 
z
" style="fill:#607c8e;"/>
   </g>
   <g id="patch_160">
    <path clip-path="url(#p4b705966dc)" d="M 281.901259 674.7624 
L 285.296787 674.7624 
L 285.296787 529.683302 
L 281.901259 529.683302 
z
" style="fill:#607c8e;"/>
   </g>
   <g id="patch_161">
    <path clip-path="url(#p4b705966dc)" d="M 285.674068 674.7624 
L 289.069596 674.7624 
L 289.069596 518.778027 
L 285.674068 518.778027 
z
" style="fill:#607c8e;"/>
   </g>
   <g id="patch_162">
    <path clip-path="url(#p4b705966dc)" d="M 289.446877 674.7624 
L 292.842405 674.7624 
L 292.842405 422.0424 
L 289.446877 422.0424 
z
" style="fill:#607c8e;"/>
   </g>
   <g id="patch_163">
    <path clip-path="url(#p4b705966dc)" d="M 293.219686 674.7624 
L 296.615215 674.7624 
L 296.615215 424.768719 
L 293.219686 424.768719 
z
" style="fill:#607c8e;"/>
   </g>
   <g id="patch_164">
    <path clip-path="url(#p4b705966dc)" d="M 296.992495 674.7624 
L 300.388024 674.7624 
L 300.388024 554.853065 
L 296.992495 554.853065 
z
" style="fill:#607c8e;"/>
   </g>
   <g id="patch_165">
    <path clip-path="url(#p4b705966dc)" d="M 300.765305 674.7624 
L 304.160833 674.7624 
L 304.160833 624.0334 
L 300.765305 624.0334 
z
" style="fill:#607c8e;"/>
   </g>
   <g id="patch_166">
    <path clip-path="url(#p4b705966dc)" d="M 304.538114 674.7624 
L 307.933642 674.7624 
L 307.933642 640.48868 
L 304.538114 640.48868 
z
" style="fill:#607c8e;"/>
   </g>
   <g id="patch_167">
    <path clip-path="url(#p4b705966dc)" d="M 308.310923 674.7624 
L 311.706451 674.7624 
L 311.706451 639.904469 
L 308.310923 639.904469 
z
" style="fill:#607c8e;"/>
   </g>
   <g id="patch_168">
    <path clip-path="url(#p4b705966dc)" d="M 312.083732 674.7624 
L 315.47926 674.7624 
L 315.47926 650.858428 
L 312.083732 650.858428 
z
" style="fill:#607c8e;"/>
   </g>
   <g id="patch_169">
    <path clip-path="url(#p4b705966dc)" d="M 315.856541 674.7624 
L 319.25207 674.7624 
L 319.25207 653.146588 
L 315.856541 653.146588 
z
" style="fill:#607c8e;"/>
   </g>
   <g id="patch_170">
    <path clip-path="url(#p4b705966dc)" d="M 319.629351 674.7624 
L 323.024879 674.7624 
L 323.024879 662.54265 
L 319.629351 662.54265 
z
" style="fill:#607c8e;"/>
   </g>
   <g id="patch_171">
    <path clip-path="url(#p4b705966dc)" d="M 323.40216 674.7624 
L 326.797688 674.7624 
L 326.797688 667.021602 
L 323.40216 667.021602 
z
" style="fill:#607c8e;"/>
   </g>
   <g id="patch_172">
    <path clip-path="url(#p4b705966dc)" d="M 327.174969 674.7624 
L 330.570497 674.7624 
L 330.570497 670.867659 
L 327.174969 670.867659 
z
" style="fill:#607c8e;"/>
   </g>
   <g id="patch_173">
    <path clip-path="url(#p4b705966dc)" d="M 330.947778 674.7624 
L 334.343306 674.7624 
L 334.343306 671.79266 
L 330.947778 671.79266 
z
" style="fill:#607c8e;"/>
   </g>
   <g id="patch_174">
    <path clip-path="url(#p4b705966dc)" d="M 334.720587 674.7624 
L 338.116115 674.7624 
L 338.116115 673.058451 
L 334.720587 673.058451 
z
" style="fill:#607c8e;"/>
   </g>
   <g id="patch_175">
    <path clip-path="url(#p4b705966dc)" d="M 338.493396 674.7624 
L 341.888925 674.7624 
L 341.888925 673.009767 
L 338.493396 673.009767 
z
" style="fill:#607c8e;"/>
   </g>
   <g id="patch_176">
    <path clip-path="url(#p4b705966dc)" d="M 342.266206 674.7624 
L 345.661734 674.7624 
L 345.661734 673.642662 
L 342.266206 673.642662 
z
" style="fill:#607c8e;"/>
   </g>
   <g id="patch_177">
    <path clip-path="url(#p4b705966dc)" d="M 346.039015 674.7624 
L 349.434543 674.7624 
L 349.434543 673.545293 
L 346.039015 673.545293 
z
" style="fill:#607c8e;"/>
   </g>
   <g id="patch_178">
    <path clip-path="url(#p4b705966dc)" d="M 349.811824 674.7624 
L 353.207352 674.7624 
L 353.207352 673.740031 
L 349.811824 673.740031 
z
" style="fill:#607c8e;"/>
   </g>
   <g id="patch_179">
    <path clip-path="url(#p4b705966dc)" d="M 353.584633 674.7624 
L 356.980161 674.7624 
L 356.980161 674.08082 
L 353.584633 674.08082 
z
" style="fill:#607c8e;"/>
   </g>
   <g id="patch_180">
    <path clip-path="url(#p4b705966dc)" d="M 357.357442 674.7624 
L 360.752971 674.7624 
L 360.752971 673.788715 
L 357.357442 673.788715 
z
" style="fill:#607c8e;"/>
   </g>
   <g id="patch_181">
    <path clip-path="url(#p4b705966dc)" d="M 361.130251 674.7624 
L 364.52578 674.7624 
L 364.52578 674.032136 
L 361.130251 674.032136 
z
" style="fill:#607c8e;"/>
   </g>
   <g id="patch_182">
    <path clip-path="url(#p4b705966dc)" d="M 364.903061 674.7624 
L 368.298589 674.7624 
L 368.298589 674.42161 
L 364.903061 674.42161 
z
" style="fill:#607c8e;"/>
   </g>
   <g id="patch_183">
    <path clip-path="url(#p4b705966dc)" d="M 368.67587 674.7624 
L 372.071398 674.7624 
L 372.071398 674.178189 
L 368.67587 674.178189 
z
" style="fill:#607c8e;"/>
   </g>
   <g id="patch_184">
    <path clip-path="url(#p4b705966dc)" d="M 372.448679 674.7624 
L 375.844207 674.7624 
L 375.844207 674.08082 
L 372.448679 674.08082 
z
" style="fill:#607c8e;"/>
   </g>
   <g id="patch_185">
    <path clip-path="url(#p4b705966dc)" d="M 376.221488 674.7624 
L 379.617016 674.7624 
L 379.617016 674.226873 
L 376.221488 674.226873 
z
" style="fill:#607c8e;"/>
   </g>
   <g id="patch_186">
    <path clip-path="url(#p4b705966dc)" d="M 379.994297 674.7624 
L 383.389826 674.7624 
L 383.389826 674.470294 
L 379.994297 674.470294 
z
" style="fill:#607c8e;"/>
   </g>
   <g id="patch_187">
    <path clip-path="url(#p4b705966dc)" d="M 383.767106 674.7624 
L 387.162635 674.7624 
L 387.162635 674.42161 
L 383.767106 674.42161 
z
" style="fill:#607c8e;"/>
   </g>
   <g id="patch_188">
    <path clip-path="url(#p4b705966dc)" d="M 387.539916 674.7624 
L 390.935444 674.7624 
L 390.935444 674.226873 
L 387.539916 674.226873 
z
" style="fill:#607c8e;"/>
   </g>
   <g id="patch_189">
    <path clip-path="url(#p4b705966dc)" d="M 391.312725 674.7624 
L 394.708253 674.7624 
L 394.708253 674.665031 
L 391.312725 674.665031 
z
" style="fill:#607c8e;"/>
   </g>
   <g id="patch_190">
    <path clip-path="url(#p4b705966dc)" d="M 395.085534 674.7624 
L 398.481062 674.7624 
L 398.481062 674.42161 
L 395.085534 674.42161 
z
" style="fill:#607c8e;"/>
   </g>
   <g id="patch_191">
    <path clip-path="url(#p4b705966dc)" d="M 398.858343 674.7624 
L 402.253871 674.7624 
L 402.253871 674.226873 
L 398.858343 674.226873 
z
" style="fill:#607c8e;"/>
   </g>
   <g id="patch_192">
    <path clip-path="url(#p4b705966dc)" d="M 402.631152 674.7624 
L 406.026681 674.7624 
L 406.026681 674.616347 
L 402.631152 674.616347 
z
" style="fill:#607c8e;"/>
   </g>
   <g id="patch_193">
    <path clip-path="url(#p4b705966dc)" d="M 406.403962 674.7624 
L 409.79949 674.7624 
L 409.79949 674.518979 
L 406.403962 674.518979 
z
" style="fill:#607c8e;"/>
   </g>
   <g id="patch_194">
    <path clip-path="url(#p4b705966dc)" d="M 410.176771 674.7624 
L 413.572299 674.7624 
L 413.572299 674.616347 
L 410.176771 674.616347 
z
" style="fill:#607c8e;"/>
   </g>
   <g id="patch_195">
    <path clip-path="url(#p4b705966dc)" d="M 413.94958 674.7624 
L 417.345108 674.7624 
L 417.345108 674.567663 
L 413.94958 674.567663 
z
" style="fill:#607c8e;"/>
   </g>
   <g id="patch_196">
    <path clip-path="url(#p4b705966dc)" d="M 417.722389 674.7624 
L 421.117917 674.7624 
L 421.117917 674.665031 
L 417.722389 674.665031 
z
" style="fill:#607c8e;"/>
   </g>
   <g id="patch_197">
    <path clip-path="url(#p4b705966dc)" d="M 421.495198 674.7624 
L 424.890726 674.7624 
L 424.890726 674.665031 
L 421.495198 674.665031 
z
" style="fill:#607c8e;"/>
   </g>
   <g id="patch_198">
    <path clip-path="url(#p4b705966dc)" d="M 425.268007 674.7624 
L 428.663536 674.7624 
L 428.663536 674.665031 
L 425.268007 674.665031 
z
" style="fill:#607c8e;"/>
   </g>
   <g id="patch_199">
    <path clip-path="url(#p4b705966dc)" d="M 429.040817 674.7624 
L 432.436345 674.7624 
L 432.436345 674.713716 
L 429.040817 674.713716 
z
" style="fill:#607c8e;"/>
   </g>
   <g id="patch_200">
    <path clip-path="url(#p4b705966dc)" d="M 432.813626 674.7624 
L 436.209154 674.7624 
L 436.209154 674.616347 
L 432.813626 674.616347 
z
" style="fill:#607c8e;"/>
   </g>
   <g id="patch_201">
    <path clip-path="url(#p4b705966dc)" d="M 436.586435 674.7624 
L 439.981963 674.7624 
L 439.981963 674.665031 
L 436.586435 674.665031 
z
" style="fill:#607c8e;"/>
   </g>
   <g id="patch_202">
    <path clip-path="url(#p4b705966dc)" d="M 440.359244 674.7624 
L 443.754772 674.7624 
L 443.754772 674.665031 
L 440.359244 674.665031 
z
" style="fill:#607c8e;"/>
   </g>
   <g id="patch_203">
    <path clip-path="url(#p4b705966dc)" d="M 444.132053 674.7624 
L 447.527581 674.7624 
L 447.527581 674.7624 
L 444.132053 674.7624 
z
" style="fill:#607c8e;"/>
   </g>
   <g id="patch_204">
    <path clip-path="url(#p4b705966dc)" d="M 447.904862 674.7624 
L 451.300391 674.7624 
L 451.300391 674.713716 
L 447.904862 674.713716 
z
" style="fill:#607c8e;"/>
   </g>
   <g id="patch_205">
    <path clip-path="url(#p4b705966dc)" d="M 451.677672 674.7624 
L 455.0732 674.7624 
L 455.0732 674.7624 
L 451.677672 674.7624 
z
" style="fill:#607c8e;"/>
   </g>
   <g id="patch_206">
    <path clip-path="url(#p4b705966dc)" d="M 455.450481 674.7624 
L 458.846009 674.7624 
L 458.846009 674.713716 
L 455.450481 674.713716 
z
" style="fill:#607c8e;"/>
   </g>
   <g id="patch_207">
    <path clip-path="url(#p4b705966dc)" d="M 459.22329 674.7624 
L 462.618818 674.7624 
L 462.618818 674.713716 
L 459.22329 674.713716 
z
" style="fill:#607c8e;"/>
   </g>
   <g id="matplotlib.axis_3">
    <g id="xtick_6">
     <g id="line2d_23">
      <path clip-path="url(#p4b705966dc)" d="M 128.54082 674.7624 
L 128.54082 409.4064 
" style="fill:none;stroke:#b0b0b0;stroke-dasharray:2.96,1.28;stroke-dashoffset:0;stroke-opacity:0.5;stroke-width:0.8;"/>
     </g>
     <g id="line2d_24">
      <g>
       <use style="stroke:#000000;stroke-width:0.8;" x="128.54082" xlink:href="#m0f92438dd3" y="674.7624"/>
      </g>
     </g>
     <g id="text_15">
      <!-- −200 -->
      <g transform="translate(114.807226 689.360838)scale(0.1 -0.1)">
       <use xlink:href="#DejaVuSans-8722"/>
       <use x="83.789062" xlink:href="#DejaVuSans-50"/>
       <use x="147.412109" xlink:href="#DejaVuSans-48"/>
       <use x="211.035156" xlink:href="#DejaVuSans-48"/>
      </g>
     </g>
    </g>
    <g id="xtick_7">
     <g id="line2d_25">
      <path clip-path="url(#p4b705966dc)" d="M 207.32155 674.7624 
L 207.32155 409.4064 
" style="fill:none;stroke:#b0b0b0;stroke-dasharray:2.96,1.28;stroke-dashoffset:0;stroke-opacity:0.5;stroke-width:0.8;"/>
     </g>
     <g id="line2d_26">
      <g>
       <use style="stroke:#000000;stroke-width:0.8;" x="207.32155" xlink:href="#m0f92438dd3" y="674.7624"/>
      </g>
     </g>
     <g id="text_16">
      <!-- −100 -->
      <g transform="translate(193.587957 689.360838)scale(0.1 -0.1)">
       <use xlink:href="#DejaVuSans-8722"/>
       <use x="83.789062" xlink:href="#DejaVuSans-49"/>
       <use x="147.412109" xlink:href="#DejaVuSans-48"/>
       <use x="211.035156" xlink:href="#DejaVuSans-48"/>
      </g>
     </g>
    </g>
    <g id="xtick_8">
     <g id="line2d_27">
      <path clip-path="url(#p4b705966dc)" d="M 286.102281 674.7624 
L 286.102281 409.4064 
" style="fill:none;stroke:#b0b0b0;stroke-dasharray:2.96,1.28;stroke-dashoffset:0;stroke-opacity:0.5;stroke-width:0.8;"/>
     </g>
     <g id="line2d_28">
      <g>
       <use style="stroke:#000000;stroke-width:0.8;" x="286.102281" xlink:href="#m0f92438dd3" y="674.7624"/>
      </g>
     </g>
     <g id="text_17">
      <!-- 0 -->
      <g transform="translate(282.921031 689.360838)scale(0.1 -0.1)">
       <use xlink:href="#DejaVuSans-48"/>
      </g>
     </g>
    </g>
    <g id="xtick_9">
     <g id="line2d_29">
      <path clip-path="url(#p4b705966dc)" d="M 364.883011 674.7624 
L 364.883011 409.4064 
" style="fill:none;stroke:#b0b0b0;stroke-dasharray:2.96,1.28;stroke-dashoffset:0;stroke-opacity:0.5;stroke-width:0.8;"/>
     </g>
     <g id="line2d_30">
      <g>
       <use style="stroke:#000000;stroke-width:0.8;" x="364.883011" xlink:href="#m0f92438dd3" y="674.7624"/>
      </g>
     </g>
     <g id="text_18">
      <!-- 100 -->
      <g transform="translate(355.339261 689.360838)scale(0.1 -0.1)">
       <use xlink:href="#DejaVuSans-49"/>
       <use x="63.623047" xlink:href="#DejaVuSans-48"/>
       <use x="127.246094" xlink:href="#DejaVuSans-48"/>
      </g>
     </g>
    </g>
    <g id="xtick_10">
     <g id="line2d_31">
      <path clip-path="url(#p4b705966dc)" d="M 443.663741 674.7624 
L 443.663741 409.4064 
" style="fill:none;stroke:#b0b0b0;stroke-dasharray:2.96,1.28;stroke-dashoffset:0;stroke-opacity:0.5;stroke-width:0.8;"/>
     </g>
     <g id="line2d_32">
      <g>
       <use style="stroke:#000000;stroke-width:0.8;" x="443.663741" xlink:href="#m0f92438dd3" y="674.7624"/>
      </g>
     </g>
     <g id="text_19">
      <!-- 200 -->
      <g transform="translate(434.119991 689.360838)scale(0.1 -0.1)">
       <use xlink:href="#DejaVuSans-50"/>
       <use x="63.623047" xlink:href="#DejaVuSans-48"/>
       <use x="127.246094" xlink:href="#DejaVuSans-48"/>
      </g>
     </g>
    </g>
    <g id="text_20">
     <!-- decreasing  time -->
     <g transform="translate(223.893563 704.55865)scale(0.12 -0.12)">
      <use xlink:href="#DejaVuSans-100"/>
      <use x="63.476562" xlink:href="#DejaVuSans-101"/>
      <use x="125" xlink:href="#DejaVuSans-99"/>
      <use x="179.980469" xlink:href="#DejaVuSans-114"/>
      <use x="218.84375" xlink:href="#DejaVuSans-101"/>
      <use x="280.367188" xlink:href="#DejaVuSans-97"/>
      <use x="341.646484" xlink:href="#DejaVuSans-115"/>
      <use x="393.746094" xlink:href="#DejaVuSans-105"/>
      <use x="421.529297" xlink:href="#DejaVuSans-110"/>
      <use x="484.908203" xlink:href="#DejaVuSans-103"/>
      <use x="548.384766" xlink:href="#DejaVuSans-32"/>
      <use x="580.171875" xlink:href="#DejaVuSans-32"/>
      <use x="611.958984" xlink:href="#DejaVuSans-116"/>
      <use x="651.167969" xlink:href="#DejaVuSans-105"/>
      <use x="678.951172" xlink:href="#DejaVuSans-109"/>
      <use x="776.363281" xlink:href="#DejaVuSans-101"/>
     </g>
    </g>
   </g>
   <g id="matplotlib.axis_4">
    <g id="ytick_7">
     <g id="line2d_33">
      <path clip-path="url(#p4b705966dc)" d="M 66.87 674.7624 
L 481.464 674.7624 
" style="fill:none;stroke:#b0b0b0;stroke-dasharray:2.96,1.28;stroke-dashoffset:0;stroke-opacity:0.5;stroke-width:0.8;"/>
     </g>
     <g id="line2d_34">
      <g>
       <use style="stroke:#000000;stroke-width:0.8;" x="66.87" xlink:href="#md04d2ea904" y="674.7624"/>
      </g>
     </g>
     <g id="text_21">
      <!-- 0 -->
      <g transform="translate(53.5075 678.561619)scale(0.1 -0.1)">
       <use xlink:href="#DejaVuSans-48"/>
      </g>
     </g>
    </g>
    <g id="ytick_8">
     <g id="line2d_35">
      <path clip-path="url(#p4b705966dc)" d="M 66.87 626.078139 
L 481.464 626.078139 
" style="fill:none;stroke:#b0b0b0;stroke-dasharray:2.96,1.28;stroke-dashoffset:0;stroke-opacity:0.5;stroke-width:0.8;"/>
     </g>
     <g id="line2d_36">
      <g>
       <use style="stroke:#000000;stroke-width:0.8;" x="66.87" xlink:href="#md04d2ea904" y="626.078139"/>
      </g>
     </g>
     <g id="text_22">
      <!-- 1000 -->
      <g transform="translate(34.42 629.877358)scale(0.1 -0.1)">
       <use xlink:href="#DejaVuSans-49"/>
       <use x="63.623047" xlink:href="#DejaVuSans-48"/>
       <use x="127.246094" xlink:href="#DejaVuSans-48"/>
       <use x="190.869141" xlink:href="#DejaVuSans-48"/>
      </g>
     </g>
    </g>
    <g id="ytick_9">
     <g id="line2d_37">
      <path clip-path="url(#p4b705966dc)" d="M 66.87 577.393878 
L 481.464 577.393878 
" style="fill:none;stroke:#b0b0b0;stroke-dasharray:2.96,1.28;stroke-dashoffset:0;stroke-opacity:0.5;stroke-width:0.8;"/>
     </g>
     <g id="line2d_38">
      <g>
       <use style="stroke:#000000;stroke-width:0.8;" x="66.87" xlink:href="#md04d2ea904" y="577.393878"/>
      </g>
     </g>
     <g id="text_23">
      <!-- 2000 -->
      <g transform="translate(34.42 581.193096)scale(0.1 -0.1)">
       <use xlink:href="#DejaVuSans-50"/>
       <use x="63.623047" xlink:href="#DejaVuSans-48"/>
       <use x="127.246094" xlink:href="#DejaVuSans-48"/>
       <use x="190.869141" xlink:href="#DejaVuSans-48"/>
      </g>
     </g>
    </g>
    <g id="ytick_10">
     <g id="line2d_39">
      <path clip-path="url(#p4b705966dc)" d="M 66.87 528.709616 
L 481.464 528.709616 
" style="fill:none;stroke:#b0b0b0;stroke-dasharray:2.96,1.28;stroke-dashoffset:0;stroke-opacity:0.5;stroke-width:0.8;"/>
     </g>
     <g id="line2d_40">
      <g>
       <use style="stroke:#000000;stroke-width:0.8;" x="66.87" xlink:href="#md04d2ea904" y="528.709616"/>
      </g>
     </g>
     <g id="text_24">
      <!-- 3000 -->
      <g transform="translate(34.42 532.508835)scale(0.1 -0.1)">
       <use xlink:href="#DejaVuSans-51"/>
       <use x="63.623047" xlink:href="#DejaVuSans-48"/>
       <use x="127.246094" xlink:href="#DejaVuSans-48"/>
       <use x="190.869141" xlink:href="#DejaVuSans-48"/>
      </g>
     </g>
    </g>
    <g id="ytick_11">
     <g id="line2d_41">
      <path clip-path="url(#p4b705966dc)" d="M 66.87 480.025355 
L 481.464 480.025355 
" style="fill:none;stroke:#b0b0b0;stroke-dasharray:2.96,1.28;stroke-dashoffset:0;stroke-opacity:0.5;stroke-width:0.8;"/>
     </g>
     <g id="line2d_42">
      <g>
       <use style="stroke:#000000;stroke-width:0.8;" x="66.87" xlink:href="#md04d2ea904" y="480.025355"/>
      </g>
     </g>
     <g id="text_25">
      <!-- 4000 -->
      <g transform="translate(34.42 483.824574)scale(0.1 -0.1)">
       <use xlink:href="#DejaVuSans-52"/>
       <use x="63.623047" xlink:href="#DejaVuSans-48"/>
       <use x="127.246094" xlink:href="#DejaVuSans-48"/>
       <use x="190.869141" xlink:href="#DejaVuSans-48"/>
      </g>
     </g>
    </g>
    <g id="ytick_12">
     <g id="line2d_43">
      <path clip-path="url(#p4b705966dc)" d="M 66.87 431.341094 
L 481.464 431.341094 
" style="fill:none;stroke:#b0b0b0;stroke-dasharray:2.96,1.28;stroke-dashoffset:0;stroke-opacity:0.5;stroke-width:0.8;"/>
     </g>
     <g id="line2d_44">
      <g>
       <use style="stroke:#000000;stroke-width:0.8;" x="66.87" xlink:href="#md04d2ea904" y="431.341094"/>
      </g>
     </g>
     <g id="text_26">
      <!-- 5000 -->
      <g transform="translate(34.42 435.140313)scale(0.1 -0.1)">
       <defs>
        <path d="M 10.796875 72.90625 
L 49.515625 72.90625 
L 49.515625 64.59375 
L 19.828125 64.59375 
L 19.828125 46.734375 
Q 21.96875 47.46875 24.109375 47.828125 
Q 26.265625 48.1875 28.421875 48.1875 
Q 40.625 48.1875 47.75 41.5 
Q 54.890625 34.8125 54.890625 23.390625 
Q 54.890625 11.625 47.5625 5.09375 
Q 40.234375 -1.421875 26.90625 -1.421875 
Q 22.3125 -1.421875 17.546875 -0.640625 
Q 12.796875 0.140625 7.71875 1.703125 
L 7.71875 11.625 
Q 12.109375 9.234375 16.796875 8.0625 
Q 21.484375 6.890625 26.703125 6.890625 
Q 35.15625 6.890625 40.078125 11.328125 
Q 45.015625 15.765625 45.015625 23.390625 
Q 45.015625 31 40.078125 35.4375 
Q 35.15625 39.890625 26.703125 39.890625 
Q 22.75 39.890625 18.8125 39.015625 
Q 14.890625 38.140625 10.796875 36.28125 
z
" id="DejaVuSans-53"/>
       </defs>
       <use xlink:href="#DejaVuSans-53"/>
       <use x="63.623047" xlink:href="#DejaVuSans-48"/>
       <use x="127.246094" xlink:href="#DejaVuSans-48"/>
       <use x="190.869141" xlink:href="#DejaVuSans-48"/>
      </g>
     </g>
    </g>
    <g id="text_27">
     <!-- counts -->
     <g transform="translate(27.924375 562.137525)rotate(-90)scale(0.12 -0.12)">
      <use xlink:href="#DejaVuSans-99"/>
      <use x="54.980469" xlink:href="#DejaVuSans-111"/>
      <use x="116.162109" xlink:href="#DejaVuSans-117"/>
      <use x="179.541016" xlink:href="#DejaVuSans-110"/>
      <use x="242.919922" xlink:href="#DejaVuSans-116"/>
      <use x="282.128906" xlink:href="#DejaVuSans-115"/>
     </g>
    </g>
   </g>
   <g id="patch_208">
    <path d="M 66.87 674.7624 
L 66.87 409.4064 
" style="fill:none;stroke:#000000;stroke-linecap:square;stroke-linejoin:miter;stroke-width:0.8;"/>
   </g>
   <g id="patch_209">
    <path d="M 481.464 674.7624 
L 481.464 409.4064 
" style="fill:none;stroke:#000000;stroke-linecap:square;stroke-linejoin:miter;stroke-width:0.8;"/>
   </g>
   <g id="patch_210">
    <path d="M 66.87 674.7624 
L 481.464 674.7624 
" style="fill:none;stroke:#000000;stroke-linecap:square;stroke-linejoin:miter;stroke-width:0.8;"/>
   </g>
   <g id="patch_211">
    <path d="M 66.87 409.4064 
L 481.464 409.4064 
" style="fill:none;stroke:#000000;stroke-linecap:square;stroke-linejoin:miter;stroke-width:0.8;"/>
   </g>
   <g id="text_28">
    <!-- The finish time decreasing  time for class B, Uti 0.3 -->
    <g transform="translate(120.627938 399.4064)scale(0.12 -0.12)">
     <defs>
      <path d="M 19.671875 34.8125 
L 19.671875 8.109375 
L 35.5 8.109375 
Q 43.453125 8.109375 47.28125 11.40625 
Q 51.125 14.703125 51.125 21.484375 
Q 51.125 28.328125 47.28125 31.5625 
Q 43.453125 34.8125 35.5 34.8125 
z
M 19.671875 64.796875 
L 19.671875 42.828125 
L 34.28125 42.828125 
Q 41.5 42.828125 45.03125 45.53125 
Q 48.578125 48.25 48.578125 53.8125 
Q 48.578125 59.328125 45.03125 62.0625 
Q 41.5 64.796875 34.28125 64.796875 
z
M 9.8125 72.90625 
L 35.015625 72.90625 
Q 46.296875 72.90625 52.390625 68.21875 
Q 58.5 63.53125 58.5 54.890625 
Q 58.5 48.1875 55.375 44.234375 
Q 52.25 40.28125 46.1875 39.3125 
Q 53.46875 37.75 57.5 32.78125 
Q 61.53125 27.828125 61.53125 20.40625 
Q 61.53125 10.640625 54.890625 5.3125 
Q 48.25 0 35.984375 0 
L 9.8125 0 
z
" id="DejaVuSans-66"/>
     </defs>
     <use xlink:href="#DejaVuSans-84"/>
     <use x="61.083984" xlink:href="#DejaVuSans-104"/>
     <use x="124.462891" xlink:href="#DejaVuSans-101"/>
     <use x="185.986328" xlink:href="#DejaVuSans-32"/>
     <use x="217.773438" xlink:href="#DejaVuSans-102"/>
     <use x="252.978516" xlink:href="#DejaVuSans-105"/>
     <use x="280.761719" xlink:href="#DejaVuSans-110"/>
     <use x="344.140625" xlink:href="#DejaVuSans-105"/>
     <use x="371.923828" xlink:href="#DejaVuSans-115"/>
     <use x="424.023438" xlink:href="#DejaVuSans-104"/>
     <use x="487.402344" xlink:href="#DejaVuSans-32"/>
     <use x="519.189453" xlink:href="#DejaVuSans-116"/>
     <use x="558.398438" xlink:href="#DejaVuSans-105"/>
     <use x="586.181641" xlink:href="#DejaVuSans-109"/>
     <use x="683.59375" xlink:href="#DejaVuSans-101"/>
     <use x="745.117188" xlink:href="#DejaVuSans-32"/>
     <use x="776.904297" xlink:href="#DejaVuSans-100"/>
     <use x="840.380859" xlink:href="#DejaVuSans-101"/>
     <use x="901.904297" xlink:href="#DejaVuSans-99"/>
     <use x="956.884766" xlink:href="#DejaVuSans-114"/>
     <use x="995.748047" xlink:href="#DejaVuSans-101"/>
     <use x="1057.271484" xlink:href="#DejaVuSans-97"/>
     <use x="1118.550781" xlink:href="#DejaVuSans-115"/>
     <use x="1170.650391" xlink:href="#DejaVuSans-105"/>
     <use x="1198.433594" xlink:href="#DejaVuSans-110"/>
     <use x="1261.8125" xlink:href="#DejaVuSans-103"/>
     <use x="1325.289062" xlink:href="#DejaVuSans-32"/>
     <use x="1357.076172" xlink:href="#DejaVuSans-32"/>
     <use x="1388.863281" xlink:href="#DejaVuSans-116"/>
     <use x="1428.072266" xlink:href="#DejaVuSans-105"/>
     <use x="1455.855469" xlink:href="#DejaVuSans-109"/>
     <use x="1553.267578" xlink:href="#DejaVuSans-101"/>
     <use x="1614.791016" xlink:href="#DejaVuSans-32"/>
     <use x="1646.578125" xlink:href="#DejaVuSans-102"/>
     <use x="1681.783203" xlink:href="#DejaVuSans-111"/>
     <use x="1742.964844" xlink:href="#DejaVuSans-114"/>
     <use x="1784.078125" xlink:href="#DejaVuSans-32"/>
     <use x="1815.865234" xlink:href="#DejaVuSans-99"/>
     <use x="1870.845703" xlink:href="#DejaVuSans-108"/>
     <use x="1898.628906" xlink:href="#DejaVuSans-97"/>
     <use x="1959.908203" xlink:href="#DejaVuSans-115"/>
     <use x="2012.007812" xlink:href="#DejaVuSans-115"/>
     <use x="2064.107422" xlink:href="#DejaVuSans-32"/>
     <use x="2095.894531" xlink:href="#DejaVuSans-66"/>
     <use x="2164.498047" xlink:href="#DejaVuSans-44"/>
     <use x="2196.285156" xlink:href="#DejaVuSans-32"/>
     <use x="2228.072266" xlink:href="#DejaVuSans-85"/>
     <use x="2301.265625" xlink:href="#DejaVuSans-116"/>
     <use x="2340.474609" xlink:href="#DejaVuSans-105"/>
     <use x="2368.257812" xlink:href="#DejaVuSans-32"/>
     <use x="2400.044922" xlink:href="#DejaVuSans-48"/>
     <use x="2463.667969" xlink:href="#DejaVuSans-46"/>
     <use x="2495.455078" xlink:href="#DejaVuSans-51"/>
    </g>
   </g>
  </g>
 </g>
 <defs>
  <clipPath id="p699961039f">
   <rect height="265.356" width="414.594" x="66.87" y="90.9792"/>
  </clipPath>
  <clipPath id="p4b705966dc">
   <rect height="265.356" width="414.594" x="66.87" y="409.4064"/>
  </clipPath>
 </defs>
</svg>
