<?xml version="1.0" encoding="utf-8" standalone="no"?>
<!DOCTYPE svg PUBLIC "-//W3C//DTD SVG 1.1//EN"
  "http://www.w3.org/Graphics/SVG/1.1/DTD/svg11.dtd">
<!-- Created with matplotlib (https://matplotlib.org/) -->
<svg height="758.16pt" version="1.1" viewBox="0 0 533.52 758.16" width="533.52pt" xmlns="http://www.w3.org/2000/svg" xmlns:xlink="http://www.w3.org/1999/xlink">
 <metadata>
  <rdf:RDF xmlns:cc="http://creativecommons.org/ns#" xmlns:dc="http://purl.org/dc/elements/1.1/" xmlns:rdf="http://www.w3.org/1999/02/22-rdf-syntax-ns#">
   <cc:Work>
    <dc:type rdf:resource="http://purl.org/dc/dcmitype/StillImage"/>
    <dc:date>2021-05-11T09:35:56.608792</dc:date>
    <dc:format>image/svg+xml</dc:format>
    <dc:creator>
     <cc:Agent>
      <dc:title>Matplotlib v3.3.2, https://matplotlib.org/</dc:title>
     </cc:Agent>
    </dc:creator>
   </cc:Work>
  </rdf:RDF>
 </metadata>
 <defs>
  <style type="text/css">*{stroke-linecap:butt;stroke-linejoin:round;}</style>
 </defs>
 <g id="figure_1">
  <g id="patch_1">
   <path d="M 0 758.16 
L 533.52 758.16 
L 533.52 0 
L 0 0 
z
" style="fill:#ffffff;"/>
  </g>
  <g id="axes_1">
   <g id="patch_2">
    <path d="M 66.69 356.3352 
L 480.168 356.3352 
L 480.168 90.9792 
L 66.69 90.9792 
z
" style="fill:#ffffff;"/>
   </g>
   <g id="patch_3">
    <path clip-path="url(#pe722adc630)" d="M 85.484455 356.3352 
L 88.870843 356.3352 
L 88.870843 356.313922 
L 85.484455 356.313922 
z
" style="fill:#607c8e;"/>
   </g>
   <g id="patch_4">
    <path clip-path="url(#pe722adc630)" d="M 89.247108 356.3352 
L 92.633496 356.3352 
L 92.633496 356.303283 
L 89.247108 356.303283 
z
" style="fill:#607c8e;"/>
   </g>
   <g id="patch_5">
    <path clip-path="url(#pe722adc630)" d="M 93.009762 356.3352 
L 96.39615 356.3352 
L 96.39615 356.271366 
L 93.009762 356.271366 
z
" style="fill:#607c8e;"/>
   </g>
   <g id="patch_6">
    <path clip-path="url(#pe722adc630)" d="M 96.772415 356.3352 
L 100.158803 356.3352 
L 100.158803 356.271366 
L 96.772415 356.271366 
z
" style="fill:#607c8e;"/>
   </g>
   <g id="patch_7">
    <path clip-path="url(#pe722adc630)" d="M 100.535069 356.3352 
L 103.921457 356.3352 
L 103.921457 356.282005 
L 100.535069 356.282005 
z
" style="fill:#607c8e;"/>
   </g>
   <g id="patch_8">
    <path clip-path="url(#pe722adc630)" d="M 104.297722 356.3352 
L 107.684111 356.3352 
L 107.684111 356.3352 
L 104.297722 356.3352 
z
" style="fill:#607c8e;"/>
   </g>
   <g id="patch_9">
    <path clip-path="url(#pe722adc630)" d="M 108.060376 356.3352 
L 111.446764 356.3352 
L 111.446764 356.260727 
L 108.060376 356.260727 
z
" style="fill:#607c8e;"/>
   </g>
   <g id="patch_10">
    <path clip-path="url(#pe722adc630)" d="M 111.823029 356.3352 
L 115.209418 356.3352 
L 115.209418 356.196892 
L 111.823029 356.196892 
z
" style="fill:#607c8e;"/>
   </g>
   <g id="patch_11">
    <path clip-path="url(#pe722adc630)" d="M 115.585683 356.3352 
L 118.972071 356.3352 
L 118.972071 356.207531 
L 115.585683 356.207531 
z
" style="fill:#607c8e;"/>
   </g>
   <g id="patch_12">
    <path clip-path="url(#pe722adc630)" d="M 119.348337 356.3352 
L 122.734725 356.3352 
L 122.734725 356.228809 
L 119.348337 356.228809 
z
" style="fill:#607c8e;"/>
   </g>
   <g id="patch_13">
    <path clip-path="url(#pe722adc630)" d="M 123.11099 356.3352 
L 126.497378 356.3352 
L 126.497378 356.228809 
L 123.11099 356.228809 
z
" style="fill:#607c8e;"/>
   </g>
   <g id="patch_14">
    <path clip-path="url(#pe722adc630)" d="M 126.873644 356.3352 
L 130.260032 356.3352 
L 130.260032 356.260727 
L 126.873644 356.260727 
z
" style="fill:#607c8e;"/>
   </g>
   <g id="patch_15">
    <path clip-path="url(#pe722adc630)" d="M 130.636297 356.3352 
L 134.022686 356.3352 
L 134.022686 356.21817 
L 130.636297 356.21817 
z
" style="fill:#607c8e;"/>
   </g>
   <g id="patch_16">
    <path clip-path="url(#pe722adc630)" d="M 134.398951 356.3352 
L 137.785339 356.3352 
L 137.785339 356.207531 
L 134.398951 356.207531 
z
" style="fill:#607c8e;"/>
   </g>
   <g id="patch_17">
    <path clip-path="url(#pe722adc630)" d="M 138.161604 356.3352 
L 141.547993 356.3352 
L 141.547993 356.21817 
L 138.161604 356.21817 
z
" style="fill:#607c8e;"/>
   </g>
   <g id="patch_18">
    <path clip-path="url(#pe722adc630)" d="M 141.924258 356.3352 
L 145.310646 356.3352 
L 145.310646 356.239449 
L 141.924258 356.239449 
z
" style="fill:#607c8e;"/>
   </g>
   <g id="patch_19">
    <path clip-path="url(#pe722adc630)" d="M 145.686912 356.3352 
L 149.0733 356.3352 
L 149.0733 356.101141 
L 145.686912 356.101141 
z
" style="fill:#607c8e;"/>
   </g>
   <g id="patch_20">
    <path clip-path="url(#pe722adc630)" d="M 149.449565 356.3352 
L 152.835953 356.3352 
L 152.835953 356.186253 
L 149.449565 356.186253 
z
" style="fill:#607c8e;"/>
   </g>
   <g id="patch_21">
    <path clip-path="url(#pe722adc630)" d="M 153.212219 356.3352 
L 156.598607 356.3352 
L 156.598607 356.133058 
L 153.212219 356.133058 
z
" style="fill:#607c8e;"/>
   </g>
   <g id="patch_22">
    <path clip-path="url(#pe722adc630)" d="M 156.974872 356.3352 
L 160.36126 356.3352 
L 160.36126 356.133058 
L 156.974872 356.133058 
z
" style="fill:#607c8e;"/>
   </g>
   <g id="patch_23">
    <path clip-path="url(#pe722adc630)" d="M 160.737526 356.3352 
L 164.123914 356.3352 
L 164.123914 356.196892 
L 160.737526 356.196892 
z
" style="fill:#607c8e;"/>
   </g>
   <g id="patch_24">
    <path clip-path="url(#pe722adc630)" d="M 164.500179 356.3352 
L 167.886568 356.3352 
L 167.886568 356.228809 
L 164.500179 356.228809 
z
" style="fill:#607c8e;"/>
   </g>
   <g id="patch_25">
    <path clip-path="url(#pe722adc630)" d="M 168.262833 356.3352 
L 171.649221 356.3352 
L 171.649221 356.207531 
L 168.262833 356.207531 
z
" style="fill:#607c8e;"/>
   </g>
   <g id="patch_26">
    <path clip-path="url(#pe722adc630)" d="M 172.025486 356.3352 
L 175.411875 356.3352 
L 175.411875 356.154336 
L 172.025486 356.154336 
z
" style="fill:#607c8e;"/>
   </g>
   <g id="patch_27">
    <path clip-path="url(#pe722adc630)" d="M 175.78814 356.3352 
L 179.174528 356.3352 
L 179.174528 356.164975 
L 175.78814 356.164975 
z
" style="fill:#607c8e;"/>
   </g>
   <g id="patch_28">
    <path clip-path="url(#pe722adc630)" d="M 179.550794 356.3352 
L 182.937182 356.3352 
L 182.937182 356.186253 
L 179.550794 356.186253 
z
" style="fill:#607c8e;"/>
   </g>
   <g id="patch_29">
    <path clip-path="url(#pe722adc630)" d="M 183.313447 356.3352 
L 186.699835 356.3352 
L 186.699835 356.154336 
L 183.313447 356.154336 
z
" style="fill:#607c8e;"/>
   </g>
   <g id="patch_30">
    <path clip-path="url(#pe722adc630)" d="M 187.076101 356.3352 
L 190.462489 356.3352 
L 190.462489 356.143697 
L 187.076101 356.143697 
z
" style="fill:#607c8e;"/>
   </g>
   <g id="patch_31">
    <path clip-path="url(#pe722adc630)" d="M 190.838754 356.3352 
L 194.225143 356.3352 
L 194.225143 356.122419 
L 190.838754 356.122419 
z
" style="fill:#607c8e;"/>
   </g>
   <g id="patch_32">
    <path clip-path="url(#pe722adc630)" d="M 194.601408 356.3352 
L 197.987796 356.3352 
L 197.987796 356.11178 
L 194.601408 356.11178 
z
" style="fill:#607c8e;"/>
   </g>
   <g id="patch_33">
    <path clip-path="url(#pe722adc630)" d="M 198.364061 356.3352 
L 201.75045 356.3352 
L 201.75045 356.005389 
L 198.364061 356.005389 
z
" style="fill:#607c8e;"/>
   </g>
   <g id="patch_34">
    <path clip-path="url(#pe722adc630)" d="M 202.126715 356.3352 
L 205.513103 356.3352 
L 205.513103 356.058585 
L 202.126715 356.058585 
z
" style="fill:#607c8e;"/>
   </g>
   <g id="patch_35">
    <path clip-path="url(#pe722adc630)" d="M 205.889369 356.3352 
L 209.275757 356.3352 
L 209.275757 355.909638 
L 205.889369 355.909638 
z
" style="fill:#607c8e;"/>
   </g>
   <g id="patch_36">
    <path clip-path="url(#pe722adc630)" d="M 209.652022 356.3352 
L 213.03841 356.3352 
L 213.03841 355.88836 
L 209.652022 355.88836 
z
" style="fill:#607c8e;"/>
   </g>
   <g id="patch_37">
    <path clip-path="url(#pe722adc630)" d="M 213.414676 356.3352 
L 216.801064 356.3352 
L 216.801064 355.781969 
L 213.414676 355.781969 
z
" style="fill:#607c8e;"/>
   </g>
   <g id="patch_38">
    <path clip-path="url(#pe722adc630)" d="M 217.177329 356.3352 
L 220.563717 356.3352 
L 220.563717 355.707496 
L 217.177329 355.707496 
z
" style="fill:#607c8e;"/>
   </g>
   <g id="patch_39">
    <path clip-path="url(#pe722adc630)" d="M 220.939983 356.3352 
L 224.326371 356.3352 
L 224.326371 355.335129 
L 220.939983 355.335129 
z
" style="fill:#607c8e;"/>
   </g>
   <g id="patch_40">
    <path clip-path="url(#pe722adc630)" d="M 224.702636 356.3352 
L 228.089025 356.3352 
L 228.089025 355.015958 
L 224.702636 355.015958 
z
" style="fill:#607c8e;"/>
   </g>
   <g id="patch_41">
    <path clip-path="url(#pe722adc630)" d="M 228.46529 356.3352 
L 231.851678 356.3352 
L 231.851678 354.856372 
L 228.46529 354.856372 
z
" style="fill:#607c8e;"/>
   </g>
   <g id="patch_42">
    <path clip-path="url(#pe722adc630)" d="M 232.227943 356.3352 
L 235.614332 356.3352 
L 235.614332 354.537201 
L 232.227943 354.537201 
z
" style="fill:#607c8e;"/>
   </g>
   <g id="patch_43">
    <path clip-path="url(#pe722adc630)" d="M 235.990597 356.3352 
L 239.376985 356.3352 
L 239.376985 353.941414 
L 235.990597 353.941414 
z
" style="fill:#607c8e;"/>
   </g>
   <g id="patch_44">
    <path clip-path="url(#pe722adc630)" d="M 239.753251 356.3352 
L 243.139639 356.3352 
L 243.139639 353.877579 
L 239.753251 353.877579 
z
" style="fill:#607c8e;"/>
   </g>
   <g id="patch_45">
    <path clip-path="url(#pe722adc630)" d="M 243.515904 356.3352 
L 246.902292 356.3352 
L 246.902292 352.941343 
L 243.515904 352.941343 
z
" style="fill:#607c8e;"/>
   </g>
   <g id="patch_46">
    <path clip-path="url(#pe722adc630)" d="M 247.278558 356.3352 
L 250.664946 356.3352 
L 250.664946 353.069012 
L 247.278558 353.069012 
z
" style="fill:#607c8e;"/>
   </g>
   <g id="patch_47">
    <path clip-path="url(#pe722adc630)" d="M 251.041211 356.3352 
L 254.4276 356.3352 
L 254.4276 352.111497 
L 251.041211 352.111497 
z
" style="fill:#607c8e;"/>
   </g>
   <g id="patch_48">
    <path clip-path="url(#pe722adc630)" d="M 254.803865 356.3352 
L 258.190253 356.3352 
L 258.190253 350.856089 
L 254.803865 350.856089 
z
" style="fill:#607c8e;"/>
   </g>
   <g id="patch_49">
    <path clip-path="url(#pe722adc630)" d="M 258.566518 356.3352 
L 261.952907 356.3352 
L 261.952907 349.866657 
L 258.566518 349.866657 
z
" style="fill:#607c8e;"/>
   </g>
   <g id="patch_50">
    <path clip-path="url(#pe722adc630)" d="M 262.329172 356.3352 
L 265.71556 356.3352 
L 265.71556 349.090007 
L 262.329172 349.090007 
z
" style="fill:#607c8e;"/>
   </g>
   <g id="patch_51">
    <path clip-path="url(#pe722adc630)" d="M 266.091826 356.3352 
L 269.478214 356.3352 
L 269.478214 348.536776 
L 266.091826 348.536776 
z
" style="fill:#607c8e;"/>
   </g>
   <g id="patch_52">
    <path clip-path="url(#pe722adc630)" d="M 269.854479 356.3352 
L 273.240867 356.3352 
L 273.240867 345.887653 
L 269.854479 345.887653 
z
" style="fill:#607c8e;"/>
   </g>
   <g id="patch_53">
    <path clip-path="url(#pe722adc630)" d="M 273.617133 356.3352 
L 277.003521 356.3352 
L 277.003521 344.983333 
L 273.617133 344.983333 
z
" style="fill:#607c8e;"/>
   </g>
   <g id="patch_54">
    <path clip-path="url(#pe722adc630)" d="M 277.379786 356.3352 
L 280.766174 356.3352 
L 280.766174 342.823606 
L 277.379786 342.823606 
z
" style="fill:#607c8e;"/>
   </g>
   <g id="patch_55">
    <path clip-path="url(#pe722adc630)" d="M 281.14244 356.3352 
L 284.528828 356.3352 
L 284.528828 337.567915 
L 281.14244 337.567915 
z
" style="fill:#607c8e;"/>
   </g>
   <g id="patch_56">
    <path clip-path="url(#pe722adc630)" d="M 284.905093 356.3352 
L 288.291482 356.3352 
L 288.291482 333.886804 
L 284.905093 333.886804 
z
" style="fill:#607c8e;"/>
   </g>
   <g id="patch_57">
    <path clip-path="url(#pe722adc630)" d="M 288.667747 356.3352 
L 292.054135 356.3352 
L 292.054135 328.428971 
L 288.667747 328.428971 
z
" style="fill:#607c8e;"/>
   </g>
   <g id="patch_58">
    <path clip-path="url(#pe722adc630)" d="M 292.4304 356.3352 
L 295.816789 356.3352 
L 295.816789 323.226476 
L 292.4304 323.226476 
z
" style="fill:#607c8e;"/>
   </g>
   <g id="patch_59">
    <path clip-path="url(#pe722adc630)" d="M 296.193054 356.3352 
L 299.579442 356.3352 
L 299.579442 313.151295 
L 296.193054 313.151295 
z
" style="fill:#607c8e;"/>
   </g>
   <g id="patch_60">
    <path clip-path="url(#pe722adc630)" d="M 299.955708 356.3352 
L 303.342096 356.3352 
L 303.342096 294.266981 
L 299.955708 294.266981 
z
" style="fill:#607c8e;"/>
   </g>
   <g id="patch_61">
    <path clip-path="url(#pe722adc630)" d="M 303.718361 356.3352 
L 307.104749 356.3352 
L 307.104749 246.508284 
L 303.718361 246.508284 
z
" style="fill:#607c8e;"/>
   </g>
   <g id="patch_62">
    <path clip-path="url(#pe722adc630)" d="M 307.481015 356.3352 
L 310.867403 356.3352 
L 310.867403 154.001742 
L 307.481015 154.001742 
z
" style="fill:#607c8e;"/>
   </g>
   <g id="patch_63">
    <path clip-path="url(#pe722adc630)" d="M 311.243668 356.3352 
L 314.630057 356.3352 
L 314.630057 103.6152 
L 311.243668 103.6152 
z
" style="fill:#607c8e;"/>
   </g>
   <g id="patch_64">
    <path clip-path="url(#pe722adc630)" d="M 315.006322 356.3352 
L 318.39271 356.3352 
L 318.39271 294.320176 
L 315.006322 294.320176 
z
" style="fill:#607c8e;"/>
   </g>
   <g id="patch_65">
    <path clip-path="url(#pe722adc630)" d="M 318.768975 356.3352 
L 322.155364 356.3352 
L 322.155364 350.068799 
L 318.768975 350.068799 
z
" style="fill:#607c8e;"/>
   </g>
   <g id="patch_66">
    <path clip-path="url(#pe722adc630)" d="M 322.531629 356.3352 
L 325.918017 356.3352 
L 325.918017 352.654089 
L 322.531629 352.654089 
z
" style="fill:#607c8e;"/>
   </g>
   <g id="patch_67">
    <path clip-path="url(#pe722adc630)" d="M 326.294283 356.3352 
L 329.680671 356.3352 
L 329.680671 354.154195 
L 326.294283 354.154195 
z
" style="fill:#607c8e;"/>
   </g>
   <g id="patch_68">
    <path clip-path="url(#pe722adc630)" d="M 330.056936 356.3352 
L 333.443324 356.3352 
L 333.443324 354.87765 
L 330.056936 354.87765 
z
" style="fill:#607c8e;"/>
   </g>
   <g id="patch_69">
    <path clip-path="url(#pe722adc630)" d="M 333.81959 356.3352 
L 337.205978 356.3352 
L 337.205978 355.494715 
L 333.81959 355.494715 
z
" style="fill:#607c8e;"/>
   </g>
   <g id="patch_70">
    <path clip-path="url(#pe722adc630)" d="M 337.582243 356.3352 
L 340.968631 356.3352 
L 340.968631 355.750052 
L 337.582243 355.750052 
z
" style="fill:#607c8e;"/>
   </g>
   <g id="patch_71">
    <path clip-path="url(#pe722adc630)" d="M 341.344897 356.3352 
L 344.731285 356.3352 
L 344.731285 355.88836 
L 341.344897 355.88836 
z
" style="fill:#607c8e;"/>
   </g>
   <g id="patch_72">
    <path clip-path="url(#pe722adc630)" d="M 345.10755 356.3352 
L 348.493939 356.3352 
L 348.493939 355.867082 
L 345.10755 355.867082 
z
" style="fill:#607c8e;"/>
   </g>
   <g id="patch_73">
    <path clip-path="url(#pe722adc630)" d="M 348.870204 356.3352 
L 352.256592 356.3352 
L 352.256592 356.101141 
L 348.870204 356.101141 
z
" style="fill:#607c8e;"/>
   </g>
   <g id="patch_74">
    <path clip-path="url(#pe722adc630)" d="M 352.632857 356.3352 
L 356.019246 356.3352 
L 356.019246 356.090502 
L 352.632857 356.090502 
z
" style="fill:#607c8e;"/>
   </g>
   <g id="patch_75">
    <path clip-path="url(#pe722adc630)" d="M 356.395511 356.3352 
L 359.781899 356.3352 
L 359.781899 356.143697 
L 356.395511 356.143697 
z
" style="fill:#607c8e;"/>
   </g>
   <g id="patch_76">
    <path clip-path="url(#pe722adc630)" d="M 360.158165 356.3352 
L 363.544553 356.3352 
L 363.544553 356.239449 
L 360.158165 356.239449 
z
" style="fill:#607c8e;"/>
   </g>
   <g id="patch_77">
    <path clip-path="url(#pe722adc630)" d="M 363.920818 356.3352 
L 367.307206 356.3352 
L 367.307206 356.196892 
L 363.920818 356.196892 
z
" style="fill:#607c8e;"/>
   </g>
   <g id="patch_78">
    <path clip-path="url(#pe722adc630)" d="M 367.683472 356.3352 
L 371.06986 356.3352 
L 371.06986 356.260727 
L 367.683472 356.260727 
z
" style="fill:#607c8e;"/>
   </g>
   <g id="patch_79">
    <path clip-path="url(#pe722adc630)" d="M 371.446125 356.3352 
L 374.832514 356.3352 
L 374.832514 356.207531 
L 371.446125 356.207531 
z
" style="fill:#607c8e;"/>
   </g>
   <g id="patch_80">
    <path clip-path="url(#pe722adc630)" d="M 375.208779 356.3352 
L 378.595167 356.3352 
L 378.595167 356.271366 
L 375.208779 356.271366 
z
" style="fill:#607c8e;"/>
   </g>
   <g id="patch_81">
    <path clip-path="url(#pe722adc630)" d="M 378.971432 356.3352 
L 382.357821 356.3352 
L 382.357821 356.228809 
L 378.971432 356.228809 
z
" style="fill:#607c8e;"/>
   </g>
   <g id="patch_82">
    <path clip-path="url(#pe722adc630)" d="M 382.734086 356.3352 
L 386.120474 356.3352 
L 386.120474 356.271366 
L 382.734086 356.271366 
z
" style="fill:#607c8e;"/>
   </g>
   <g id="patch_83">
    <path clip-path="url(#pe722adc630)" d="M 386.49674 356.3352 
L 389.883128 356.3352 
L 389.883128 356.250088 
L 386.49674 356.250088 
z
" style="fill:#607c8e;"/>
   </g>
   <g id="patch_84">
    <path clip-path="url(#pe722adc630)" d="M 390.259393 356.3352 
L 393.645781 356.3352 
L 393.645781 356.239449 
L 390.259393 356.239449 
z
" style="fill:#607c8e;"/>
   </g>
   <g id="patch_85">
    <path clip-path="url(#pe722adc630)" d="M 394.022047 356.3352 
L 397.408435 356.3352 
L 397.408435 356.260727 
L 394.022047 356.260727 
z
" style="fill:#607c8e;"/>
   </g>
   <g id="patch_86">
    <path clip-path="url(#pe722adc630)" d="M 397.7847 356.3352 
L 401.171088 356.3352 
L 401.171088 356.250088 
L 397.7847 356.250088 
z
" style="fill:#607c8e;"/>
   </g>
   <g id="patch_87">
    <path clip-path="url(#pe722adc630)" d="M 401.547354 356.3352 
L 404.933742 356.3352 
L 404.933742 356.303283 
L 401.547354 356.303283 
z
" style="fill:#607c8e;"/>
   </g>
   <g id="patch_88">
    <path clip-path="url(#pe722adc630)" d="M 405.310007 356.3352 
L 408.696396 356.3352 
L 408.696396 356.303283 
L 405.310007 356.303283 
z
" style="fill:#607c8e;"/>
   </g>
   <g id="patch_89">
    <path clip-path="url(#pe722adc630)" d="M 409.072661 356.3352 
L 412.459049 356.3352 
L 412.459049 356.324561 
L 409.072661 356.324561 
z
" style="fill:#607c8e;"/>
   </g>
   <g id="patch_90">
    <path clip-path="url(#pe722adc630)" d="M 412.835314 356.3352 
L 416.221703 356.3352 
L 416.221703 356.324561 
L 412.835314 356.324561 
z
" style="fill:#607c8e;"/>
   </g>
   <g id="patch_91">
    <path clip-path="url(#pe722adc630)" d="M 416.597968 356.3352 
L 419.984356 356.3352 
L 419.984356 356.324561 
L 416.597968 356.324561 
z
" style="fill:#607c8e;"/>
   </g>
   <g id="patch_92">
    <path clip-path="url(#pe722adc630)" d="M 420.360622 356.3352 
L 423.74701 356.3352 
L 423.74701 356.313922 
L 420.360622 356.313922 
z
" style="fill:#607c8e;"/>
   </g>
   <g id="patch_93">
    <path clip-path="url(#pe722adc630)" d="M 424.123275 356.3352 
L 427.509663 356.3352 
L 427.509663 356.324561 
L 424.123275 356.324561 
z
" style="fill:#607c8e;"/>
   </g>
   <g id="patch_94">
    <path clip-path="url(#pe722adc630)" d="M 427.885929 356.3352 
L 431.272317 356.3352 
L 431.272317 356.3352 
L 427.885929 356.3352 
z
" style="fill:#607c8e;"/>
   </g>
   <g id="patch_95">
    <path clip-path="url(#pe722adc630)" d="M 431.648582 356.3352 
L 435.034971 356.3352 
L 435.034971 356.3352 
L 431.648582 356.3352 
z
" style="fill:#607c8e;"/>
   </g>
   <g id="patch_96">
    <path clip-path="url(#pe722adc630)" d="M 435.411236 356.3352 
L 438.797624 356.3352 
L 438.797624 356.3352 
L 435.411236 356.3352 
z
" style="fill:#607c8e;"/>
   </g>
   <g id="patch_97">
    <path clip-path="url(#pe722adc630)" d="M 439.173889 356.3352 
L 442.560278 356.3352 
L 442.560278 356.3352 
L 439.173889 356.3352 
z
" style="fill:#607c8e;"/>
   </g>
   <g id="patch_98">
    <path clip-path="url(#pe722adc630)" d="M 442.936543 356.3352 
L 446.322931 356.3352 
L 446.322931 356.3352 
L 442.936543 356.3352 
z
" style="fill:#607c8e;"/>
   </g>
   <g id="patch_99">
    <path clip-path="url(#pe722adc630)" d="M 446.699197 356.3352 
L 450.085585 356.3352 
L 450.085585 356.3352 
L 446.699197 356.3352 
z
" style="fill:#607c8e;"/>
   </g>
   <g id="patch_100">
    <path clip-path="url(#pe722adc630)" d="M 450.46185 356.3352 
L 453.848238 356.3352 
L 453.848238 356.3352 
L 450.46185 356.3352 
z
" style="fill:#607c8e;"/>
   </g>
   <g id="patch_101">
    <path clip-path="url(#pe722adc630)" d="M 454.224504 356.3352 
L 457.610892 356.3352 
L 457.610892 356.3352 
L 454.224504 356.3352 
z
" style="fill:#607c8e;"/>
   </g>
   <g id="patch_102">
    <path clip-path="url(#pe722adc630)" d="M 457.987157 356.3352 
L 461.373545 356.3352 
L 461.373545 356.324561 
L 457.987157 356.324561 
z
" style="fill:#607c8e;"/>
   </g>
   <g id="matplotlib.axis_1">
    <g id="xtick_1">
     <g id="line2d_1">
      <path clip-path="url(#pe722adc630)" d="M 121.844493 356.3352 
L 121.844493 90.9792 
" style="fill:none;stroke:#b0b0b0;stroke-dasharray:2.96,1.28;stroke-dashoffset:0;stroke-opacity:0.5;stroke-width:0.8;"/>
     </g>
     <g id="line2d_2">
      <defs>
       <path d="M 0 0 
L 0 3.5 
" id="m3112ec9914" style="stroke:#000000;stroke-width:0.8;"/>
      </defs>
      <g>
       <use style="stroke:#000000;stroke-width:0.8;" x="121.844493" xlink:href="#m3112ec9914" y="356.3352"/>
      </g>
     </g>
     <g id="text_1">
      <!-- −600 -->
      <g transform="translate(108.110899 370.933637)scale(0.1 -0.1)">
       <defs>
        <path d="M 10.59375 35.5 
L 73.1875 35.5 
L 73.1875 27.203125 
L 10.59375 27.203125 
z
" id="DejaVuSans-8722"/>
        <path d="M 33.015625 40.375 
Q 26.375 40.375 22.484375 35.828125 
Q 18.609375 31.296875 18.609375 23.390625 
Q 18.609375 15.53125 22.484375 10.953125 
Q 26.375 6.390625 33.015625 6.390625 
Q 39.65625 6.390625 43.53125 10.953125 
Q 47.40625 15.53125 47.40625 23.390625 
Q 47.40625 31.296875 43.53125 35.828125 
Q 39.65625 40.375 33.015625 40.375 
z
M 52.59375 71.296875 
L 52.59375 62.3125 
Q 48.875 64.0625 45.09375 64.984375 
Q 41.3125 65.921875 37.59375 65.921875 
Q 27.828125 65.921875 22.671875 59.328125 
Q 17.53125 52.734375 16.796875 39.40625 
Q 19.671875 43.65625 24.015625 45.921875 
Q 28.375 48.1875 33.59375 48.1875 
Q 44.578125 48.1875 50.953125 41.515625 
Q 57.328125 34.859375 57.328125 23.390625 
Q 57.328125 12.15625 50.6875 5.359375 
Q 44.046875 -1.421875 33.015625 -1.421875 
Q 20.359375 -1.421875 13.671875 8.265625 
Q 6.984375 17.96875 6.984375 36.375 
Q 6.984375 53.65625 15.1875 63.9375 
Q 23.390625 74.21875 37.203125 74.21875 
Q 40.921875 74.21875 44.703125 73.484375 
Q 48.484375 72.75 52.59375 71.296875 
z
" id="DejaVuSans-54"/>
        <path d="M 31.78125 66.40625 
Q 24.171875 66.40625 20.328125 58.90625 
Q 16.5 51.421875 16.5 36.375 
Q 16.5 21.390625 20.328125 13.890625 
Q 24.171875 6.390625 31.78125 6.390625 
Q 39.453125 6.390625 43.28125 13.890625 
Q 47.125 21.390625 47.125 36.375 
Q 47.125 51.421875 43.28125 58.90625 
Q 39.453125 66.40625 31.78125 66.40625 
z
M 31.78125 74.21875 
Q 44.046875 74.21875 50.515625 64.515625 
Q 56.984375 54.828125 56.984375 36.375 
Q 56.984375 17.96875 50.515625 8.265625 
Q 44.046875 -1.421875 31.78125 -1.421875 
Q 19.53125 -1.421875 13.0625 8.265625 
Q 6.59375 17.96875 6.59375 36.375 
Q 6.59375 54.828125 13.0625 64.515625 
Q 19.53125 74.21875 31.78125 74.21875 
z
" id="DejaVuSans-48"/>
       </defs>
       <use xlink:href="#DejaVuSans-8722"/>
       <use x="83.789062" xlink:href="#DejaVuSans-54"/>
       <use x="147.412109" xlink:href="#DejaVuSans-48"/>
       <use x="211.035156" xlink:href="#DejaVuSans-48"/>
      </g>
     </g>
    </g>
    <g id="xtick_2">
     <g id="line2d_3">
      <path clip-path="url(#pe722adc630)" d="M 186.417233 356.3352 
L 186.417233 90.9792 
" style="fill:none;stroke:#b0b0b0;stroke-dasharray:2.96,1.28;stroke-dashoffset:0;stroke-opacity:0.5;stroke-width:0.8;"/>
     </g>
     <g id="line2d_4">
      <g>
       <use style="stroke:#000000;stroke-width:0.8;" x="186.417233" xlink:href="#m3112ec9914" y="356.3352"/>
      </g>
     </g>
     <g id="text_2">
      <!-- −400 -->
      <g transform="translate(172.683639 370.933637)scale(0.1 -0.1)">
       <defs>
        <path d="M 37.796875 64.3125 
L 12.890625 25.390625 
L 37.796875 25.390625 
z
M 35.203125 72.90625 
L 47.609375 72.90625 
L 47.609375 25.390625 
L 58.015625 25.390625 
L 58.015625 17.1875 
L 47.609375 17.1875 
L 47.609375 0 
L 37.796875 0 
L 37.796875 17.1875 
L 4.890625 17.1875 
L 4.890625 26.703125 
z
" id="DejaVuSans-52"/>
       </defs>
       <use xlink:href="#DejaVuSans-8722"/>
       <use x="83.789062" xlink:href="#DejaVuSans-52"/>
       <use x="147.412109" xlink:href="#DejaVuSans-48"/>
       <use x="211.035156" xlink:href="#DejaVuSans-48"/>
      </g>
     </g>
    </g>
    <g id="xtick_3">
     <g id="line2d_5">
      <path clip-path="url(#pe722adc630)" d="M 250.989973 356.3352 
L 250.989973 90.9792 
" style="fill:none;stroke:#b0b0b0;stroke-dasharray:2.96,1.28;stroke-dashoffset:0;stroke-opacity:0.5;stroke-width:0.8;"/>
     </g>
     <g id="line2d_6">
      <g>
       <use style="stroke:#000000;stroke-width:0.8;" x="250.989973" xlink:href="#m3112ec9914" y="356.3352"/>
      </g>
     </g>
     <g id="text_3">
      <!-- −200 -->
      <g transform="translate(237.256379 370.933637)scale(0.1 -0.1)">
       <defs>
        <path d="M 19.1875 8.296875 
L 53.609375 8.296875 
L 53.609375 0 
L 7.328125 0 
L 7.328125 8.296875 
Q 12.9375 14.109375 22.625 23.890625 
Q 32.328125 33.6875 34.8125 36.53125 
Q 39.546875 41.84375 41.421875 45.53125 
Q 43.3125 49.21875 43.3125 52.78125 
Q 43.3125 58.59375 39.234375 62.25 
Q 35.15625 65.921875 28.609375 65.921875 
Q 23.96875 65.921875 18.8125 64.3125 
Q 13.671875 62.703125 7.8125 59.421875 
L 7.8125 69.390625 
Q 13.765625 71.78125 18.9375 73 
Q 24.125 74.21875 28.421875 74.21875 
Q 39.75 74.21875 46.484375 68.546875 
Q 53.21875 62.890625 53.21875 53.421875 
Q 53.21875 48.921875 51.53125 44.890625 
Q 49.859375 40.875 45.40625 35.40625 
Q 44.1875 33.984375 37.640625 27.21875 
Q 31.109375 20.453125 19.1875 8.296875 
z
" id="DejaVuSans-50"/>
       </defs>
       <use xlink:href="#DejaVuSans-8722"/>
       <use x="83.789062" xlink:href="#DejaVuSans-50"/>
       <use x="147.412109" xlink:href="#DejaVuSans-48"/>
       <use x="211.035156" xlink:href="#DejaVuSans-48"/>
      </g>
     </g>
    </g>
    <g id="xtick_4">
     <g id="line2d_7">
      <path clip-path="url(#pe722adc630)" d="M 315.562713 356.3352 
L 315.562713 90.9792 
" style="fill:none;stroke:#b0b0b0;stroke-dasharray:2.96,1.28;stroke-dashoffset:0;stroke-opacity:0.5;stroke-width:0.8;"/>
     </g>
     <g id="line2d_8">
      <g>
       <use style="stroke:#000000;stroke-width:0.8;" x="315.562713" xlink:href="#m3112ec9914" y="356.3352"/>
      </g>
     </g>
     <g id="text_4">
      <!-- 0 -->
      <g transform="translate(312.381463 370.933637)scale(0.1 -0.1)">
       <use xlink:href="#DejaVuSans-48"/>
      </g>
     </g>
    </g>
    <g id="xtick_5">
     <g id="line2d_9">
      <path clip-path="url(#pe722adc630)" d="M 380.135453 356.3352 
L 380.135453 90.9792 
" style="fill:none;stroke:#b0b0b0;stroke-dasharray:2.96,1.28;stroke-dashoffset:0;stroke-opacity:0.5;stroke-width:0.8;"/>
     </g>
     <g id="line2d_10">
      <g>
       <use style="stroke:#000000;stroke-width:0.8;" x="380.135453" xlink:href="#m3112ec9914" y="356.3352"/>
      </g>
     </g>
     <g id="text_5">
      <!-- 200 -->
      <g transform="translate(370.591703 370.933637)scale(0.1 -0.1)">
       <use xlink:href="#DejaVuSans-50"/>
       <use x="63.623047" xlink:href="#DejaVuSans-48"/>
       <use x="127.246094" xlink:href="#DejaVuSans-48"/>
      </g>
     </g>
    </g>
    <g id="xtick_6">
     <g id="line2d_11">
      <path clip-path="url(#pe722adc630)" d="M 444.708193 356.3352 
L 444.708193 90.9792 
" style="fill:none;stroke:#b0b0b0;stroke-dasharray:2.96,1.28;stroke-dashoffset:0;stroke-opacity:0.5;stroke-width:0.8;"/>
     </g>
     <g id="line2d_12">
      <g>
       <use style="stroke:#000000;stroke-width:0.8;" x="444.708193" xlink:href="#m3112ec9914" y="356.3352"/>
      </g>
     </g>
     <g id="text_6">
      <!-- 400 -->
      <g transform="translate(435.164443 370.933637)scale(0.1 -0.1)">
       <use xlink:href="#DejaVuSans-52"/>
       <use x="63.623047" xlink:href="#DejaVuSans-48"/>
       <use x="127.246094" xlink:href="#DejaVuSans-48"/>
      </g>
     </g>
    </g>
    <g id="text_7">
     <!-- decreasing  time -->
     <g transform="translate(223.155562 386.13145)scale(0.12 -0.12)">
      <defs>
       <path d="M 45.40625 46.390625 
L 45.40625 75.984375 
L 54.390625 75.984375 
L 54.390625 0 
L 45.40625 0 
L 45.40625 8.203125 
Q 42.578125 3.328125 38.25 0.953125 
Q 33.9375 -1.421875 27.875 -1.421875 
Q 17.96875 -1.421875 11.734375 6.484375 
Q 5.515625 14.40625 5.515625 27.296875 
Q 5.515625 40.1875 11.734375 48.09375 
Q 17.96875 56 27.875 56 
Q 33.9375 56 38.25 53.625 
Q 42.578125 51.265625 45.40625 46.390625 
z
M 14.796875 27.296875 
Q 14.796875 17.390625 18.875 11.75 
Q 22.953125 6.109375 30.078125 6.109375 
Q 37.203125 6.109375 41.296875 11.75 
Q 45.40625 17.390625 45.40625 27.296875 
Q 45.40625 37.203125 41.296875 42.84375 
Q 37.203125 48.484375 30.078125 48.484375 
Q 22.953125 48.484375 18.875 42.84375 
Q 14.796875 37.203125 14.796875 27.296875 
z
" id="DejaVuSans-100"/>
       <path d="M 56.203125 29.59375 
L 56.203125 25.203125 
L 14.890625 25.203125 
Q 15.484375 15.921875 20.484375 11.0625 
Q 25.484375 6.203125 34.421875 6.203125 
Q 39.59375 6.203125 44.453125 7.46875 
Q 49.3125 8.734375 54.109375 11.28125 
L 54.109375 2.78125 
Q 49.265625 0.734375 44.1875 -0.34375 
Q 39.109375 -1.421875 33.890625 -1.421875 
Q 20.796875 -1.421875 13.15625 6.1875 
Q 5.515625 13.8125 5.515625 26.8125 
Q 5.515625 40.234375 12.765625 48.109375 
Q 20.015625 56 32.328125 56 
Q 43.359375 56 49.78125 48.890625 
Q 56.203125 41.796875 56.203125 29.59375 
z
M 47.21875 32.234375 
Q 47.125 39.59375 43.09375 43.984375 
Q 39.0625 48.390625 32.421875 48.390625 
Q 24.90625 48.390625 20.390625 44.140625 
Q 15.875 39.890625 15.1875 32.171875 
z
" id="DejaVuSans-101"/>
       <path d="M 48.78125 52.59375 
L 48.78125 44.1875 
Q 44.96875 46.296875 41.140625 47.34375 
Q 37.3125 48.390625 33.40625 48.390625 
Q 24.65625 48.390625 19.8125 42.84375 
Q 14.984375 37.3125 14.984375 27.296875 
Q 14.984375 17.28125 19.8125 11.734375 
Q 24.65625 6.203125 33.40625 6.203125 
Q 37.3125 6.203125 41.140625 7.25 
Q 44.96875 8.296875 48.78125 10.40625 
L 48.78125 2.09375 
Q 45.015625 0.34375 40.984375 -0.53125 
Q 36.96875 -1.421875 32.421875 -1.421875 
Q 20.0625 -1.421875 12.78125 6.34375 
Q 5.515625 14.109375 5.515625 27.296875 
Q 5.515625 40.671875 12.859375 48.328125 
Q 20.21875 56 33.015625 56 
Q 37.15625 56 41.109375 55.140625 
Q 45.0625 54.296875 48.78125 52.59375 
z
" id="DejaVuSans-99"/>
       <path d="M 41.109375 46.296875 
Q 39.59375 47.171875 37.8125 47.578125 
Q 36.03125 48 33.890625 48 
Q 26.265625 48 22.1875 43.046875 
Q 18.109375 38.09375 18.109375 28.8125 
L 18.109375 0 
L 9.078125 0 
L 9.078125 54.6875 
L 18.109375 54.6875 
L 18.109375 46.1875 
Q 20.953125 51.171875 25.484375 53.578125 
Q 30.03125 56 36.53125 56 
Q 37.453125 56 38.578125 55.875 
Q 39.703125 55.765625 41.0625 55.515625 
z
" id="DejaVuSans-114"/>
       <path d="M 34.28125 27.484375 
Q 23.390625 27.484375 19.1875 25 
Q 14.984375 22.515625 14.984375 16.5 
Q 14.984375 11.71875 18.140625 8.90625 
Q 21.296875 6.109375 26.703125 6.109375 
Q 34.1875 6.109375 38.703125 11.40625 
Q 43.21875 16.703125 43.21875 25.484375 
L 43.21875 27.484375 
z
M 52.203125 31.203125 
L 52.203125 0 
L 43.21875 0 
L 43.21875 8.296875 
Q 40.140625 3.328125 35.546875 0.953125 
Q 30.953125 -1.421875 24.3125 -1.421875 
Q 15.921875 -1.421875 10.953125 3.296875 
Q 6 8.015625 6 15.921875 
Q 6 25.140625 12.171875 29.828125 
Q 18.359375 34.515625 30.609375 34.515625 
L 43.21875 34.515625 
L 43.21875 35.40625 
Q 43.21875 41.609375 39.140625 45 
Q 35.0625 48.390625 27.6875 48.390625 
Q 23 48.390625 18.546875 47.265625 
Q 14.109375 46.140625 10.015625 43.890625 
L 10.015625 52.203125 
Q 14.9375 54.109375 19.578125 55.046875 
Q 24.21875 56 28.609375 56 
Q 40.484375 56 46.34375 49.84375 
Q 52.203125 43.703125 52.203125 31.203125 
z
" id="DejaVuSans-97"/>
       <path d="M 44.28125 53.078125 
L 44.28125 44.578125 
Q 40.484375 46.53125 36.375 47.5 
Q 32.28125 48.484375 27.875 48.484375 
Q 21.1875 48.484375 17.84375 46.4375 
Q 14.5 44.390625 14.5 40.28125 
Q 14.5 37.15625 16.890625 35.375 
Q 19.28125 33.59375 26.515625 31.984375 
L 29.59375 31.296875 
Q 39.15625 29.25 43.1875 25.515625 
Q 47.21875 21.78125 47.21875 15.09375 
Q 47.21875 7.46875 41.1875 3.015625 
Q 35.15625 -1.421875 24.609375 -1.421875 
Q 20.21875 -1.421875 15.453125 -0.5625 
Q 10.6875 0.296875 5.421875 2 
L 5.421875 11.28125 
Q 10.40625 8.6875 15.234375 7.390625 
Q 20.0625 6.109375 24.8125 6.109375 
Q 31.15625 6.109375 34.5625 8.28125 
Q 37.984375 10.453125 37.984375 14.40625 
Q 37.984375 18.0625 35.515625 20.015625 
Q 33.0625 21.96875 24.703125 23.78125 
L 21.578125 24.515625 
Q 13.234375 26.265625 9.515625 29.90625 
Q 5.8125 33.546875 5.8125 39.890625 
Q 5.8125 47.609375 11.28125 51.796875 
Q 16.75 56 26.8125 56 
Q 31.78125 56 36.171875 55.265625 
Q 40.578125 54.546875 44.28125 53.078125 
z
" id="DejaVuSans-115"/>
       <path d="M 9.421875 54.6875 
L 18.40625 54.6875 
L 18.40625 0 
L 9.421875 0 
z
M 9.421875 75.984375 
L 18.40625 75.984375 
L 18.40625 64.59375 
L 9.421875 64.59375 
z
" id="DejaVuSans-105"/>
       <path d="M 54.890625 33.015625 
L 54.890625 0 
L 45.90625 0 
L 45.90625 32.71875 
Q 45.90625 40.484375 42.875 44.328125 
Q 39.84375 48.1875 33.796875 48.1875 
Q 26.515625 48.1875 22.3125 43.546875 
Q 18.109375 38.921875 18.109375 30.90625 
L 18.109375 0 
L 9.078125 0 
L 9.078125 54.6875 
L 18.109375 54.6875 
L 18.109375 46.1875 
Q 21.34375 51.125 25.703125 53.5625 
Q 30.078125 56 35.796875 56 
Q 45.21875 56 50.046875 50.171875 
Q 54.890625 44.34375 54.890625 33.015625 
z
" id="DejaVuSans-110"/>
       <path d="M 45.40625 27.984375 
Q 45.40625 37.75 41.375 43.109375 
Q 37.359375 48.484375 30.078125 48.484375 
Q 22.859375 48.484375 18.828125 43.109375 
Q 14.796875 37.75 14.796875 27.984375 
Q 14.796875 18.265625 18.828125 12.890625 
Q 22.859375 7.515625 30.078125 7.515625 
Q 37.359375 7.515625 41.375 12.890625 
Q 45.40625 18.265625 45.40625 27.984375 
z
M 54.390625 6.78125 
Q 54.390625 -7.171875 48.1875 -13.984375 
Q 42 -20.796875 29.203125 -20.796875 
Q 24.46875 -20.796875 20.265625 -20.09375 
Q 16.0625 -19.390625 12.109375 -17.921875 
L 12.109375 -9.1875 
Q 16.0625 -11.328125 19.921875 -12.34375 
Q 23.78125 -13.375 27.78125 -13.375 
Q 36.625 -13.375 41.015625 -8.765625 
Q 45.40625 -4.15625 45.40625 5.171875 
L 45.40625 9.625 
Q 42.625 4.78125 38.28125 2.390625 
Q 33.9375 0 27.875 0 
Q 17.828125 0 11.671875 7.65625 
Q 5.515625 15.328125 5.515625 27.984375 
Q 5.515625 40.671875 11.671875 48.328125 
Q 17.828125 56 27.875 56 
Q 33.9375 56 38.28125 53.609375 
Q 42.625 51.21875 45.40625 46.390625 
L 45.40625 54.6875 
L 54.390625 54.6875 
z
" id="DejaVuSans-103"/>
       <path id="DejaVuSans-32"/>
       <path d="M 18.3125 70.21875 
L 18.3125 54.6875 
L 36.8125 54.6875 
L 36.8125 47.703125 
L 18.3125 47.703125 
L 18.3125 18.015625 
Q 18.3125 11.328125 20.140625 9.421875 
Q 21.96875 7.515625 27.59375 7.515625 
L 36.8125 7.515625 
L 36.8125 0 
L 27.59375 0 
Q 17.1875 0 13.234375 3.875 
Q 9.28125 7.765625 9.28125 18.015625 
L 9.28125 47.703125 
L 2.6875 47.703125 
L 2.6875 54.6875 
L 9.28125 54.6875 
L 9.28125 70.21875 
z
" id="DejaVuSans-116"/>
       <path d="M 52 44.1875 
Q 55.375 50.25 60.0625 53.125 
Q 64.75 56 71.09375 56 
Q 79.640625 56 84.28125 50.015625 
Q 88.921875 44.046875 88.921875 33.015625 
L 88.921875 0 
L 79.890625 0 
L 79.890625 32.71875 
Q 79.890625 40.578125 77.09375 44.375 
Q 74.3125 48.1875 68.609375 48.1875 
Q 61.625 48.1875 57.5625 43.546875 
Q 53.515625 38.921875 53.515625 30.90625 
L 53.515625 0 
L 44.484375 0 
L 44.484375 32.71875 
Q 44.484375 40.625 41.703125 44.40625 
Q 38.921875 48.1875 33.109375 48.1875 
Q 26.21875 48.1875 22.15625 43.53125 
Q 18.109375 38.875 18.109375 30.90625 
L 18.109375 0 
L 9.078125 0 
L 9.078125 54.6875 
L 18.109375 54.6875 
L 18.109375 46.1875 
Q 21.1875 51.21875 25.484375 53.609375 
Q 29.78125 56 35.6875 56 
Q 41.65625 56 45.828125 52.96875 
Q 50 49.953125 52 44.1875 
z
" id="DejaVuSans-109"/>
      </defs>
      <use xlink:href="#DejaVuSans-100"/>
      <use x="63.476562" xlink:href="#DejaVuSans-101"/>
      <use x="125" xlink:href="#DejaVuSans-99"/>
      <use x="179.980469" xlink:href="#DejaVuSans-114"/>
      <use x="218.84375" xlink:href="#DejaVuSans-101"/>
      <use x="280.367188" xlink:href="#DejaVuSans-97"/>
      <use x="341.646484" xlink:href="#DejaVuSans-115"/>
      <use x="393.746094" xlink:href="#DejaVuSans-105"/>
      <use x="421.529297" xlink:href="#DejaVuSans-110"/>
      <use x="484.908203" xlink:href="#DejaVuSans-103"/>
      <use x="548.384766" xlink:href="#DejaVuSans-32"/>
      <use x="580.171875" xlink:href="#DejaVuSans-32"/>
      <use x="611.958984" xlink:href="#DejaVuSans-116"/>
      <use x="651.167969" xlink:href="#DejaVuSans-105"/>
      <use x="678.951172" xlink:href="#DejaVuSans-109"/>
      <use x="776.363281" xlink:href="#DejaVuSans-101"/>
     </g>
    </g>
   </g>
   <g id="matplotlib.axis_2">
    <g id="ytick_1">
     <g id="line2d_13">
      <path clip-path="url(#pe722adc630)" d="M 66.69 356.3352 
L 480.168 356.3352 
" style="fill:none;stroke:#b0b0b0;stroke-dasharray:2.96,1.28;stroke-dashoffset:0;stroke-opacity:0.5;stroke-width:0.8;"/>
     </g>
     <g id="line2d_14">
      <defs>
       <path d="M 0 0 
L -3.5 0 
" id="m92a9c55b74" style="stroke:#000000;stroke-width:0.8;"/>
      </defs>
      <g>
       <use style="stroke:#000000;stroke-width:0.8;" x="66.69" xlink:href="#m92a9c55b74" y="356.3352"/>
      </g>
     </g>
     <g id="text_8">
      <!-- 0 -->
      <g transform="translate(53.3275 360.134419)scale(0.1 -0.1)">
       <use xlink:href="#DejaVuSans-48"/>
      </g>
     </g>
    </g>
    <g id="ytick_2">
     <g id="line2d_15">
      <path clip-path="url(#pe722adc630)" d="M 66.69 303.139949 
L 480.168 303.139949 
" style="fill:none;stroke:#b0b0b0;stroke-dasharray:2.96,1.28;stroke-dashoffset:0;stroke-opacity:0.5;stroke-width:0.8;"/>
     </g>
     <g id="line2d_16">
      <g>
       <use style="stroke:#000000;stroke-width:0.8;" x="66.69" xlink:href="#m92a9c55b74" y="303.139949"/>
      </g>
     </g>
     <g id="text_9">
      <!-- 5000 -->
      <g transform="translate(34.24 306.939167)scale(0.1 -0.1)">
       <defs>
        <path d="M 10.796875 72.90625 
L 49.515625 72.90625 
L 49.515625 64.59375 
L 19.828125 64.59375 
L 19.828125 46.734375 
Q 21.96875 47.46875 24.109375 47.828125 
Q 26.265625 48.1875 28.421875 48.1875 
Q 40.625 48.1875 47.75 41.5 
Q 54.890625 34.8125 54.890625 23.390625 
Q 54.890625 11.625 47.5625 5.09375 
Q 40.234375 -1.421875 26.90625 -1.421875 
Q 22.3125 -1.421875 17.546875 -0.640625 
Q 12.796875 0.140625 7.71875 1.703125 
L 7.71875 11.625 
Q 12.109375 9.234375 16.796875 8.0625 
Q 21.484375 6.890625 26.703125 6.890625 
Q 35.15625 6.890625 40.078125 11.328125 
Q 45.015625 15.765625 45.015625 23.390625 
Q 45.015625 31 40.078125 35.4375 
Q 35.15625 39.890625 26.703125 39.890625 
Q 22.75 39.890625 18.8125 39.015625 
Q 14.890625 38.140625 10.796875 36.28125 
z
" id="DejaVuSans-53"/>
       </defs>
       <use xlink:href="#DejaVuSans-53"/>
       <use x="63.623047" xlink:href="#DejaVuSans-48"/>
       <use x="127.246094" xlink:href="#DejaVuSans-48"/>
       <use x="190.869141" xlink:href="#DejaVuSans-48"/>
      </g>
     </g>
    </g>
    <g id="ytick_3">
     <g id="line2d_17">
      <path clip-path="url(#pe722adc630)" d="M 66.69 249.944697 
L 480.168 249.944697 
" style="fill:none;stroke:#b0b0b0;stroke-dasharray:2.96,1.28;stroke-dashoffset:0;stroke-opacity:0.5;stroke-width:0.8;"/>
     </g>
     <g id="line2d_18">
      <g>
       <use style="stroke:#000000;stroke-width:0.8;" x="66.69" xlink:href="#m92a9c55b74" y="249.944697"/>
      </g>
     </g>
     <g id="text_10">
      <!-- 10000 -->
      <g transform="translate(27.8775 253.743916)scale(0.1 -0.1)">
       <defs>
        <path d="M 12.40625 8.296875 
L 28.515625 8.296875 
L 28.515625 63.921875 
L 10.984375 60.40625 
L 10.984375 69.390625 
L 28.421875 72.90625 
L 38.28125 72.90625 
L 38.28125 8.296875 
L 54.390625 8.296875 
L 54.390625 0 
L 12.40625 0 
z
" id="DejaVuSans-49"/>
       </defs>
       <use xlink:href="#DejaVuSans-49"/>
       <use x="63.623047" xlink:href="#DejaVuSans-48"/>
       <use x="127.246094" xlink:href="#DejaVuSans-48"/>
       <use x="190.869141" xlink:href="#DejaVuSans-48"/>
       <use x="254.492188" xlink:href="#DejaVuSans-48"/>
      </g>
     </g>
    </g>
    <g id="ytick_4">
     <g id="line2d_19">
      <path clip-path="url(#pe722adc630)" d="M 66.69 196.749446 
L 480.168 196.749446 
" style="fill:none;stroke:#b0b0b0;stroke-dasharray:2.96,1.28;stroke-dashoffset:0;stroke-opacity:0.5;stroke-width:0.8;"/>
     </g>
     <g id="line2d_20">
      <g>
       <use style="stroke:#000000;stroke-width:0.8;" x="66.69" xlink:href="#m92a9c55b74" y="196.749446"/>
      </g>
     </g>
     <g id="text_11">
      <!-- 15000 -->
      <g transform="translate(27.8775 200.548665)scale(0.1 -0.1)">
       <use xlink:href="#DejaVuSans-49"/>
       <use x="63.623047" xlink:href="#DejaVuSans-53"/>
       <use x="127.246094" xlink:href="#DejaVuSans-48"/>
       <use x="190.869141" xlink:href="#DejaVuSans-48"/>
       <use x="254.492188" xlink:href="#DejaVuSans-48"/>
      </g>
     </g>
    </g>
    <g id="ytick_5">
     <g id="line2d_21">
      <path clip-path="url(#pe722adc630)" d="M 66.69 143.554195 
L 480.168 143.554195 
" style="fill:none;stroke:#b0b0b0;stroke-dasharray:2.96,1.28;stroke-dashoffset:0;stroke-opacity:0.5;stroke-width:0.8;"/>
     </g>
     <g id="line2d_22">
      <g>
       <use style="stroke:#000000;stroke-width:0.8;" x="66.69" xlink:href="#m92a9c55b74" y="143.554195"/>
      </g>
     </g>
     <g id="text_12">
      <!-- 20000 -->
      <g transform="translate(27.8775 147.353413)scale(0.1 -0.1)">
       <use xlink:href="#DejaVuSans-50"/>
       <use x="63.623047" xlink:href="#DejaVuSans-48"/>
       <use x="127.246094" xlink:href="#DejaVuSans-48"/>
       <use x="190.869141" xlink:href="#DejaVuSans-48"/>
       <use x="254.492188" xlink:href="#DejaVuSans-48"/>
      </g>
     </g>
    </g>
    <g id="text_13">
     <!-- counts -->
     <g transform="translate(21.381875 243.710325)rotate(-90)scale(0.12 -0.12)">
      <defs>
       <path d="M 30.609375 48.390625 
Q 23.390625 48.390625 19.1875 42.75 
Q 14.984375 37.109375 14.984375 27.296875 
Q 14.984375 17.484375 19.15625 11.84375 
Q 23.34375 6.203125 30.609375 6.203125 
Q 37.796875 6.203125 41.984375 11.859375 
Q 46.1875 17.53125 46.1875 27.296875 
Q 46.1875 37.015625 41.984375 42.703125 
Q 37.796875 48.390625 30.609375 48.390625 
z
M 30.609375 56 
Q 42.328125 56 49.015625 48.375 
Q 55.71875 40.765625 55.71875 27.296875 
Q 55.71875 13.875 49.015625 6.21875 
Q 42.328125 -1.421875 30.609375 -1.421875 
Q 18.84375 -1.421875 12.171875 6.21875 
Q 5.515625 13.875 5.515625 27.296875 
Q 5.515625 40.765625 12.171875 48.375 
Q 18.84375 56 30.609375 56 
z
" id="DejaVuSans-111"/>
       <path d="M 8.5 21.578125 
L 8.5 54.6875 
L 17.484375 54.6875 
L 17.484375 21.921875 
Q 17.484375 14.15625 20.5 10.265625 
Q 23.53125 6.390625 29.59375 6.390625 
Q 36.859375 6.390625 41.078125 11.03125 
Q 45.3125 15.671875 45.3125 23.6875 
L 45.3125 54.6875 
L 54.296875 54.6875 
L 54.296875 0 
L 45.3125 0 
L 45.3125 8.40625 
Q 42.046875 3.421875 37.71875 1 
Q 33.40625 -1.421875 27.6875 -1.421875 
Q 18.265625 -1.421875 13.375 4.4375 
Q 8.5 10.296875 8.5 21.578125 
z
M 31.109375 56 
z
" id="DejaVuSans-117"/>
      </defs>
      <use xlink:href="#DejaVuSans-99"/>
      <use x="54.980469" xlink:href="#DejaVuSans-111"/>
      <use x="116.162109" xlink:href="#DejaVuSans-117"/>
      <use x="179.541016" xlink:href="#DejaVuSans-110"/>
      <use x="242.919922" xlink:href="#DejaVuSans-116"/>
      <use x="282.128906" xlink:href="#DejaVuSans-115"/>
     </g>
    </g>
   </g>
   <g id="patch_103">
    <path d="M 66.69 356.3352 
L 66.69 90.9792 
" style="fill:none;stroke:#000000;stroke-linecap:square;stroke-linejoin:miter;stroke-width:0.8;"/>
   </g>
   <g id="patch_104">
    <path d="M 480.168 356.3352 
L 480.168 90.9792 
" style="fill:none;stroke:#000000;stroke-linecap:square;stroke-linejoin:miter;stroke-width:0.8;"/>
   </g>
   <g id="patch_105">
    <path d="M 66.69 356.3352 
L 480.168 356.3352 
" style="fill:none;stroke:#000000;stroke-linecap:square;stroke-linejoin:miter;stroke-width:0.8;"/>
   </g>
   <g id="patch_106">
    <path d="M 66.69 90.9792 
L 480.168 90.9792 
" style="fill:none;stroke:#000000;stroke-linecap:square;stroke-linejoin:miter;stroke-width:0.8;"/>
   </g>
   <g id="text_14">
    <!-- The finish time decreasing  time for class A, Uti 0.5 -->
    <g transform="translate(119.902125 80.9792)scale(0.12 -0.12)">
     <defs>
      <path d="M -0.296875 72.90625 
L 61.375 72.90625 
L 61.375 64.59375 
L 35.5 64.59375 
L 35.5 0 
L 25.59375 0 
L 25.59375 64.59375 
L -0.296875 64.59375 
z
" id="DejaVuSans-84"/>
      <path d="M 54.890625 33.015625 
L 54.890625 0 
L 45.90625 0 
L 45.90625 32.71875 
Q 45.90625 40.484375 42.875 44.328125 
Q 39.84375 48.1875 33.796875 48.1875 
Q 26.515625 48.1875 22.3125 43.546875 
Q 18.109375 38.921875 18.109375 30.90625 
L 18.109375 0 
L 9.078125 0 
L 9.078125 75.984375 
L 18.109375 75.984375 
L 18.109375 46.1875 
Q 21.34375 51.125 25.703125 53.5625 
Q 30.078125 56 35.796875 56 
Q 45.21875 56 50.046875 50.171875 
Q 54.890625 44.34375 54.890625 33.015625 
z
" id="DejaVuSans-104"/>
      <path d="M 37.109375 75.984375 
L 37.109375 68.5 
L 28.515625 68.5 
Q 23.6875 68.5 21.796875 66.546875 
Q 19.921875 64.59375 19.921875 59.515625 
L 19.921875 54.6875 
L 34.71875 54.6875 
L 34.71875 47.703125 
L 19.921875 47.703125 
L 19.921875 0 
L 10.890625 0 
L 10.890625 47.703125 
L 2.296875 47.703125 
L 2.296875 54.6875 
L 10.890625 54.6875 
L 10.890625 58.5 
Q 10.890625 67.625 15.140625 71.796875 
Q 19.390625 75.984375 28.609375 75.984375 
z
" id="DejaVuSans-102"/>
      <path d="M 9.421875 75.984375 
L 18.40625 75.984375 
L 18.40625 0 
L 9.421875 0 
z
" id="DejaVuSans-108"/>
      <path d="M 34.1875 63.1875 
L 20.796875 26.90625 
L 47.609375 26.90625 
z
M 28.609375 72.90625 
L 39.796875 72.90625 
L 67.578125 0 
L 57.328125 0 
L 50.6875 18.703125 
L 17.828125 18.703125 
L 11.1875 0 
L 0.78125 0 
z
" id="DejaVuSans-65"/>
      <path d="M 11.71875 12.40625 
L 22.015625 12.40625 
L 22.015625 4 
L 14.015625 -11.625 
L 7.71875 -11.625 
L 11.71875 4 
z
" id="DejaVuSans-44"/>
      <path d="M 8.6875 72.90625 
L 18.609375 72.90625 
L 18.609375 28.609375 
Q 18.609375 16.890625 22.84375 11.734375 
Q 27.09375 6.59375 36.625 6.59375 
Q 46.09375 6.59375 50.34375 11.734375 
Q 54.59375 16.890625 54.59375 28.609375 
L 54.59375 72.90625 
L 64.5 72.90625 
L 64.5 27.390625 
Q 64.5 13.140625 57.4375 5.859375 
Q 50.390625 -1.421875 36.625 -1.421875 
Q 22.796875 -1.421875 15.734375 5.859375 
Q 8.6875 13.140625 8.6875 27.390625 
z
" id="DejaVuSans-85"/>
      <path d="M 10.6875 12.40625 
L 21 12.40625 
L 21 0 
L 10.6875 0 
z
" id="DejaVuSans-46"/>
     </defs>
     <use xlink:href="#DejaVuSans-84"/>
     <use x="61.083984" xlink:href="#DejaVuSans-104"/>
     <use x="124.462891" xlink:href="#DejaVuSans-101"/>
     <use x="185.986328" xlink:href="#DejaVuSans-32"/>
     <use x="217.773438" xlink:href="#DejaVuSans-102"/>
     <use x="252.978516" xlink:href="#DejaVuSans-105"/>
     <use x="280.761719" xlink:href="#DejaVuSans-110"/>
     <use x="344.140625" xlink:href="#DejaVuSans-105"/>
     <use x="371.923828" xlink:href="#DejaVuSans-115"/>
     <use x="424.023438" xlink:href="#DejaVuSans-104"/>
     <use x="487.402344" xlink:href="#DejaVuSans-32"/>
     <use x="519.189453" xlink:href="#DejaVuSans-116"/>
     <use x="558.398438" xlink:href="#DejaVuSans-105"/>
     <use x="586.181641" xlink:href="#DejaVuSans-109"/>
     <use x="683.59375" xlink:href="#DejaVuSans-101"/>
     <use x="745.117188" xlink:href="#DejaVuSans-32"/>
     <use x="776.904297" xlink:href="#DejaVuSans-100"/>
     <use x="840.380859" xlink:href="#DejaVuSans-101"/>
     <use x="901.904297" xlink:href="#DejaVuSans-99"/>
     <use x="956.884766" xlink:href="#DejaVuSans-114"/>
     <use x="995.748047" xlink:href="#DejaVuSans-101"/>
     <use x="1057.271484" xlink:href="#DejaVuSans-97"/>
     <use x="1118.550781" xlink:href="#DejaVuSans-115"/>
     <use x="1170.650391" xlink:href="#DejaVuSans-105"/>
     <use x="1198.433594" xlink:href="#DejaVuSans-110"/>
     <use x="1261.8125" xlink:href="#DejaVuSans-103"/>
     <use x="1325.289062" xlink:href="#DejaVuSans-32"/>
     <use x="1357.076172" xlink:href="#DejaVuSans-32"/>
     <use x="1388.863281" xlink:href="#DejaVuSans-116"/>
     <use x="1428.072266" xlink:href="#DejaVuSans-105"/>
     <use x="1455.855469" xlink:href="#DejaVuSans-109"/>
     <use x="1553.267578" xlink:href="#DejaVuSans-101"/>
     <use x="1614.791016" xlink:href="#DejaVuSans-32"/>
     <use x="1646.578125" xlink:href="#DejaVuSans-102"/>
     <use x="1681.783203" xlink:href="#DejaVuSans-111"/>
     <use x="1742.964844" xlink:href="#DejaVuSans-114"/>
     <use x="1784.078125" xlink:href="#DejaVuSans-32"/>
     <use x="1815.865234" xlink:href="#DejaVuSans-99"/>
     <use x="1870.845703" xlink:href="#DejaVuSans-108"/>
     <use x="1898.628906" xlink:href="#DejaVuSans-97"/>
     <use x="1959.908203" xlink:href="#DejaVuSans-115"/>
     <use x="2012.007812" xlink:href="#DejaVuSans-115"/>
     <use x="2064.107422" xlink:href="#DejaVuSans-32"/>
     <use x="2095.894531" xlink:href="#DejaVuSans-65"/>
     <use x="2164.302734" xlink:href="#DejaVuSans-44"/>
     <use x="2196.089844" xlink:href="#DejaVuSans-32"/>
     <use x="2227.876953" xlink:href="#DejaVuSans-85"/>
     <use x="2301.070312" xlink:href="#DejaVuSans-116"/>
     <use x="2340.279297" xlink:href="#DejaVuSans-105"/>
     <use x="2368.0625" xlink:href="#DejaVuSans-32"/>
     <use x="2399.849609" xlink:href="#DejaVuSans-48"/>
     <use x="2463.472656" xlink:href="#DejaVuSans-46"/>
     <use x="2495.259766" xlink:href="#DejaVuSans-53"/>
    </g>
   </g>
  </g>
  <g id="axes_2">
   <g id="patch_107">
    <path d="M 66.69 674.7624 
L 480.168 674.7624 
L 480.168 409.4064 
L 66.69 409.4064 
z
" style="fill:#ffffff;"/>
   </g>
   <g id="patch_108">
    <path clip-path="url(#p531351b40e)" d="M 85.484455 674.7624 
L 88.870843 674.7624 
L 88.870843 674.696082 
L 85.484455 674.696082 
z
" style="fill:#607c8e;"/>
   </g>
   <g id="patch_109">
    <path clip-path="url(#p531351b40e)" d="M 89.247108 674.7624 
L 92.633496 674.7624 
L 92.633496 674.7624 
L 89.247108 674.7624 
z
" style="fill:#607c8e;"/>
   </g>
   <g id="patch_110">
    <path clip-path="url(#p531351b40e)" d="M 93.009762 674.7624 
L 96.39615 674.7624 
L 96.39615 674.7624 
L 93.009762 674.7624 
z
" style="fill:#607c8e;"/>
   </g>
   <g id="patch_111">
    <path clip-path="url(#p531351b40e)" d="M 96.772415 674.7624 
L 100.158803 674.7624 
L 100.158803 674.7624 
L 96.772415 674.7624 
z
" style="fill:#607c8e;"/>
   </g>
   <g id="patch_112">
    <path clip-path="url(#p531351b40e)" d="M 100.535069 674.7624 
L 103.921457 674.7624 
L 103.921457 674.7624 
L 100.535069 674.7624 
z
" style="fill:#607c8e;"/>
   </g>
   <g id="patch_113">
    <path clip-path="url(#p531351b40e)" d="M 104.297722 674.7624 
L 107.684111 674.7624 
L 107.684111 674.712662 
L 104.297722 674.712662 
z
" style="fill:#607c8e;"/>
   </g>
   <g id="patch_114">
    <path clip-path="url(#p531351b40e)" d="M 108.060376 674.7624 
L 111.446764 674.7624 
L 111.446764 674.696082 
L 108.060376 674.696082 
z
" style="fill:#607c8e;"/>
   </g>
   <g id="patch_115">
    <path clip-path="url(#p531351b40e)" d="M 111.823029 674.7624 
L 115.209418 674.7624 
L 115.209418 674.745821 
L 111.823029 674.745821 
z
" style="fill:#607c8e;"/>
   </g>
   <g id="patch_116">
    <path clip-path="url(#p531351b40e)" d="M 115.585683 674.7624 
L 118.972071 674.7624 
L 118.972071 674.679503 
L 115.585683 674.679503 
z
" style="fill:#607c8e;"/>
   </g>
   <g id="patch_117">
    <path clip-path="url(#p531351b40e)" d="M 119.348337 674.7624 
L 122.734725 674.7624 
L 122.734725 674.662924 
L 119.348337 674.662924 
z
" style="fill:#607c8e;"/>
   </g>
   <g id="patch_118">
    <path clip-path="url(#p531351b40e)" d="M 123.11099 674.7624 
L 126.497378 674.7624 
L 126.497378 674.679503 
L 123.11099 674.679503 
z
" style="fill:#607c8e;"/>
   </g>
   <g id="patch_119">
    <path clip-path="url(#p531351b40e)" d="M 126.873644 674.7624 
L 130.260032 674.7624 
L 130.260032 674.596606 
L 126.873644 674.596606 
z
" style="fill:#607c8e;"/>
   </g>
   <g id="patch_120">
    <path clip-path="url(#p531351b40e)" d="M 130.636297 674.7624 
L 134.022686 674.7624 
L 134.022686 674.629765 
L 130.636297 674.629765 
z
" style="fill:#607c8e;"/>
   </g>
   <g id="patch_121">
    <path clip-path="url(#p531351b40e)" d="M 134.398951 674.7624 
L 137.785339 674.7624 
L 137.785339 674.596606 
L 134.398951 674.596606 
z
" style="fill:#607c8e;"/>
   </g>
   <g id="patch_122">
    <path clip-path="url(#p531351b40e)" d="M 138.161604 674.7624 
L 141.547993 674.7624 
L 141.547993 674.563447 
L 138.161604 674.563447 
z
" style="fill:#607c8e;"/>
   </g>
   <g id="patch_123">
    <path clip-path="url(#p531351b40e)" d="M 141.924258 674.7624 
L 145.310646 674.7624 
L 145.310646 674.347915 
L 141.924258 674.347915 
z
" style="fill:#607c8e;"/>
   </g>
   <g id="patch_124">
    <path clip-path="url(#p531351b40e)" d="M 145.686912 674.7624 
L 149.0733 674.7624 
L 149.0733 674.215279 
L 145.686912 674.215279 
z
" style="fill:#607c8e;"/>
   </g>
   <g id="patch_125">
    <path clip-path="url(#p531351b40e)" d="M 149.449565 674.7624 
L 152.835953 674.7624 
L 152.835953 674.231859 
L 149.449565 674.231859 
z
" style="fill:#607c8e;"/>
   </g>
   <g id="patch_126">
    <path clip-path="url(#p531351b40e)" d="M 153.212219 674.7624 
L 156.598607 674.7624 
L 156.598607 674.331335 
L 153.212219 674.331335 
z
" style="fill:#607c8e;"/>
   </g>
   <g id="patch_127">
    <path clip-path="url(#p531351b40e)" d="M 156.974872 674.7624 
L 160.36126 674.7624 
L 160.36126 674.016326 
L 156.974872 674.016326 
z
" style="fill:#607c8e;"/>
   </g>
   <g id="patch_128">
    <path clip-path="url(#p531351b40e)" d="M 160.737526 674.7624 
L 164.123914 674.7624 
L 164.123914 674.314756 
L 160.737526 674.314756 
z
" style="fill:#607c8e;"/>
   </g>
   <g id="patch_129">
    <path clip-path="url(#p531351b40e)" d="M 164.500179 674.7624 
L 167.886568 674.7624 
L 167.886568 674.265018 
L 164.500179 674.265018 
z
" style="fill:#607c8e;"/>
   </g>
   <g id="patch_130">
    <path clip-path="url(#p531351b40e)" d="M 168.262833 674.7624 
L 171.649221 674.7624 
L 171.649221 674.497129 
L 168.262833 674.497129 
z
" style="fill:#607c8e;"/>
   </g>
   <g id="patch_131">
    <path clip-path="url(#p531351b40e)" d="M 172.025486 674.7624 
L 175.411875 674.7624 
L 175.411875 674.397653 
L 172.025486 674.397653 
z
" style="fill:#607c8e;"/>
   </g>
   <g id="patch_132">
    <path clip-path="url(#p531351b40e)" d="M 175.78814 674.7624 
L 179.174528 674.7624 
L 179.174528 674.165541 
L 175.78814 674.165541 
z
" style="fill:#607c8e;"/>
   </g>
   <g id="patch_133">
    <path clip-path="url(#p531351b40e)" d="M 179.550794 674.7624 
L 182.937182 674.7624 
L 182.937182 673.867112 
L 179.550794 673.867112 
z
" style="fill:#607c8e;"/>
   </g>
   <g id="patch_134">
    <path clip-path="url(#p531351b40e)" d="M 183.313447 674.7624 
L 186.699835 674.7624 
L 186.699835 673.833953 
L 183.313447 673.833953 
z
" style="fill:#607c8e;"/>
   </g>
   <g id="patch_135">
    <path clip-path="url(#p531351b40e)" d="M 187.076101 674.7624 
L 190.462489 674.7624 
L 190.462489 673.701318 
L 187.076101 673.701318 
z
" style="fill:#607c8e;"/>
   </g>
   <g id="patch_136">
    <path clip-path="url(#p531351b40e)" d="M 190.838754 674.7624 
L 194.225143 674.7624 
L 194.225143 673.419468 
L 190.838754 673.419468 
z
" style="fill:#607c8e;"/>
   </g>
   <g id="patch_137">
    <path clip-path="url(#p531351b40e)" d="M 194.601408 674.7624 
L 197.987796 674.7624 
L 197.987796 673.91685 
L 194.601408 673.91685 
z
" style="fill:#607c8e;"/>
   </g>
   <g id="patch_138">
    <path clip-path="url(#p531351b40e)" d="M 198.364061 674.7624 
L 201.75045 674.7624 
L 201.75045 673.701318 
L 198.364061 673.701318 
z
" style="fill:#607c8e;"/>
   </g>
   <g id="patch_139">
    <path clip-path="url(#p531351b40e)" d="M 202.126715 674.7624 
L 205.513103 674.7624 
L 205.513103 673.90027 
L 202.126715 673.90027 
z
" style="fill:#607c8e;"/>
   </g>
   <g id="patch_140">
    <path clip-path="url(#p531351b40e)" d="M 205.889369 674.7624 
L 209.275757 674.7624 
L 209.275757 673.33657 
L 205.889369 673.33657 
z
" style="fill:#607c8e;"/>
   </g>
   <g id="patch_141">
    <path clip-path="url(#p531351b40e)" d="M 209.652022 674.7624 
L 213.03841 674.7624 
L 213.03841 673.253673 
L 209.652022 673.253673 
z
" style="fill:#607c8e;"/>
   </g>
   <g id="patch_142">
    <path clip-path="url(#p531351b40e)" d="M 213.414676 674.7624 
L 216.801064 674.7624 
L 216.801064 673.004982 
L 213.414676 673.004982 
z
" style="fill:#607c8e;"/>
   </g>
   <g id="patch_143">
    <path clip-path="url(#p531351b40e)" d="M 217.177329 674.7624 
L 220.563717 674.7624 
L 220.563717 672.839188 
L 217.177329 672.839188 
z
" style="fill:#607c8e;"/>
   </g>
   <g id="patch_144">
    <path clip-path="url(#p531351b40e)" d="M 220.939983 674.7624 
L 224.326371 674.7624 
L 224.326371 671.413358 
L 220.939983 671.413358 
z
" style="fill:#607c8e;"/>
   </g>
   <g id="patch_145">
    <path clip-path="url(#p531351b40e)" d="M 224.702636 674.7624 
L 228.089025 674.7624 
L 228.089025 670.402014 
L 224.702636 670.402014 
z
" style="fill:#607c8e;"/>
   </g>
   <g id="patch_146">
    <path clip-path="url(#p531351b40e)" d="M 228.46529 674.7624 
L 231.851678 674.7624 
L 231.851678 665.477928 
L 228.46529 665.477928 
z
" style="fill:#607c8e;"/>
   </g>
   <g id="patch_147">
    <path clip-path="url(#p531351b40e)" d="M 232.227943 674.7624 
L 235.614332 674.7624 
L 235.614332 654.751048 
L 232.227943 654.751048 
z
" style="fill:#607c8e;"/>
   </g>
   <g id="patch_148">
    <path clip-path="url(#p531351b40e)" d="M 235.990597 674.7624 
L 239.376985 674.7624 
L 239.376985 625.355748 
L 235.990597 625.355748 
z
" style="fill:#607c8e;"/>
   </g>
   <g id="patch_149">
    <path clip-path="url(#p531351b40e)" d="M 239.753251 674.7624 
L 243.139639 674.7624 
L 243.139639 538.396724 
L 239.753251 538.396724 
z
" style="fill:#607c8e;"/>
   </g>
   <g id="patch_150">
    <path clip-path="url(#p531351b40e)" d="M 243.515904 674.7624 
L 246.902292 674.7624 
L 246.902292 422.0424 
L 243.515904 422.0424 
z
" style="fill:#607c8e;"/>
   </g>
   <g id="patch_151">
    <path clip-path="url(#p531351b40e)" d="M 247.278558 674.7624 
L 250.664946 674.7624 
L 250.664946 540.220459 
L 247.278558 540.220459 
z
" style="fill:#607c8e;"/>
   </g>
   <g id="patch_152">
    <path clip-path="url(#p531351b40e)" d="M 251.041211 674.7624 
L 254.4276 674.7624 
L 254.4276 601.182963 
L 251.041211 601.182963 
z
" style="fill:#607c8e;"/>
   </g>
   <g id="patch_153">
    <path clip-path="url(#p531351b40e)" d="M 254.803865 674.7624 
L 258.190253 674.7624 
L 258.190253 622.703042 
L 254.803865 622.703042 
z
" style="fill:#607c8e;"/>
   </g>
   <g id="patch_154">
    <path clip-path="url(#p531351b40e)" d="M 258.566518 674.7624 
L 261.952907 674.7624 
L 261.952907 634.640219 
L 258.566518 634.640219 
z
" style="fill:#607c8e;"/>
   </g>
   <g id="patch_155">
    <path clip-path="url(#p531351b40e)" d="M 262.329172 674.7624 
L 265.71556 674.7624 
L 265.71556 649.909859 
L 262.329172 649.909859 
z
" style="fill:#607c8e;"/>
   </g>
   <g id="patch_156">
    <path clip-path="url(#p531351b40e)" d="M 266.091826 674.7624 
L 269.478214 674.7624 
L 269.478214 657.702184 
L 266.091826 657.702184 
z
" style="fill:#607c8e;"/>
   </g>
   <g id="patch_157">
    <path clip-path="url(#p531351b40e)" d="M 269.854479 674.7624 
L 273.240867 674.7624 
L 273.240867 662.493634 
L 269.854479 662.493634 
z
" style="fill:#607c8e;"/>
   </g>
   <g id="patch_158">
    <path clip-path="url(#p531351b40e)" d="M 273.617133 674.7624 
L 277.003521 674.7624 
L 277.003521 663.272866 
L 273.617133 663.272866 
z
" style="fill:#607c8e;"/>
   </g>
   <g id="patch_159">
    <path clip-path="url(#p531351b40e)" d="M 277.379786 674.7624 
L 280.766174 674.7624 
L 280.766174 665.610564 
L 277.379786 665.610564 
z
" style="fill:#607c8e;"/>
   </g>
   <g id="patch_160">
    <path clip-path="url(#p531351b40e)" d="M 281.14244 674.7624 
L 284.528828 674.7624 
L 284.528828 667.881943 
L 281.14244 667.881943 
z
" style="fill:#607c8e;"/>
   </g>
   <g id="patch_161">
    <path clip-path="url(#p531351b40e)" d="M 284.905093 674.7624 
L 288.291482 674.7624 
L 288.291482 670.004108 
L 284.905093 670.004108 
z
" style="fill:#607c8e;"/>
   </g>
   <g id="patch_162">
    <path clip-path="url(#p531351b40e)" d="M 288.667747 674.7624 
L 292.054135 674.7624 
L 292.054135 670.120164 
L 288.667747 670.120164 
z
" style="fill:#607c8e;"/>
   </g>
   <g id="patch_163">
    <path clip-path="url(#p531351b40e)" d="M 292.4304 674.7624 
L 295.816789 674.7624 
L 295.816789 671.114929 
L 292.4304 671.114929 
z
" style="fill:#607c8e;"/>
   </g>
   <g id="patch_164">
    <path clip-path="url(#p531351b40e)" d="M 296.193054 674.7624 
L 299.579442 674.7624 
L 299.579442 671.844423 
L 296.193054 671.844423 
z
" style="fill:#607c8e;"/>
   </g>
   <g id="patch_165">
    <path clip-path="url(#p531351b40e)" d="M 299.955708 674.7624 
L 303.342096 674.7624 
L 303.342096 671.894161 
L 299.955708 671.894161 
z
" style="fill:#607c8e;"/>
   </g>
   <g id="patch_166">
    <path clip-path="url(#p531351b40e)" d="M 303.718361 674.7624 
L 307.104749 674.7624 
L 307.104749 672.22575 
L 303.718361 672.22575 
z
" style="fill:#607c8e;"/>
   </g>
   <g id="patch_167">
    <path clip-path="url(#p531351b40e)" d="M 307.481015 674.7624 
L 310.867403 674.7624 
L 310.867403 672.059956 
L 307.481015 672.059956 
z
" style="fill:#607c8e;"/>
   </g>
   <g id="patch_168">
    <path clip-path="url(#p531351b40e)" d="M 311.243668 674.7624 
L 314.630057 674.7624 
L 314.630057 672.557338 
L 311.243668 672.557338 
z
" style="fill:#607c8e;"/>
   </g>
   <g id="patch_169">
    <path clip-path="url(#p531351b40e)" d="M 315.006322 674.7624 
L 318.39271 674.7624 
L 318.39271 673.137617 
L 315.006322 673.137617 
z
" style="fill:#607c8e;"/>
   </g>
   <g id="patch_170">
    <path clip-path="url(#p531351b40e)" d="M 318.768975 674.7624 
L 322.155364 674.7624 
L 322.155364 673.651579 
L 318.768975 673.651579 
z
" style="fill:#607c8e;"/>
   </g>
   <g id="patch_171">
    <path clip-path="url(#p531351b40e)" d="M 322.531629 674.7624 
L 325.918017 674.7624 
L 325.918017 673.784215 
L 322.531629 673.784215 
z
" style="fill:#607c8e;"/>
   </g>
   <g id="patch_172">
    <path clip-path="url(#p531351b40e)" d="M 326.294283 674.7624 
L 329.680671 674.7624 
L 329.680671 674.132382 
L 326.294283 674.132382 
z
" style="fill:#607c8e;"/>
   </g>
   <g id="patch_173">
    <path clip-path="url(#p531351b40e)" d="M 330.056936 674.7624 
L 333.443324 674.7624 
L 333.443324 674.032906 
L 330.056936 674.032906 
z
" style="fill:#607c8e;"/>
   </g>
   <g id="patch_174">
    <path clip-path="url(#p531351b40e)" d="M 333.81959 674.7624 
L 337.205978 674.7624 
L 337.205978 674.463971 
L 333.81959 674.463971 
z
" style="fill:#607c8e;"/>
   </g>
   <g id="patch_175">
    <path clip-path="url(#p531351b40e)" d="M 337.582243 674.7624 
L 340.968631 674.7624 
L 340.968631 674.430812 
L 337.582243 674.430812 
z
" style="fill:#607c8e;"/>
   </g>
   <g id="patch_176">
    <path clip-path="url(#p531351b40e)" d="M 341.344897 674.7624 
L 344.731285 674.7624 
L 344.731285 674.463971 
L 341.344897 674.463971 
z
" style="fill:#607c8e;"/>
   </g>
   <g id="patch_177">
    <path clip-path="url(#p531351b40e)" d="M 345.10755 674.7624 
L 348.493939 674.7624 
L 348.493939 674.629765 
L 345.10755 674.629765 
z
" style="fill:#607c8e;"/>
   </g>
   <g id="patch_178">
    <path clip-path="url(#p531351b40e)" d="M 348.870204 674.7624 
L 352.256592 674.7624 
L 352.256592 674.613185 
L 348.870204 674.613185 
z
" style="fill:#607c8e;"/>
   </g>
   <g id="patch_179">
    <path clip-path="url(#p531351b40e)" d="M 352.632857 674.7624 
L 356.019246 674.7624 
L 356.019246 674.629765 
L 352.632857 674.629765 
z
" style="fill:#607c8e;"/>
   </g>
   <g id="patch_180">
    <path clip-path="url(#p531351b40e)" d="M 356.395511 674.7624 
L 359.781899 674.7624 
L 359.781899 674.646344 
L 356.395511 674.646344 
z
" style="fill:#607c8e;"/>
   </g>
   <g id="patch_181">
    <path clip-path="url(#p531351b40e)" d="M 360.158165 674.7624 
L 363.544553 674.7624 
L 363.544553 674.696082 
L 360.158165 674.696082 
z
" style="fill:#607c8e;"/>
   </g>
   <g id="patch_182">
    <path clip-path="url(#p531351b40e)" d="M 363.920818 674.7624 
L 367.307206 674.7624 
L 367.307206 674.679503 
L 363.920818 674.679503 
z
" style="fill:#607c8e;"/>
   </g>
   <g id="patch_183">
    <path clip-path="url(#p531351b40e)" d="M 367.683472 674.7624 
L 371.06986 674.7624 
L 371.06986 674.712662 
L 367.683472 674.712662 
z
" style="fill:#607c8e;"/>
   </g>
   <g id="patch_184">
    <path clip-path="url(#p531351b40e)" d="M 371.446125 674.7624 
L 374.832514 674.7624 
L 374.832514 674.696082 
L 371.446125 674.696082 
z
" style="fill:#607c8e;"/>
   </g>
   <g id="patch_185">
    <path clip-path="url(#p531351b40e)" d="M 375.208779 674.7624 
L 378.595167 674.7624 
L 378.595167 674.729241 
L 375.208779 674.729241 
z
" style="fill:#607c8e;"/>
   </g>
   <g id="patch_186">
    <path clip-path="url(#p531351b40e)" d="M 378.971432 674.7624 
L 382.357821 674.7624 
L 382.357821 674.729241 
L 378.971432 674.729241 
z
" style="fill:#607c8e;"/>
   </g>
   <g id="patch_187">
    <path clip-path="url(#p531351b40e)" d="M 382.734086 674.7624 
L 386.120474 674.7624 
L 386.120474 674.745821 
L 382.734086 674.745821 
z
" style="fill:#607c8e;"/>
   </g>
   <g id="patch_188">
    <path clip-path="url(#p531351b40e)" d="M 386.49674 674.7624 
L 389.883128 674.7624 
L 389.883128 674.696082 
L 386.49674 674.696082 
z
" style="fill:#607c8e;"/>
   </g>
   <g id="patch_189">
    <path clip-path="url(#p531351b40e)" d="M 390.259393 674.7624 
L 393.645781 674.7624 
L 393.645781 674.7624 
L 390.259393 674.7624 
z
" style="fill:#607c8e;"/>
   </g>
   <g id="patch_190">
    <path clip-path="url(#p531351b40e)" d="M 394.022047 674.7624 
L 397.408435 674.7624 
L 397.408435 674.745821 
L 394.022047 674.745821 
z
" style="fill:#607c8e;"/>
   </g>
   <g id="patch_191">
    <path clip-path="url(#p531351b40e)" d="M 397.7847 674.7624 
L 401.171088 674.7624 
L 401.171088 674.745821 
L 397.7847 674.745821 
z
" style="fill:#607c8e;"/>
   </g>
   <g id="patch_192">
    <path clip-path="url(#p531351b40e)" d="M 401.547354 674.7624 
L 404.933742 674.7624 
L 404.933742 674.745821 
L 401.547354 674.745821 
z
" style="fill:#607c8e;"/>
   </g>
   <g id="patch_193">
    <path clip-path="url(#p531351b40e)" d="M 405.310007 674.7624 
L 408.696396 674.7624 
L 408.696396 674.7624 
L 405.310007 674.7624 
z
" style="fill:#607c8e;"/>
   </g>
   <g id="patch_194">
    <path clip-path="url(#p531351b40e)" d="M 409.072661 674.7624 
L 412.459049 674.7624 
L 412.459049 674.745821 
L 409.072661 674.745821 
z
" style="fill:#607c8e;"/>
   </g>
   <g id="patch_195">
    <path clip-path="url(#p531351b40e)" d="M 412.835314 674.7624 
L 416.221703 674.7624 
L 416.221703 674.7624 
L 412.835314 674.7624 
z
" style="fill:#607c8e;"/>
   </g>
   <g id="patch_196">
    <path clip-path="url(#p531351b40e)" d="M 416.597968 674.7624 
L 419.984356 674.7624 
L 419.984356 674.745821 
L 416.597968 674.745821 
z
" style="fill:#607c8e;"/>
   </g>
   <g id="patch_197">
    <path clip-path="url(#p531351b40e)" d="M 420.360622 674.7624 
L 423.74701 674.7624 
L 423.74701 674.745821 
L 420.360622 674.745821 
z
" style="fill:#607c8e;"/>
   </g>
   <g id="patch_198">
    <path clip-path="url(#p531351b40e)" d="M 424.123275 674.7624 
L 427.509663 674.7624 
L 427.509663 674.7624 
L 424.123275 674.7624 
z
" style="fill:#607c8e;"/>
   </g>
   <g id="patch_199">
    <path clip-path="url(#p531351b40e)" d="M 427.885929 674.7624 
L 431.272317 674.7624 
L 431.272317 674.745821 
L 427.885929 674.745821 
z
" style="fill:#607c8e;"/>
   </g>
   <g id="patch_200">
    <path clip-path="url(#p531351b40e)" d="M 431.648582 674.7624 
L 435.034971 674.7624 
L 435.034971 674.7624 
L 431.648582 674.7624 
z
" style="fill:#607c8e;"/>
   </g>
   <g id="patch_201">
    <path clip-path="url(#p531351b40e)" d="M 435.411236 674.7624 
L 438.797624 674.7624 
L 438.797624 674.7624 
L 435.411236 674.7624 
z
" style="fill:#607c8e;"/>
   </g>
   <g id="patch_202">
    <path clip-path="url(#p531351b40e)" d="M 439.173889 674.7624 
L 442.560278 674.7624 
L 442.560278 674.729241 
L 439.173889 674.729241 
z
" style="fill:#607c8e;"/>
   </g>
   <g id="patch_203">
    <path clip-path="url(#p531351b40e)" d="M 442.936543 674.7624 
L 446.322931 674.7624 
L 446.322931 674.7624 
L 442.936543 674.7624 
z
" style="fill:#607c8e;"/>
   </g>
   <g id="patch_204">
    <path clip-path="url(#p531351b40e)" d="M 446.699197 674.7624 
L 450.085585 674.7624 
L 450.085585 674.7624 
L 446.699197 674.7624 
z
" style="fill:#607c8e;"/>
   </g>
   <g id="patch_205">
    <path clip-path="url(#p531351b40e)" d="M 450.46185 674.7624 
L 453.848238 674.7624 
L 453.848238 674.7624 
L 450.46185 674.7624 
z
" style="fill:#607c8e;"/>
   </g>
   <g id="patch_206">
    <path clip-path="url(#p531351b40e)" d="M 454.224504 674.7624 
L 457.610892 674.7624 
L 457.610892 674.745821 
L 454.224504 674.745821 
z
" style="fill:#607c8e;"/>
   </g>
   <g id="patch_207">
    <path clip-path="url(#p531351b40e)" d="M 457.987157 674.7624 
L 461.373545 674.7624 
L 461.373545 674.745821 
L 457.987157 674.745821 
z
" style="fill:#607c8e;"/>
   </g>
   <g id="matplotlib.axis_3">
    <g id="xtick_7">
     <g id="line2d_23">
      <path clip-path="url(#p531351b40e)" d="M 94.921544 674.7624 
L 94.921544 409.4064 
" style="fill:none;stroke:#b0b0b0;stroke-dasharray:2.96,1.28;stroke-dashoffset:0;stroke-opacity:0.5;stroke-width:0.8;"/>
     </g>
     <g id="line2d_24">
      <g>
       <use style="stroke:#000000;stroke-width:0.8;" x="94.921544" xlink:href="#m3112ec9914" y="674.7624"/>
      </g>
     </g>
     <g id="text_15">
      <!-- −400 -->
      <g transform="translate(81.18795 689.360838)scale(0.1 -0.1)">
       <use xlink:href="#DejaVuSans-8722"/>
       <use x="83.789062" xlink:href="#DejaVuSans-52"/>
       <use x="147.412109" xlink:href="#DejaVuSans-48"/>
       <use x="211.035156" xlink:href="#DejaVuSans-48"/>
      </g>
     </g>
    </g>
    <g id="xtick_8">
     <g id="line2d_25">
      <path clip-path="url(#p531351b40e)" d="M 168.396521 674.7624 
L 168.396521 409.4064 
" style="fill:none;stroke:#b0b0b0;stroke-dasharray:2.96,1.28;stroke-dashoffset:0;stroke-opacity:0.5;stroke-width:0.8;"/>
     </g>
     <g id="line2d_26">
      <g>
       <use style="stroke:#000000;stroke-width:0.8;" x="168.396521" xlink:href="#m3112ec9914" y="674.7624"/>
      </g>
     </g>
     <g id="text_16">
      <!-- −200 -->
      <g transform="translate(154.662927 689.360838)scale(0.1 -0.1)">
       <use xlink:href="#DejaVuSans-8722"/>
       <use x="83.789062" xlink:href="#DejaVuSans-50"/>
       <use x="147.412109" xlink:href="#DejaVuSans-48"/>
       <use x="211.035156" xlink:href="#DejaVuSans-48"/>
      </g>
     </g>
    </g>
    <g id="xtick_9">
     <g id="line2d_27">
      <path clip-path="url(#p531351b40e)" d="M 241.871497 674.7624 
L 241.871497 409.4064 
" style="fill:none;stroke:#b0b0b0;stroke-dasharray:2.96,1.28;stroke-dashoffset:0;stroke-opacity:0.5;stroke-width:0.8;"/>
     </g>
     <g id="line2d_28">
      <g>
       <use style="stroke:#000000;stroke-width:0.8;" x="241.871497" xlink:href="#m3112ec9914" y="674.7624"/>
      </g>
     </g>
     <g id="text_17">
      <!-- 0 -->
      <g transform="translate(238.690247 689.360838)scale(0.1 -0.1)">
       <use xlink:href="#DejaVuSans-48"/>
      </g>
     </g>
    </g>
    <g id="xtick_10">
     <g id="line2d_29">
      <path clip-path="url(#p531351b40e)" d="M 315.346474 674.7624 
L 315.346474 409.4064 
" style="fill:none;stroke:#b0b0b0;stroke-dasharray:2.96,1.28;stroke-dashoffset:0;stroke-opacity:0.5;stroke-width:0.8;"/>
     </g>
     <g id="line2d_30">
      <g>
       <use style="stroke:#000000;stroke-width:0.8;" x="315.346474" xlink:href="#m3112ec9914" y="674.7624"/>
      </g>
     </g>
     <g id="text_18">
      <!-- 200 -->
      <g transform="translate(305.802724 689.360838)scale(0.1 -0.1)">
       <use xlink:href="#DejaVuSans-50"/>
       <use x="63.623047" xlink:href="#DejaVuSans-48"/>
       <use x="127.246094" xlink:href="#DejaVuSans-48"/>
      </g>
     </g>
    </g>
    <g id="xtick_11">
     <g id="line2d_31">
      <path clip-path="url(#p531351b40e)" d="M 388.821451 674.7624 
L 388.821451 409.4064 
" style="fill:none;stroke:#b0b0b0;stroke-dasharray:2.96,1.28;stroke-dashoffset:0;stroke-opacity:0.5;stroke-width:0.8;"/>
     </g>
     <g id="line2d_32">
      <g>
       <use style="stroke:#000000;stroke-width:0.8;" x="388.821451" xlink:href="#m3112ec9914" y="674.7624"/>
      </g>
     </g>
     <g id="text_19">
      <!-- 400 -->
      <g transform="translate(379.277701 689.360838)scale(0.1 -0.1)">
       <use xlink:href="#DejaVuSans-52"/>
       <use x="63.623047" xlink:href="#DejaVuSans-48"/>
       <use x="127.246094" xlink:href="#DejaVuSans-48"/>
      </g>
     </g>
    </g>
    <g id="xtick_12">
     <g id="line2d_33">
      <path clip-path="url(#p531351b40e)" d="M 462.296428 674.7624 
L 462.296428 409.4064 
" style="fill:none;stroke:#b0b0b0;stroke-dasharray:2.96,1.28;stroke-dashoffset:0;stroke-opacity:0.5;stroke-width:0.8;"/>
     </g>
     <g id="line2d_34">
      <g>
       <use style="stroke:#000000;stroke-width:0.8;" x="462.296428" xlink:href="#m3112ec9914" y="674.7624"/>
      </g>
     </g>
     <g id="text_20">
      <!-- 600 -->
      <g transform="translate(452.752678 689.360838)scale(0.1 -0.1)">
       <use xlink:href="#DejaVuSans-54"/>
       <use x="63.623047" xlink:href="#DejaVuSans-48"/>
       <use x="127.246094" xlink:href="#DejaVuSans-48"/>
      </g>
     </g>
    </g>
    <g id="text_21">
     <!-- decreasing  time -->
     <g transform="translate(223.155562 704.55865)scale(0.12 -0.12)">
      <use xlink:href="#DejaVuSans-100"/>
      <use x="63.476562" xlink:href="#DejaVuSans-101"/>
      <use x="125" xlink:href="#DejaVuSans-99"/>
      <use x="179.980469" xlink:href="#DejaVuSans-114"/>
      <use x="218.84375" xlink:href="#DejaVuSans-101"/>
      <use x="280.367188" xlink:href="#DejaVuSans-97"/>
      <use x="341.646484" xlink:href="#DejaVuSans-115"/>
      <use x="393.746094" xlink:href="#DejaVuSans-105"/>
      <use x="421.529297" xlink:href="#DejaVuSans-110"/>
      <use x="484.908203" xlink:href="#DejaVuSans-103"/>
      <use x="548.384766" xlink:href="#DejaVuSans-32"/>
      <use x="580.171875" xlink:href="#DejaVuSans-32"/>
      <use x="611.958984" xlink:href="#DejaVuSans-116"/>
      <use x="651.167969" xlink:href="#DejaVuSans-105"/>
      <use x="678.951172" xlink:href="#DejaVuSans-109"/>
      <use x="776.363281" xlink:href="#DejaVuSans-101"/>
     </g>
    </g>
   </g>
   <g id="matplotlib.axis_4">
    <g id="ytick_6">
     <g id="line2d_35">
      <path clip-path="url(#p531351b40e)" d="M 66.69 674.7624 
L 480.168 674.7624 
" style="fill:none;stroke:#b0b0b0;stroke-dasharray:2.96,1.28;stroke-dashoffset:0;stroke-opacity:0.5;stroke-width:0.8;"/>
     </g>
     <g id="line2d_36">
      <g>
       <use style="stroke:#000000;stroke-width:0.8;" x="66.69" xlink:href="#m92a9c55b74" y="674.7624"/>
      </g>
     </g>
     <g id="text_22">
      <!-- 0 -->
      <g transform="translate(53.3275 678.561619)scale(0.1 -0.1)">
       <use xlink:href="#DejaVuSans-48"/>
      </g>
     </g>
    </g>
    <g id="ytick_7">
     <g id="line2d_37">
      <path clip-path="url(#p531351b40e)" d="M 66.69 641.603573 
L 480.168 641.603573 
" style="fill:none;stroke:#b0b0b0;stroke-dasharray:2.96,1.28;stroke-dashoffset:0;stroke-opacity:0.5;stroke-width:0.8;"/>
     </g>
     <g id="line2d_38">
      <g>
       <use style="stroke:#000000;stroke-width:0.8;" x="66.69" xlink:href="#m92a9c55b74" y="641.603573"/>
      </g>
     </g>
     <g id="text_23">
      <!-- 2000 -->
      <g transform="translate(34.24 645.402792)scale(0.1 -0.1)">
       <use xlink:href="#DejaVuSans-50"/>
       <use x="63.623047" xlink:href="#DejaVuSans-48"/>
       <use x="127.246094" xlink:href="#DejaVuSans-48"/>
       <use x="190.869141" xlink:href="#DejaVuSans-48"/>
      </g>
     </g>
    </g>
    <g id="ytick_8">
     <g id="line2d_39">
      <path clip-path="url(#p531351b40e)" d="M 66.69 608.444746 
L 480.168 608.444746 
" style="fill:none;stroke:#b0b0b0;stroke-dasharray:2.96,1.28;stroke-dashoffset:0;stroke-opacity:0.5;stroke-width:0.8;"/>
     </g>
     <g id="line2d_40">
      <g>
       <use style="stroke:#000000;stroke-width:0.8;" x="66.69" xlink:href="#m92a9c55b74" y="608.444746"/>
      </g>
     </g>
     <g id="text_24">
      <!-- 4000 -->
      <g transform="translate(34.24 612.243965)scale(0.1 -0.1)">
       <use xlink:href="#DejaVuSans-52"/>
       <use x="63.623047" xlink:href="#DejaVuSans-48"/>
       <use x="127.246094" xlink:href="#DejaVuSans-48"/>
       <use x="190.869141" xlink:href="#DejaVuSans-48"/>
      </g>
     </g>
    </g>
    <g id="ytick_9">
     <g id="line2d_41">
      <path clip-path="url(#p531351b40e)" d="M 66.69 575.285919 
L 480.168 575.285919 
" style="fill:none;stroke:#b0b0b0;stroke-dasharray:2.96,1.28;stroke-dashoffset:0;stroke-opacity:0.5;stroke-width:0.8;"/>
     </g>
     <g id="line2d_42">
      <g>
       <use style="stroke:#000000;stroke-width:0.8;" x="66.69" xlink:href="#m92a9c55b74" y="575.285919"/>
      </g>
     </g>
     <g id="text_25">
      <!-- 6000 -->
      <g transform="translate(34.24 579.085138)scale(0.1 -0.1)">
       <use xlink:href="#DejaVuSans-54"/>
       <use x="63.623047" xlink:href="#DejaVuSans-48"/>
       <use x="127.246094" xlink:href="#DejaVuSans-48"/>
       <use x="190.869141" xlink:href="#DejaVuSans-48"/>
      </g>
     </g>
    </g>
    <g id="ytick_10">
     <g id="line2d_43">
      <path clip-path="url(#p531351b40e)" d="M 66.69 542.127092 
L 480.168 542.127092 
" style="fill:none;stroke:#b0b0b0;stroke-dasharray:2.96,1.28;stroke-dashoffset:0;stroke-opacity:0.5;stroke-width:0.8;"/>
     </g>
     <g id="line2d_44">
      <g>
       <use style="stroke:#000000;stroke-width:0.8;" x="66.69" xlink:href="#m92a9c55b74" y="542.127092"/>
      </g>
     </g>
     <g id="text_26">
      <!-- 8000 -->
      <g transform="translate(34.24 545.926311)scale(0.1 -0.1)">
       <defs>
        <path d="M 31.78125 34.625 
Q 24.75 34.625 20.71875 30.859375 
Q 16.703125 27.09375 16.703125 20.515625 
Q 16.703125 13.921875 20.71875 10.15625 
Q 24.75 6.390625 31.78125 6.390625 
Q 38.8125 6.390625 42.859375 10.171875 
Q 46.921875 13.96875 46.921875 20.515625 
Q 46.921875 27.09375 42.890625 30.859375 
Q 38.875 34.625 31.78125 34.625 
z
M 21.921875 38.8125 
Q 15.578125 40.375 12.03125 44.71875 
Q 8.5 49.078125 8.5 55.328125 
Q 8.5 64.0625 14.71875 69.140625 
Q 20.953125 74.21875 31.78125 74.21875 
Q 42.671875 74.21875 48.875 69.140625 
Q 55.078125 64.0625 55.078125 55.328125 
Q 55.078125 49.078125 51.53125 44.71875 
Q 48 40.375 41.703125 38.8125 
Q 48.828125 37.15625 52.796875 32.3125 
Q 56.78125 27.484375 56.78125 20.515625 
Q 56.78125 9.90625 50.3125 4.234375 
Q 43.84375 -1.421875 31.78125 -1.421875 
Q 19.734375 -1.421875 13.25 4.234375 
Q 6.78125 9.90625 6.78125 20.515625 
Q 6.78125 27.484375 10.78125 32.3125 
Q 14.796875 37.15625 21.921875 38.8125 
z
M 18.3125 54.390625 
Q 18.3125 48.734375 21.84375 45.5625 
Q 25.390625 42.390625 31.78125 42.390625 
Q 38.140625 42.390625 41.71875 45.5625 
Q 45.3125 48.734375 45.3125 54.390625 
Q 45.3125 60.0625 41.71875 63.234375 
Q 38.140625 66.40625 31.78125 66.40625 
Q 25.390625 66.40625 21.84375 63.234375 
Q 18.3125 60.0625 18.3125 54.390625 
z
" id="DejaVuSans-56"/>
       </defs>
       <use xlink:href="#DejaVuSans-56"/>
       <use x="63.623047" xlink:href="#DejaVuSans-48"/>
       <use x="127.246094" xlink:href="#DejaVuSans-48"/>
       <use x="190.869141" xlink:href="#DejaVuSans-48"/>
      </g>
     </g>
    </g>
    <g id="ytick_11">
     <g id="line2d_45">
      <path clip-path="url(#p531351b40e)" d="M 66.69 508.968265 
L 480.168 508.968265 
" style="fill:none;stroke:#b0b0b0;stroke-dasharray:2.96,1.28;stroke-dashoffset:0;stroke-opacity:0.5;stroke-width:0.8;"/>
     </g>
     <g id="line2d_46">
      <g>
       <use style="stroke:#000000;stroke-width:0.8;" x="66.69" xlink:href="#m92a9c55b74" y="508.968265"/>
      </g>
     </g>
     <g id="text_27">
      <!-- 10000 -->
      <g transform="translate(27.8775 512.767484)scale(0.1 -0.1)">
       <use xlink:href="#DejaVuSans-49"/>
       <use x="63.623047" xlink:href="#DejaVuSans-48"/>
       <use x="127.246094" xlink:href="#DejaVuSans-48"/>
       <use x="190.869141" xlink:href="#DejaVuSans-48"/>
       <use x="254.492188" xlink:href="#DejaVuSans-48"/>
      </g>
     </g>
    </g>
    <g id="ytick_12">
     <g id="line2d_47">
      <path clip-path="url(#p531351b40e)" d="M 66.69 475.809438 
L 480.168 475.809438 
" style="fill:none;stroke:#b0b0b0;stroke-dasharray:2.96,1.28;stroke-dashoffset:0;stroke-opacity:0.5;stroke-width:0.8;"/>
     </g>
     <g id="line2d_48">
      <g>
       <use style="stroke:#000000;stroke-width:0.8;" x="66.69" xlink:href="#m92a9c55b74" y="475.809438"/>
      </g>
     </g>
     <g id="text_28">
      <!-- 12000 -->
      <g transform="translate(27.8775 479.608657)scale(0.1 -0.1)">
       <use xlink:href="#DejaVuSans-49"/>
       <use x="63.623047" xlink:href="#DejaVuSans-50"/>
       <use x="127.246094" xlink:href="#DejaVuSans-48"/>
       <use x="190.869141" xlink:href="#DejaVuSans-48"/>
       <use x="254.492188" xlink:href="#DejaVuSans-48"/>
      </g>
     </g>
    </g>
    <g id="ytick_13">
     <g id="line2d_49">
      <path clip-path="url(#p531351b40e)" d="M 66.69 442.650611 
L 480.168 442.650611 
" style="fill:none;stroke:#b0b0b0;stroke-dasharray:2.96,1.28;stroke-dashoffset:0;stroke-opacity:0.5;stroke-width:0.8;"/>
     </g>
     <g id="line2d_50">
      <g>
       <use style="stroke:#000000;stroke-width:0.8;" x="66.69" xlink:href="#m92a9c55b74" y="442.650611"/>
      </g>
     </g>
     <g id="text_29">
      <!-- 14000 -->
      <g transform="translate(27.8775 446.44983)scale(0.1 -0.1)">
       <use xlink:href="#DejaVuSans-49"/>
       <use x="63.623047" xlink:href="#DejaVuSans-52"/>
       <use x="127.246094" xlink:href="#DejaVuSans-48"/>
       <use x="190.869141" xlink:href="#DejaVuSans-48"/>
       <use x="254.492188" xlink:href="#DejaVuSans-48"/>
      </g>
     </g>
    </g>
    <g id="ytick_14">
     <g id="line2d_51">
      <path clip-path="url(#p531351b40e)" d="M 66.69 409.491784 
L 480.168 409.491784 
" style="fill:none;stroke:#b0b0b0;stroke-dasharray:2.96,1.28;stroke-dashoffset:0;stroke-opacity:0.5;stroke-width:0.8;"/>
     </g>
     <g id="line2d_52">
      <g>
       <use style="stroke:#000000;stroke-width:0.8;" x="66.69" xlink:href="#m92a9c55b74" y="409.491784"/>
      </g>
     </g>
     <g id="text_30">
      <!-- 16000 -->
      <g transform="translate(27.8775 413.291003)scale(0.1 -0.1)">
       <use xlink:href="#DejaVuSans-49"/>
       <use x="63.623047" xlink:href="#DejaVuSans-54"/>
       <use x="127.246094" xlink:href="#DejaVuSans-48"/>
       <use x="190.869141" xlink:href="#DejaVuSans-48"/>
       <use x="254.492188" xlink:href="#DejaVuSans-48"/>
      </g>
     </g>
    </g>
    <g id="text_31">
     <!-- counts -->
     <g transform="translate(21.381875 562.137525)rotate(-90)scale(0.12 -0.12)">
      <use xlink:href="#DejaVuSans-99"/>
      <use x="54.980469" xlink:href="#DejaVuSans-111"/>
      <use x="116.162109" xlink:href="#DejaVuSans-117"/>
      <use x="179.541016" xlink:href="#DejaVuSans-110"/>
      <use x="242.919922" xlink:href="#DejaVuSans-116"/>
      <use x="282.128906" xlink:href="#DejaVuSans-115"/>
     </g>
    </g>
   </g>
   <g id="patch_208">
    <path d="M 66.69 674.7624 
L 66.69 409.4064 
" style="fill:none;stroke:#000000;stroke-linecap:square;stroke-linejoin:miter;stroke-width:0.8;"/>
   </g>
   <g id="patch_209">
    <path d="M 480.168 674.7624 
L 480.168 409.4064 
" style="fill:none;stroke:#000000;stroke-linecap:square;stroke-linejoin:miter;stroke-width:0.8;"/>
   </g>
   <g id="patch_210">
    <path d="M 66.69 674.7624 
L 480.168 674.7624 
" style="fill:none;stroke:#000000;stroke-linecap:square;stroke-linejoin:miter;stroke-width:0.8;"/>
   </g>
   <g id="patch_211">
    <path d="M 66.69 409.4064 
L 480.168 409.4064 
" style="fill:none;stroke:#000000;stroke-linecap:square;stroke-linejoin:miter;stroke-width:0.8;"/>
   </g>
   <g id="text_32">
    <!-- The finish time decreasing  time for class B, Uti 0.5 -->
    <g transform="translate(119.889937 399.4064)scale(0.12 -0.12)">
     <defs>
      <path d="M 19.671875 34.8125 
L 19.671875 8.109375 
L 35.5 8.109375 
Q 43.453125 8.109375 47.28125 11.40625 
Q 51.125 14.703125 51.125 21.484375 
Q 51.125 28.328125 47.28125 31.5625 
Q 43.453125 34.8125 35.5 34.8125 
z
M 19.671875 64.796875 
L 19.671875 42.828125 
L 34.28125 42.828125 
Q 41.5 42.828125 45.03125 45.53125 
Q 48.578125 48.25 48.578125 53.8125 
Q 48.578125 59.328125 45.03125 62.0625 
Q 41.5 64.796875 34.28125 64.796875 
z
M 9.8125 72.90625 
L 35.015625 72.90625 
Q 46.296875 72.90625 52.390625 68.21875 
Q 58.5 63.53125 58.5 54.890625 
Q 58.5 48.1875 55.375 44.234375 
Q 52.25 40.28125 46.1875 39.3125 
Q 53.46875 37.75 57.5 32.78125 
Q 61.53125 27.828125 61.53125 20.40625 
Q 61.53125 10.640625 54.890625 5.3125 
Q 48.25 0 35.984375 0 
L 9.8125 0 
z
" id="DejaVuSans-66"/>
     </defs>
     <use xlink:href="#DejaVuSans-84"/>
     <use x="61.083984" xlink:href="#DejaVuSans-104"/>
     <use x="124.462891" xlink:href="#DejaVuSans-101"/>
     <use x="185.986328" xlink:href="#DejaVuSans-32"/>
     <use x="217.773438" xlink:href="#DejaVuSans-102"/>
     <use x="252.978516" xlink:href="#DejaVuSans-105"/>
     <use x="280.761719" xlink:href="#DejaVuSans-110"/>
     <use x="344.140625" xlink:href="#DejaVuSans-105"/>
     <use x="371.923828" xlink:href="#DejaVuSans-115"/>
     <use x="424.023438" xlink:href="#DejaVuSans-104"/>
     <use x="487.402344" xlink:href="#DejaVuSans-32"/>
     <use x="519.189453" xlink:href="#DejaVuSans-116"/>
     <use x="558.398438" xlink:href="#DejaVuSans-105"/>
     <use x="586.181641" xlink:href="#DejaVuSans-109"/>
     <use x="683.59375" xlink:href="#DejaVuSans-101"/>
     <use x="745.117188" xlink:href="#DejaVuSans-32"/>
     <use x="776.904297" xlink:href="#DejaVuSans-100"/>
     <use x="840.380859" xlink:href="#DejaVuSans-101"/>
     <use x="901.904297" xlink:href="#DejaVuSans-99"/>
     <use x="956.884766" xlink:href="#DejaVuSans-114"/>
     <use x="995.748047" xlink:href="#DejaVuSans-101"/>
     <use x="1057.271484" xlink:href="#DejaVuSans-97"/>
     <use x="1118.550781" xlink:href="#DejaVuSans-115"/>
     <use x="1170.650391" xlink:href="#DejaVuSans-105"/>
     <use x="1198.433594" xlink:href="#DejaVuSans-110"/>
     <use x="1261.8125" xlink:href="#DejaVuSans-103"/>
     <use x="1325.289062" xlink:href="#DejaVuSans-32"/>
     <use x="1357.076172" xlink:href="#DejaVuSans-32"/>
     <use x="1388.863281" xlink:href="#DejaVuSans-116"/>
     <use x="1428.072266" xlink:href="#DejaVuSans-105"/>
     <use x="1455.855469" xlink:href="#DejaVuSans-109"/>
     <use x="1553.267578" xlink:href="#DejaVuSans-101"/>
     <use x="1614.791016" xlink:href="#DejaVuSans-32"/>
     <use x="1646.578125" xlink:href="#DejaVuSans-102"/>
     <use x="1681.783203" xlink:href="#DejaVuSans-111"/>
     <use x="1742.964844" xlink:href="#DejaVuSans-114"/>
     <use x="1784.078125" xlink:href="#DejaVuSans-32"/>
     <use x="1815.865234" xlink:href="#DejaVuSans-99"/>
     <use x="1870.845703" xlink:href="#DejaVuSans-108"/>
     <use x="1898.628906" xlink:href="#DejaVuSans-97"/>
     <use x="1959.908203" xlink:href="#DejaVuSans-115"/>
     <use x="2012.007812" xlink:href="#DejaVuSans-115"/>
     <use x="2064.107422" xlink:href="#DejaVuSans-32"/>
     <use x="2095.894531" xlink:href="#DejaVuSans-66"/>
     <use x="2164.498047" xlink:href="#DejaVuSans-44"/>
     <use x="2196.285156" xlink:href="#DejaVuSans-32"/>
     <use x="2228.072266" xlink:href="#DejaVuSans-85"/>
     <use x="2301.265625" xlink:href="#DejaVuSans-116"/>
     <use x="2340.474609" xlink:href="#DejaVuSans-105"/>
     <use x="2368.257812" xlink:href="#DejaVuSans-32"/>
     <use x="2400.044922" xlink:href="#DejaVuSans-48"/>
     <use x="2463.667969" xlink:href="#DejaVuSans-46"/>
     <use x="2495.455078" xlink:href="#DejaVuSans-53"/>
    </g>
   </g>
  </g>
 </g>
 <defs>
  <clipPath id="pe722adc630">
   <rect height="265.356" width="413.478" x="66.69" y="90.9792"/>
  </clipPath>
  <clipPath id="p531351b40e">
   <rect height="265.356" width="413.478" x="66.69" y="409.4064"/>
  </clipPath>
 </defs>
</svg>
