<?xml version="1.0" encoding="utf-8" standalone="no"?>
<!DOCTYPE svg PUBLIC "-//W3C//DTD SVG 1.1//EN"
  "http://www.w3.org/Graphics/SVG/1.1/DTD/svg11.dtd">
<!-- Created with matplotlib (https://matplotlib.org/) -->
<svg height="758.16pt" version="1.1" viewBox="0 0 543.6 758.16" width="543.6pt" xmlns="http://www.w3.org/2000/svg" xmlns:xlink="http://www.w3.org/1999/xlink">
 <metadata>
  <rdf:RDF xmlns:cc="http://creativecommons.org/ns#" xmlns:dc="http://purl.org/dc/elements/1.1/" xmlns:rdf="http://www.w3.org/1999/02/22-rdf-syntax-ns#">
   <cc:Work>
    <dc:type rdf:resource="http://purl.org/dc/dcmitype/StillImage"/>
    <dc:date>2021-05-10T23:53:53.976233</dc:date>
    <dc:format>image/svg+xml</dc:format>
    <dc:creator>
     <cc:Agent>
      <dc:title>Matplotlib v3.3.2, https://matplotlib.org/</dc:title>
     </cc:Agent>
    </dc:creator>
   </cc:Work>
  </rdf:RDF>
 </metadata>
 <defs>
  <style type="text/css">*{stroke-linecap:butt;stroke-linejoin:round;}</style>
 </defs>
 <g id="figure_1">
  <g id="patch_1">
   <path d="M 0 758.16 
L 543.6 758.16 
L 543.6 0 
L 0 0 
z
" style="fill:#ffffff;"/>
  </g>
  <g id="axes_1">
   <g id="patch_2">
    <path d="M 67.95 356.3352 
L 489.24 356.3352 
L 489.24 90.9792 
L 67.95 90.9792 
z
" style="fill:#ffffff;"/>
   </g>
   <g id="matplotlib.axis_1">
    <g id="xtick_1">
     <g id="line2d_1">
      <defs>
       <path d="M 0 0 
L 0 3.5 
" id="mce87429018" style="stroke:#000000;stroke-width:0.8;"/>
      </defs>
      <g>
       <use style="stroke:#000000;stroke-width:0.8;" x="67.95" xlink:href="#mce87429018" y="356.3352"/>
      </g>
     </g>
     <g id="text_1">
      <!-- 0 -->
      <g transform="translate(64.76875 370.933637)scale(0.1 -0.1)">
       <defs>
        <path d="M 31.78125 66.40625 
Q 24.171875 66.40625 20.328125 58.90625 
Q 16.5 51.421875 16.5 36.375 
Q 16.5 21.390625 20.328125 13.890625 
Q 24.171875 6.390625 31.78125 6.390625 
Q 39.453125 6.390625 43.28125 13.890625 
Q 47.125 21.390625 47.125 36.375 
Q 47.125 51.421875 43.28125 58.90625 
Q 39.453125 66.40625 31.78125 66.40625 
z
M 31.78125 74.21875 
Q 44.046875 74.21875 50.515625 64.515625 
Q 56.984375 54.828125 56.984375 36.375 
Q 56.984375 17.96875 50.515625 8.265625 
Q 44.046875 -1.421875 31.78125 -1.421875 
Q 19.53125 -1.421875 13.0625 8.265625 
Q 6.59375 17.96875 6.59375 36.375 
Q 6.59375 54.828125 13.0625 64.515625 
Q 19.53125 74.21875 31.78125 74.21875 
z
" id="DejaVuSans-48"/>
       </defs>
       <use xlink:href="#DejaVuSans-48"/>
      </g>
     </g>
    </g>
    <g id="xtick_2">
     <g id="line2d_2">
      <g>
       <use style="stroke:#000000;stroke-width:0.8;" x="88.059308" xlink:href="#mce87429018" y="356.3352"/>
      </g>
     </g>
     <g id="text_2">
      <!-- 1 -->
      <g transform="translate(84.878058 370.933637)scale(0.1 -0.1)">
       <defs>
        <path d="M 12.40625 8.296875 
L 28.515625 8.296875 
L 28.515625 63.921875 
L 10.984375 60.40625 
L 10.984375 69.390625 
L 28.421875 72.90625 
L 38.28125 72.90625 
L 38.28125 8.296875 
L 54.390625 8.296875 
L 54.390625 0 
L 12.40625 0 
z
" id="DejaVuSans-49"/>
       </defs>
       <use xlink:href="#DejaVuSans-49"/>
      </g>
     </g>
    </g>
    <g id="xtick_3">
     <g id="line2d_3">
      <g>
       <use style="stroke:#000000;stroke-width:0.8;" x="108.168616" xlink:href="#mce87429018" y="356.3352"/>
      </g>
     </g>
     <g id="text_3">
      <!-- 2 -->
      <g transform="translate(104.987366 370.933637)scale(0.1 -0.1)">
       <defs>
        <path d="M 19.1875 8.296875 
L 53.609375 8.296875 
L 53.609375 0 
L 7.328125 0 
L 7.328125 8.296875 
Q 12.9375 14.109375 22.625 23.890625 
Q 32.328125 33.6875 34.8125 36.53125 
Q 39.546875 41.84375 41.421875 45.53125 
Q 43.3125 49.21875 43.3125 52.78125 
Q 43.3125 58.59375 39.234375 62.25 
Q 35.15625 65.921875 28.609375 65.921875 
Q 23.96875 65.921875 18.8125 64.3125 
Q 13.671875 62.703125 7.8125 59.421875 
L 7.8125 69.390625 
Q 13.765625 71.78125 18.9375 73 
Q 24.125 74.21875 28.421875 74.21875 
Q 39.75 74.21875 46.484375 68.546875 
Q 53.21875 62.890625 53.21875 53.421875 
Q 53.21875 48.921875 51.53125 44.890625 
Q 49.859375 40.875 45.40625 35.40625 
Q 44.1875 33.984375 37.640625 27.21875 
Q 31.109375 20.453125 19.1875 8.296875 
z
" id="DejaVuSans-50"/>
       </defs>
       <use xlink:href="#DejaVuSans-50"/>
      </g>
     </g>
    </g>
    <g id="xtick_4">
     <g id="line2d_4">
      <g>
       <use style="stroke:#000000;stroke-width:0.8;" x="128.277924" xlink:href="#mce87429018" y="356.3352"/>
      </g>
     </g>
     <g id="text_4">
      <!-- 3 -->
      <g transform="translate(125.096674 370.933637)scale(0.1 -0.1)">
       <defs>
        <path d="M 40.578125 39.3125 
Q 47.65625 37.796875 51.625 33 
Q 55.609375 28.21875 55.609375 21.1875 
Q 55.609375 10.40625 48.1875 4.484375 
Q 40.765625 -1.421875 27.09375 -1.421875 
Q 22.515625 -1.421875 17.65625 -0.515625 
Q 12.796875 0.390625 7.625 2.203125 
L 7.625 11.71875 
Q 11.71875 9.328125 16.59375 8.109375 
Q 21.484375 6.890625 26.8125 6.890625 
Q 36.078125 6.890625 40.9375 10.546875 
Q 45.796875 14.203125 45.796875 21.1875 
Q 45.796875 27.640625 41.28125 31.265625 
Q 36.765625 34.90625 28.71875 34.90625 
L 20.21875 34.90625 
L 20.21875 43.015625 
L 29.109375 43.015625 
Q 36.375 43.015625 40.234375 45.921875 
Q 44.09375 48.828125 44.09375 54.296875 
Q 44.09375 59.90625 40.109375 62.90625 
Q 36.140625 65.921875 28.71875 65.921875 
Q 24.65625 65.921875 20.015625 65.03125 
Q 15.375 64.15625 9.8125 62.3125 
L 9.8125 71.09375 
Q 15.4375 72.65625 20.34375 73.4375 
Q 25.25 74.21875 29.59375 74.21875 
Q 40.828125 74.21875 47.359375 69.109375 
Q 53.90625 64.015625 53.90625 55.328125 
Q 53.90625 49.265625 50.4375 45.09375 
Q 46.96875 40.921875 40.578125 39.3125 
z
" id="DejaVuSans-51"/>
       </defs>
       <use xlink:href="#DejaVuSans-51"/>
      </g>
     </g>
    </g>
    <g id="xtick_5">
     <g id="line2d_5">
      <g>
       <use style="stroke:#000000;stroke-width:0.8;" x="148.387232" xlink:href="#mce87429018" y="356.3352"/>
      </g>
     </g>
     <g id="text_5">
      <!-- 4 -->
      <g transform="translate(145.205982 370.933637)scale(0.1 -0.1)">
       <defs>
        <path d="M 37.796875 64.3125 
L 12.890625 25.390625 
L 37.796875 25.390625 
z
M 35.203125 72.90625 
L 47.609375 72.90625 
L 47.609375 25.390625 
L 58.015625 25.390625 
L 58.015625 17.1875 
L 47.609375 17.1875 
L 47.609375 0 
L 37.796875 0 
L 37.796875 17.1875 
L 4.890625 17.1875 
L 4.890625 26.703125 
z
" id="DejaVuSans-52"/>
       </defs>
       <use xlink:href="#DejaVuSans-52"/>
      </g>
     </g>
    </g>
    <g id="xtick_6">
     <g id="line2d_6">
      <g>
       <use style="stroke:#000000;stroke-width:0.8;" x="168.496539" xlink:href="#mce87429018" y="356.3352"/>
      </g>
     </g>
     <g id="text_6">
      <!-- 5 -->
      <g transform="translate(165.315289 370.933637)scale(0.1 -0.1)">
       <defs>
        <path d="M 10.796875 72.90625 
L 49.515625 72.90625 
L 49.515625 64.59375 
L 19.828125 64.59375 
L 19.828125 46.734375 
Q 21.96875 47.46875 24.109375 47.828125 
Q 26.265625 48.1875 28.421875 48.1875 
Q 40.625 48.1875 47.75 41.5 
Q 54.890625 34.8125 54.890625 23.390625 
Q 54.890625 11.625 47.5625 5.09375 
Q 40.234375 -1.421875 26.90625 -1.421875 
Q 22.3125 -1.421875 17.546875 -0.640625 
Q 12.796875 0.140625 7.71875 1.703125 
L 7.71875 11.625 
Q 12.109375 9.234375 16.796875 8.0625 
Q 21.484375 6.890625 26.703125 6.890625 
Q 35.15625 6.890625 40.078125 11.328125 
Q 45.015625 15.765625 45.015625 23.390625 
Q 45.015625 31 40.078125 35.4375 
Q 35.15625 39.890625 26.703125 39.890625 
Q 22.75 39.890625 18.8125 39.015625 
Q 14.890625 38.140625 10.796875 36.28125 
z
" id="DejaVuSans-53"/>
       </defs>
       <use xlink:href="#DejaVuSans-53"/>
      </g>
     </g>
    </g>
    <g id="xtick_7">
     <g id="line2d_7">
      <g>
       <use style="stroke:#000000;stroke-width:0.8;" x="188.605847" xlink:href="#mce87429018" y="356.3352"/>
      </g>
     </g>
     <g id="text_7">
      <!-- 6 -->
      <g transform="translate(185.424597 370.933637)scale(0.1 -0.1)">
       <defs>
        <path d="M 33.015625 40.375 
Q 26.375 40.375 22.484375 35.828125 
Q 18.609375 31.296875 18.609375 23.390625 
Q 18.609375 15.53125 22.484375 10.953125 
Q 26.375 6.390625 33.015625 6.390625 
Q 39.65625 6.390625 43.53125 10.953125 
Q 47.40625 15.53125 47.40625 23.390625 
Q 47.40625 31.296875 43.53125 35.828125 
Q 39.65625 40.375 33.015625 40.375 
z
M 52.59375 71.296875 
L 52.59375 62.3125 
Q 48.875 64.0625 45.09375 64.984375 
Q 41.3125 65.921875 37.59375 65.921875 
Q 27.828125 65.921875 22.671875 59.328125 
Q 17.53125 52.734375 16.796875 39.40625 
Q 19.671875 43.65625 24.015625 45.921875 
Q 28.375 48.1875 33.59375 48.1875 
Q 44.578125 48.1875 50.953125 41.515625 
Q 57.328125 34.859375 57.328125 23.390625 
Q 57.328125 12.15625 50.6875 5.359375 
Q 44.046875 -1.421875 33.015625 -1.421875 
Q 20.359375 -1.421875 13.671875 8.265625 
Q 6.984375 17.96875 6.984375 36.375 
Q 6.984375 53.65625 15.1875 63.9375 
Q 23.390625 74.21875 37.203125 74.21875 
Q 40.921875 74.21875 44.703125 73.484375 
Q 48.484375 72.75 52.59375 71.296875 
z
" id="DejaVuSans-54"/>
       </defs>
       <use xlink:href="#DejaVuSans-54"/>
      </g>
     </g>
    </g>
    <g id="xtick_8">
     <g id="line2d_8">
      <g>
       <use style="stroke:#000000;stroke-width:0.8;" x="208.715155" xlink:href="#mce87429018" y="356.3352"/>
      </g>
     </g>
     <g id="text_8">
      <!-- 7 -->
      <g transform="translate(205.533905 370.933637)scale(0.1 -0.1)">
       <defs>
        <path d="M 8.203125 72.90625 
L 55.078125 72.90625 
L 55.078125 68.703125 
L 28.609375 0 
L 18.3125 0 
L 43.21875 64.59375 
L 8.203125 64.59375 
z
" id="DejaVuSans-55"/>
       </defs>
       <use xlink:href="#DejaVuSans-55"/>
      </g>
     </g>
    </g>
    <g id="xtick_9">
     <g id="line2d_9">
      <g>
       <use style="stroke:#000000;stroke-width:0.8;" x="228.824463" xlink:href="#mce87429018" y="356.3352"/>
      </g>
     </g>
     <g id="text_9">
      <!-- 8 -->
      <g transform="translate(225.643213 370.933637)scale(0.1 -0.1)">
       <defs>
        <path d="M 31.78125 34.625 
Q 24.75 34.625 20.71875 30.859375 
Q 16.703125 27.09375 16.703125 20.515625 
Q 16.703125 13.921875 20.71875 10.15625 
Q 24.75 6.390625 31.78125 6.390625 
Q 38.8125 6.390625 42.859375 10.171875 
Q 46.921875 13.96875 46.921875 20.515625 
Q 46.921875 27.09375 42.890625 30.859375 
Q 38.875 34.625 31.78125 34.625 
z
M 21.921875 38.8125 
Q 15.578125 40.375 12.03125 44.71875 
Q 8.5 49.078125 8.5 55.328125 
Q 8.5 64.0625 14.71875 69.140625 
Q 20.953125 74.21875 31.78125 74.21875 
Q 42.671875 74.21875 48.875 69.140625 
Q 55.078125 64.0625 55.078125 55.328125 
Q 55.078125 49.078125 51.53125 44.71875 
Q 48 40.375 41.703125 38.8125 
Q 48.828125 37.15625 52.796875 32.3125 
Q 56.78125 27.484375 56.78125 20.515625 
Q 56.78125 9.90625 50.3125 4.234375 
Q 43.84375 -1.421875 31.78125 -1.421875 
Q 19.734375 -1.421875 13.25 4.234375 
Q 6.78125 9.90625 6.78125 20.515625 
Q 6.78125 27.484375 10.78125 32.3125 
Q 14.796875 37.15625 21.921875 38.8125 
z
M 18.3125 54.390625 
Q 18.3125 48.734375 21.84375 45.5625 
Q 25.390625 42.390625 31.78125 42.390625 
Q 38.140625 42.390625 41.71875 45.5625 
Q 45.3125 48.734375 45.3125 54.390625 
Q 45.3125 60.0625 41.71875 63.234375 
Q 38.140625 66.40625 31.78125 66.40625 
Q 25.390625 66.40625 21.84375 63.234375 
Q 18.3125 60.0625 18.3125 54.390625 
z
" id="DejaVuSans-56"/>
       </defs>
       <use xlink:href="#DejaVuSans-56"/>
      </g>
     </g>
    </g>
    <g id="xtick_10">
     <g id="line2d_10">
      <g>
       <use style="stroke:#000000;stroke-width:0.8;" x="248.933771" xlink:href="#mce87429018" y="356.3352"/>
      </g>
     </g>
     <g id="text_10">
      <!-- 9 -->
      <g transform="translate(245.752521 370.933637)scale(0.1 -0.1)">
       <defs>
        <path d="M 10.984375 1.515625 
L 10.984375 10.5 
Q 14.703125 8.734375 18.5 7.8125 
Q 22.3125 6.890625 25.984375 6.890625 
Q 35.75 6.890625 40.890625 13.453125 
Q 46.046875 20.015625 46.78125 33.40625 
Q 43.953125 29.203125 39.59375 26.953125 
Q 35.25 24.703125 29.984375 24.703125 
Q 19.046875 24.703125 12.671875 31.3125 
Q 6.296875 37.9375 6.296875 49.421875 
Q 6.296875 60.640625 12.9375 67.421875 
Q 19.578125 74.21875 30.609375 74.21875 
Q 43.265625 74.21875 49.921875 64.515625 
Q 56.59375 54.828125 56.59375 36.375 
Q 56.59375 19.140625 48.40625 8.859375 
Q 40.234375 -1.421875 26.421875 -1.421875 
Q 22.703125 -1.421875 18.890625 -0.6875 
Q 15.09375 0.046875 10.984375 1.515625 
z
M 30.609375 32.421875 
Q 37.25 32.421875 41.125 36.953125 
Q 45.015625 41.5 45.015625 49.421875 
Q 45.015625 57.28125 41.125 61.84375 
Q 37.25 66.40625 30.609375 66.40625 
Q 23.96875 66.40625 20.09375 61.84375 
Q 16.21875 57.28125 16.21875 49.421875 
Q 16.21875 41.5 20.09375 36.953125 
Q 23.96875 32.421875 30.609375 32.421875 
z
" id="DejaVuSans-57"/>
       </defs>
       <use xlink:href="#DejaVuSans-57"/>
      </g>
     </g>
    </g>
    <g id="xtick_11">
     <g id="line2d_11">
      <g>
       <use style="stroke:#000000;stroke-width:0.8;" x="269.043079" xlink:href="#mce87429018" y="356.3352"/>
      </g>
     </g>
     <g id="text_11">
      <!-- 10 -->
      <g transform="translate(262.680579 370.933637)scale(0.1 -0.1)">
       <use xlink:href="#DejaVuSans-49"/>
       <use x="63.623047" xlink:href="#DejaVuSans-48"/>
      </g>
     </g>
    </g>
    <g id="xtick_12">
     <g id="line2d_12">
      <g>
       <use style="stroke:#000000;stroke-width:0.8;" x="289.152387" xlink:href="#mce87429018" y="356.3352"/>
      </g>
     </g>
     <g id="text_12">
      <!-- 11 -->
      <g transform="translate(282.789887 370.933637)scale(0.1 -0.1)">
       <use xlink:href="#DejaVuSans-49"/>
       <use x="63.623047" xlink:href="#DejaVuSans-49"/>
      </g>
     </g>
    </g>
    <g id="xtick_13">
     <g id="line2d_13">
      <g>
       <use style="stroke:#000000;stroke-width:0.8;" x="309.261695" xlink:href="#mce87429018" y="356.3352"/>
      </g>
     </g>
     <g id="text_13">
      <!-- 12 -->
      <g transform="translate(302.899195 370.933637)scale(0.1 -0.1)">
       <use xlink:href="#DejaVuSans-49"/>
       <use x="63.623047" xlink:href="#DejaVuSans-50"/>
      </g>
     </g>
    </g>
    <g id="xtick_14">
     <g id="line2d_14">
      <g>
       <use style="stroke:#000000;stroke-width:0.8;" x="329.371002" xlink:href="#mce87429018" y="356.3352"/>
      </g>
     </g>
     <g id="text_14">
      <!-- 13 -->
      <g transform="translate(323.008502 370.933637)scale(0.1 -0.1)">
       <use xlink:href="#DejaVuSans-49"/>
       <use x="63.623047" xlink:href="#DejaVuSans-51"/>
      </g>
     </g>
    </g>
    <g id="xtick_15">
     <g id="line2d_15">
      <g>
       <use style="stroke:#000000;stroke-width:0.8;" x="349.48031" xlink:href="#mce87429018" y="356.3352"/>
      </g>
     </g>
     <g id="text_15">
      <!-- 14 -->
      <g transform="translate(343.11781 370.933637)scale(0.1 -0.1)">
       <use xlink:href="#DejaVuSans-49"/>
       <use x="63.623047" xlink:href="#DejaVuSans-52"/>
      </g>
     </g>
    </g>
    <g id="xtick_16">
     <g id="line2d_16">
      <g>
       <use style="stroke:#000000;stroke-width:0.8;" x="369.589618" xlink:href="#mce87429018" y="356.3352"/>
      </g>
     </g>
     <g id="text_16">
      <!-- 15 -->
      <g transform="translate(363.227118 370.933637)scale(0.1 -0.1)">
       <use xlink:href="#DejaVuSans-49"/>
       <use x="63.623047" xlink:href="#DejaVuSans-53"/>
      </g>
     </g>
    </g>
    <g id="xtick_17">
     <g id="line2d_17">
      <g>
       <use style="stroke:#000000;stroke-width:0.8;" x="389.698926" xlink:href="#mce87429018" y="356.3352"/>
      </g>
     </g>
     <g id="text_17">
      <!-- 16 -->
      <g transform="translate(383.336426 370.933637)scale(0.1 -0.1)">
       <use xlink:href="#DejaVuSans-49"/>
       <use x="63.623047" xlink:href="#DejaVuSans-54"/>
      </g>
     </g>
    </g>
    <g id="xtick_18">
     <g id="line2d_18">
      <g>
       <use style="stroke:#000000;stroke-width:0.8;" x="409.808234" xlink:href="#mce87429018" y="356.3352"/>
      </g>
     </g>
     <g id="text_18">
      <!-- 17 -->
      <g transform="translate(403.445734 370.933637)scale(0.1 -0.1)">
       <use xlink:href="#DejaVuSans-49"/>
       <use x="63.623047" xlink:href="#DejaVuSans-55"/>
      </g>
     </g>
    </g>
    <g id="xtick_19">
     <g id="line2d_19">
      <g>
       <use style="stroke:#000000;stroke-width:0.8;" x="429.917542" xlink:href="#mce87429018" y="356.3352"/>
      </g>
     </g>
     <g id="text_19">
      <!-- 18 -->
      <g transform="translate(423.555042 370.933637)scale(0.1 -0.1)">
       <use xlink:href="#DejaVuSans-49"/>
       <use x="63.623047" xlink:href="#DejaVuSans-56"/>
      </g>
     </g>
    </g>
    <g id="xtick_20">
     <g id="line2d_20">
      <g>
       <use style="stroke:#000000;stroke-width:0.8;" x="450.02685" xlink:href="#mce87429018" y="356.3352"/>
      </g>
     </g>
     <g id="text_20">
      <!-- 19 -->
      <g transform="translate(443.66435 370.933637)scale(0.1 -0.1)">
       <use xlink:href="#DejaVuSans-49"/>
       <use x="63.623047" xlink:href="#DejaVuSans-57"/>
      </g>
     </g>
    </g>
    <g id="xtick_21">
     <g id="line2d_21">
      <g>
       <use style="stroke:#000000;stroke-width:0.8;" x="470.136158" xlink:href="#mce87429018" y="356.3352"/>
      </g>
     </g>
     <g id="text_21">
      <!-- 20 -->
      <g transform="translate(463.773658 370.933637)scale(0.1 -0.1)">
       <use xlink:href="#DejaVuSans-50"/>
       <use x="63.623047" xlink:href="#DejaVuSans-48"/>
      </g>
     </g>
    </g>
    <g id="text_22">
     <!-- frame index -->
     <g transform="translate(242.479688 386.13145)scale(0.12 -0.12)">
      <defs>
       <path d="M 37.109375 75.984375 
L 37.109375 68.5 
L 28.515625 68.5 
Q 23.6875 68.5 21.796875 66.546875 
Q 19.921875 64.59375 19.921875 59.515625 
L 19.921875 54.6875 
L 34.71875 54.6875 
L 34.71875 47.703125 
L 19.921875 47.703125 
L 19.921875 0 
L 10.890625 0 
L 10.890625 47.703125 
L 2.296875 47.703125 
L 2.296875 54.6875 
L 10.890625 54.6875 
L 10.890625 58.5 
Q 10.890625 67.625 15.140625 71.796875 
Q 19.390625 75.984375 28.609375 75.984375 
z
" id="DejaVuSans-102"/>
       <path d="M 41.109375 46.296875 
Q 39.59375 47.171875 37.8125 47.578125 
Q 36.03125 48 33.890625 48 
Q 26.265625 48 22.1875 43.046875 
Q 18.109375 38.09375 18.109375 28.8125 
L 18.109375 0 
L 9.078125 0 
L 9.078125 54.6875 
L 18.109375 54.6875 
L 18.109375 46.1875 
Q 20.953125 51.171875 25.484375 53.578125 
Q 30.03125 56 36.53125 56 
Q 37.453125 56 38.578125 55.875 
Q 39.703125 55.765625 41.0625 55.515625 
z
" id="DejaVuSans-114"/>
       <path d="M 34.28125 27.484375 
Q 23.390625 27.484375 19.1875 25 
Q 14.984375 22.515625 14.984375 16.5 
Q 14.984375 11.71875 18.140625 8.90625 
Q 21.296875 6.109375 26.703125 6.109375 
Q 34.1875 6.109375 38.703125 11.40625 
Q 43.21875 16.703125 43.21875 25.484375 
L 43.21875 27.484375 
z
M 52.203125 31.203125 
L 52.203125 0 
L 43.21875 0 
L 43.21875 8.296875 
Q 40.140625 3.328125 35.546875 0.953125 
Q 30.953125 -1.421875 24.3125 -1.421875 
Q 15.921875 -1.421875 10.953125 3.296875 
Q 6 8.015625 6 15.921875 
Q 6 25.140625 12.171875 29.828125 
Q 18.359375 34.515625 30.609375 34.515625 
L 43.21875 34.515625 
L 43.21875 35.40625 
Q 43.21875 41.609375 39.140625 45 
Q 35.0625 48.390625 27.6875 48.390625 
Q 23 48.390625 18.546875 47.265625 
Q 14.109375 46.140625 10.015625 43.890625 
L 10.015625 52.203125 
Q 14.9375 54.109375 19.578125 55.046875 
Q 24.21875 56 28.609375 56 
Q 40.484375 56 46.34375 49.84375 
Q 52.203125 43.703125 52.203125 31.203125 
z
" id="DejaVuSans-97"/>
       <path d="M 52 44.1875 
Q 55.375 50.25 60.0625 53.125 
Q 64.75 56 71.09375 56 
Q 79.640625 56 84.28125 50.015625 
Q 88.921875 44.046875 88.921875 33.015625 
L 88.921875 0 
L 79.890625 0 
L 79.890625 32.71875 
Q 79.890625 40.578125 77.09375 44.375 
Q 74.3125 48.1875 68.609375 48.1875 
Q 61.625 48.1875 57.5625 43.546875 
Q 53.515625 38.921875 53.515625 30.90625 
L 53.515625 0 
L 44.484375 0 
L 44.484375 32.71875 
Q 44.484375 40.625 41.703125 44.40625 
Q 38.921875 48.1875 33.109375 48.1875 
Q 26.21875 48.1875 22.15625 43.53125 
Q 18.109375 38.875 18.109375 30.90625 
L 18.109375 0 
L 9.078125 0 
L 9.078125 54.6875 
L 18.109375 54.6875 
L 18.109375 46.1875 
Q 21.1875 51.21875 25.484375 53.609375 
Q 29.78125 56 35.6875 56 
Q 41.65625 56 45.828125 52.96875 
Q 50 49.953125 52 44.1875 
z
" id="DejaVuSans-109"/>
       <path d="M 56.203125 29.59375 
L 56.203125 25.203125 
L 14.890625 25.203125 
Q 15.484375 15.921875 20.484375 11.0625 
Q 25.484375 6.203125 34.421875 6.203125 
Q 39.59375 6.203125 44.453125 7.46875 
Q 49.3125 8.734375 54.109375 11.28125 
L 54.109375 2.78125 
Q 49.265625 0.734375 44.1875 -0.34375 
Q 39.109375 -1.421875 33.890625 -1.421875 
Q 20.796875 -1.421875 13.15625 6.1875 
Q 5.515625 13.8125 5.515625 26.8125 
Q 5.515625 40.234375 12.765625 48.109375 
Q 20.015625 56 32.328125 56 
Q 43.359375 56 49.78125 48.890625 
Q 56.203125 41.796875 56.203125 29.59375 
z
M 47.21875 32.234375 
Q 47.125 39.59375 43.09375 43.984375 
Q 39.0625 48.390625 32.421875 48.390625 
Q 24.90625 48.390625 20.390625 44.140625 
Q 15.875 39.890625 15.1875 32.171875 
z
" id="DejaVuSans-101"/>
       <path id="DejaVuSans-32"/>
       <path d="M 9.421875 54.6875 
L 18.40625 54.6875 
L 18.40625 0 
L 9.421875 0 
z
M 9.421875 75.984375 
L 18.40625 75.984375 
L 18.40625 64.59375 
L 9.421875 64.59375 
z
" id="DejaVuSans-105"/>
       <path d="M 54.890625 33.015625 
L 54.890625 0 
L 45.90625 0 
L 45.90625 32.71875 
Q 45.90625 40.484375 42.875 44.328125 
Q 39.84375 48.1875 33.796875 48.1875 
Q 26.515625 48.1875 22.3125 43.546875 
Q 18.109375 38.921875 18.109375 30.90625 
L 18.109375 0 
L 9.078125 0 
L 9.078125 54.6875 
L 18.109375 54.6875 
L 18.109375 46.1875 
Q 21.34375 51.125 25.703125 53.5625 
Q 30.078125 56 35.796875 56 
Q 45.21875 56 50.046875 50.171875 
Q 54.890625 44.34375 54.890625 33.015625 
z
" id="DejaVuSans-110"/>
       <path d="M 45.40625 46.390625 
L 45.40625 75.984375 
L 54.390625 75.984375 
L 54.390625 0 
L 45.40625 0 
L 45.40625 8.203125 
Q 42.578125 3.328125 38.25 0.953125 
Q 33.9375 -1.421875 27.875 -1.421875 
Q 17.96875 -1.421875 11.734375 6.484375 
Q 5.515625 14.40625 5.515625 27.296875 
Q 5.515625 40.1875 11.734375 48.09375 
Q 17.96875 56 27.875 56 
Q 33.9375 56 38.25 53.625 
Q 42.578125 51.265625 45.40625 46.390625 
z
M 14.796875 27.296875 
Q 14.796875 17.390625 18.875 11.75 
Q 22.953125 6.109375 30.078125 6.109375 
Q 37.203125 6.109375 41.296875 11.75 
Q 45.40625 17.390625 45.40625 27.296875 
Q 45.40625 37.203125 41.296875 42.84375 
Q 37.203125 48.484375 30.078125 48.484375 
Q 22.953125 48.484375 18.875 42.84375 
Q 14.796875 37.203125 14.796875 27.296875 
z
" id="DejaVuSans-100"/>
       <path d="M 54.890625 54.6875 
L 35.109375 28.078125 
L 55.90625 0 
L 45.3125 0 
L 29.390625 21.484375 
L 13.484375 0 
L 2.875 0 
L 24.125 28.609375 
L 4.6875 54.6875 
L 15.28125 54.6875 
L 29.78125 35.203125 
L 44.28125 54.6875 
z
" id="DejaVuSans-120"/>
      </defs>
      <use xlink:href="#DejaVuSans-102"/>
      <use x="35.205078" xlink:href="#DejaVuSans-114"/>
      <use x="76.318359" xlink:href="#DejaVuSans-97"/>
      <use x="137.597656" xlink:href="#DejaVuSans-109"/>
      <use x="235.009766" xlink:href="#DejaVuSans-101"/>
      <use x="296.533203" xlink:href="#DejaVuSans-32"/>
      <use x="328.320312" xlink:href="#DejaVuSans-105"/>
      <use x="356.103516" xlink:href="#DejaVuSans-110"/>
      <use x="419.482422" xlink:href="#DejaVuSans-100"/>
      <use x="482.958984" xlink:href="#DejaVuSans-101"/>
      <use x="542.732422" xlink:href="#DejaVuSans-120"/>
     </g>
    </g>
   </g>
   <g id="matplotlib.axis_2">
    <g id="ytick_1">
     <g id="line2d_22">
      <defs>
       <path d="M 0 0 
L -3.5 0 
" id="m321feaf57c" style="stroke:#000000;stroke-width:0.8;"/>
      </defs>
      <g>
       <use style="stroke:#000000;stroke-width:0.8;" x="67.95" xlink:href="#m321feaf57c" y="336.813679"/>
      </g>
     </g>
     <g id="text_23">
      <!-- 400 -->
      <g transform="translate(41.8625 340.612897)scale(0.1 -0.1)">
       <use xlink:href="#DejaVuSans-52"/>
       <use x="63.623047" xlink:href="#DejaVuSans-48"/>
       <use x="127.246094" xlink:href="#DejaVuSans-48"/>
      </g>
     </g>
    </g>
    <g id="ytick_2">
     <g id="line2d_23">
      <g>
       <use style="stroke:#000000;stroke-width:0.8;" x="67.95" xlink:href="#m321feaf57c" y="307.033699"/>
      </g>
     </g>
     <g id="text_24">
      <!-- 600 -->
      <g transform="translate(41.8625 310.832918)scale(0.1 -0.1)">
       <use xlink:href="#DejaVuSans-54"/>
       <use x="63.623047" xlink:href="#DejaVuSans-48"/>
       <use x="127.246094" xlink:href="#DejaVuSans-48"/>
      </g>
     </g>
    </g>
    <g id="ytick_3">
     <g id="line2d_24">
      <g>
       <use style="stroke:#000000;stroke-width:0.8;" x="67.95" xlink:href="#m321feaf57c" y="277.253719"/>
      </g>
     </g>
     <g id="text_25">
      <!-- 800 -->
      <g transform="translate(41.8625 281.052938)scale(0.1 -0.1)">
       <use xlink:href="#DejaVuSans-56"/>
       <use x="63.623047" xlink:href="#DejaVuSans-48"/>
       <use x="127.246094" xlink:href="#DejaVuSans-48"/>
      </g>
     </g>
    </g>
    <g id="ytick_4">
     <g id="line2d_25">
      <g>
       <use style="stroke:#000000;stroke-width:0.8;" x="67.95" xlink:href="#m321feaf57c" y="247.473739"/>
      </g>
     </g>
     <g id="text_26">
      <!-- 1000 -->
      <g transform="translate(35.5 251.272958)scale(0.1 -0.1)">
       <use xlink:href="#DejaVuSans-49"/>
       <use x="63.623047" xlink:href="#DejaVuSans-48"/>
       <use x="127.246094" xlink:href="#DejaVuSans-48"/>
       <use x="190.869141" xlink:href="#DejaVuSans-48"/>
      </g>
     </g>
    </g>
    <g id="ytick_5">
     <g id="line2d_26">
      <g>
       <use style="stroke:#000000;stroke-width:0.8;" x="67.95" xlink:href="#m321feaf57c" y="217.693759"/>
      </g>
     </g>
     <g id="text_27">
      <!-- 1200 -->
      <g transform="translate(35.5 221.492978)scale(0.1 -0.1)">
       <use xlink:href="#DejaVuSans-49"/>
       <use x="63.623047" xlink:href="#DejaVuSans-50"/>
       <use x="127.246094" xlink:href="#DejaVuSans-48"/>
       <use x="190.869141" xlink:href="#DejaVuSans-48"/>
      </g>
     </g>
    </g>
    <g id="ytick_6">
     <g id="line2d_27">
      <g>
       <use style="stroke:#000000;stroke-width:0.8;" x="67.95" xlink:href="#m321feaf57c" y="187.913779"/>
      </g>
     </g>
     <g id="text_28">
      <!-- 1400 -->
      <g transform="translate(35.5 191.712998)scale(0.1 -0.1)">
       <use xlink:href="#DejaVuSans-49"/>
       <use x="63.623047" xlink:href="#DejaVuSans-52"/>
       <use x="127.246094" xlink:href="#DejaVuSans-48"/>
       <use x="190.869141" xlink:href="#DejaVuSans-48"/>
      </g>
     </g>
    </g>
    <g id="ytick_7">
     <g id="line2d_28">
      <g>
       <use style="stroke:#000000;stroke-width:0.8;" x="67.95" xlink:href="#m321feaf57c" y="158.133799"/>
      </g>
     </g>
     <g id="text_29">
      <!-- 1600 -->
      <g transform="translate(35.5 161.933018)scale(0.1 -0.1)">
       <use xlink:href="#DejaVuSans-49"/>
       <use x="63.623047" xlink:href="#DejaVuSans-54"/>
       <use x="127.246094" xlink:href="#DejaVuSans-48"/>
       <use x="190.869141" xlink:href="#DejaVuSans-48"/>
      </g>
     </g>
    </g>
    <g id="ytick_8">
     <g id="line2d_29">
      <g>
       <use style="stroke:#000000;stroke-width:0.8;" x="67.95" xlink:href="#m321feaf57c" y="128.353819"/>
      </g>
     </g>
     <g id="text_30">
      <!-- 1800 -->
      <g transform="translate(35.5 132.153038)scale(0.1 -0.1)">
       <use xlink:href="#DejaVuSans-49"/>
       <use x="63.623047" xlink:href="#DejaVuSans-56"/>
       <use x="127.246094" xlink:href="#DejaVuSans-48"/>
       <use x="190.869141" xlink:href="#DejaVuSans-48"/>
      </g>
     </g>
    </g>
    <g id="ytick_9">
     <g id="line2d_30">
      <g>
       <use style="stroke:#000000;stroke-width:0.8;" x="67.95" xlink:href="#m321feaf57c" y="98.573839"/>
      </g>
     </g>
     <g id="text_31">
      <!-- 2000 -->
      <g transform="translate(35.5 102.373058)scale(0.1 -0.1)">
       <use xlink:href="#DejaVuSans-50"/>
       <use x="63.623047" xlink:href="#DejaVuSans-48"/>
       <use x="127.246094" xlink:href="#DejaVuSans-48"/>
       <use x="190.869141" xlink:href="#DejaVuSans-48"/>
      </g>
     </g>
    </g>
    <g id="text_32">
     <!-- finish time -->
     <g transform="translate(29.004375 255.29595)rotate(-90)scale(0.12 -0.12)">
      <defs>
       <path d="M 44.28125 53.078125 
L 44.28125 44.578125 
Q 40.484375 46.53125 36.375 47.5 
Q 32.28125 48.484375 27.875 48.484375 
Q 21.1875 48.484375 17.84375 46.4375 
Q 14.5 44.390625 14.5 40.28125 
Q 14.5 37.15625 16.890625 35.375 
Q 19.28125 33.59375 26.515625 31.984375 
L 29.59375 31.296875 
Q 39.15625 29.25 43.1875 25.515625 
Q 47.21875 21.78125 47.21875 15.09375 
Q 47.21875 7.46875 41.1875 3.015625 
Q 35.15625 -1.421875 24.609375 -1.421875 
Q 20.21875 -1.421875 15.453125 -0.5625 
Q 10.6875 0.296875 5.421875 2 
L 5.421875 11.28125 
Q 10.40625 8.6875 15.234375 7.390625 
Q 20.0625 6.109375 24.8125 6.109375 
Q 31.15625 6.109375 34.5625 8.28125 
Q 37.984375 10.453125 37.984375 14.40625 
Q 37.984375 18.0625 35.515625 20.015625 
Q 33.0625 21.96875 24.703125 23.78125 
L 21.578125 24.515625 
Q 13.234375 26.265625 9.515625 29.90625 
Q 5.8125 33.546875 5.8125 39.890625 
Q 5.8125 47.609375 11.28125 51.796875 
Q 16.75 56 26.8125 56 
Q 31.78125 56 36.171875 55.265625 
Q 40.578125 54.546875 44.28125 53.078125 
z
" id="DejaVuSans-115"/>
       <path d="M 54.890625 33.015625 
L 54.890625 0 
L 45.90625 0 
L 45.90625 32.71875 
Q 45.90625 40.484375 42.875 44.328125 
Q 39.84375 48.1875 33.796875 48.1875 
Q 26.515625 48.1875 22.3125 43.546875 
Q 18.109375 38.921875 18.109375 30.90625 
L 18.109375 0 
L 9.078125 0 
L 9.078125 75.984375 
L 18.109375 75.984375 
L 18.109375 46.1875 
Q 21.34375 51.125 25.703125 53.5625 
Q 30.078125 56 35.796875 56 
Q 45.21875 56 50.046875 50.171875 
Q 54.890625 44.34375 54.890625 33.015625 
z
" id="DejaVuSans-104"/>
       <path d="M 18.3125 70.21875 
L 18.3125 54.6875 
L 36.8125 54.6875 
L 36.8125 47.703125 
L 18.3125 47.703125 
L 18.3125 18.015625 
Q 18.3125 11.328125 20.140625 9.421875 
Q 21.96875 7.515625 27.59375 7.515625 
L 36.8125 7.515625 
L 36.8125 0 
L 27.59375 0 
Q 17.1875 0 13.234375 3.875 
Q 9.28125 7.765625 9.28125 18.015625 
L 9.28125 47.703125 
L 2.6875 47.703125 
L 2.6875 54.6875 
L 9.28125 54.6875 
L 9.28125 70.21875 
z
" id="DejaVuSans-116"/>
      </defs>
      <use xlink:href="#DejaVuSans-102"/>
      <use x="35.205078" xlink:href="#DejaVuSans-105"/>
      <use x="62.988281" xlink:href="#DejaVuSans-110"/>
      <use x="126.367188" xlink:href="#DejaVuSans-105"/>
      <use x="154.150391" xlink:href="#DejaVuSans-115"/>
      <use x="206.25" xlink:href="#DejaVuSans-104"/>
      <use x="269.628906" xlink:href="#DejaVuSans-32"/>
      <use x="301.416016" xlink:href="#DejaVuSans-116"/>
      <use x="340.625" xlink:href="#DejaVuSans-105"/>
      <use x="368.408203" xlink:href="#DejaVuSans-109"/>
      <use x="465.820312" xlink:href="#DejaVuSans-101"/>
     </g>
    </g>
   </g>
   <g id="line2d_31">
    <path clip-path="url(#pfe5f22b368)" d="M 88.059308 344.273564 
L 108.168616 342.040065 
L 128.277924 336.530769 
L 148.387232 325.199487 
L 168.496539 315.625223 
L 188.605847 311.351796 
L 208.715155 295.419507 
L 228.824463 281.720716 
L 248.933771 265.639527 
L 269.043079 251.940736 
L 289.152387 195.373664 
L 309.261695 193.140166 
L 329.371002 187.630869 
L 349.48031 176.299587 
L 369.589618 165.876594 
L 389.698926 162.451896 
L 409.808234 146.519607 
L 429.917542 132.820816 
L 450.02685 116.739627 
L 470.136158 103.040836 
" style="fill:none;stroke:#008000;stroke-linecap:square;stroke-width:2;"/>
    <defs>
     <path d="M -3 3 
L 3 -3 
M -3 -3 
L 3 3 
" id="maa65b0d003" style="stroke:#008000;"/>
    </defs>
    <g clip-path="url(#pfe5f22b368)">
     <use style="fill:#008000;stroke:#008000;" x="88.059308" xlink:href="#maa65b0d003" y="344.273564"/>
     <use style="fill:#008000;stroke:#008000;" x="108.168616" xlink:href="#maa65b0d003" y="342.040065"/>
     <use style="fill:#008000;stroke:#008000;" x="128.277924" xlink:href="#maa65b0d003" y="336.530769"/>
     <use style="fill:#008000;stroke:#008000;" x="148.387232" xlink:href="#maa65b0d003" y="325.199487"/>
     <use style="fill:#008000;stroke:#008000;" x="168.496539" xlink:href="#maa65b0d003" y="315.625223"/>
     <use style="fill:#008000;stroke:#008000;" x="188.605847" xlink:href="#maa65b0d003" y="311.351796"/>
     <use style="fill:#008000;stroke:#008000;" x="208.715155" xlink:href="#maa65b0d003" y="295.419507"/>
     <use style="fill:#008000;stroke:#008000;" x="228.824463" xlink:href="#maa65b0d003" y="281.720716"/>
     <use style="fill:#008000;stroke:#008000;" x="248.933771" xlink:href="#maa65b0d003" y="265.639527"/>
     <use style="fill:#008000;stroke:#008000;" x="269.043079" xlink:href="#maa65b0d003" y="251.940736"/>
     <use style="fill:#008000;stroke:#008000;" x="289.152387" xlink:href="#maa65b0d003" y="195.373664"/>
     <use style="fill:#008000;stroke:#008000;" x="309.261695" xlink:href="#maa65b0d003" y="193.140166"/>
     <use style="fill:#008000;stroke:#008000;" x="329.371002" xlink:href="#maa65b0d003" y="187.630869"/>
     <use style="fill:#008000;stroke:#008000;" x="349.48031" xlink:href="#maa65b0d003" y="176.299587"/>
     <use style="fill:#008000;stroke:#008000;" x="369.589618" xlink:href="#maa65b0d003" y="165.876594"/>
     <use style="fill:#008000;stroke:#008000;" x="389.698926" xlink:href="#maa65b0d003" y="162.451896"/>
     <use style="fill:#008000;stroke:#008000;" x="409.808234" xlink:href="#maa65b0d003" y="146.519607"/>
     <use style="fill:#008000;stroke:#008000;" x="429.917542" xlink:href="#maa65b0d003" y="132.820816"/>
     <use style="fill:#008000;stroke:#008000;" x="450.02685" xlink:href="#maa65b0d003" y="116.739627"/>
     <use style="fill:#008000;stroke:#008000;" x="470.136158" xlink:href="#maa65b0d003" y="103.040836"/>
    </g>
   </g>
   <g id="line2d_32">
    <path clip-path="url(#pfe5f22b368)" d="M 88.059308 344.273564 
L 108.168616 338.689817 
L 128.277924 323.427578 
L 148.387232 311.068886 
L 168.496539 296.104446 
L 188.605847 287.825612 
L 208.715155 282.241865 
L 228.824463 267.277426 
L 248.933771 258.045632 
L 269.043079 251.940736 
L 289.152387 195.373664 
L 309.261695 189.789918 
L 329.371002 174.527678 
L 349.48031 161.424487 
L 369.589618 146.519607 
L 389.698926 138.627912 
L 409.808234 133.044166 
L 429.917542 118.079726 
L 450.02685 109.145732 
L 470.136158 103.040836 
" style="fill:none;stroke:#ff0000;stroke-linecap:square;stroke-width:2;"/>
    <defs>
     <path d="M 0 3 
C 0.795609 3 1.55874 2.683901 2.12132 2.12132 
C 2.683901 1.55874 3 0.795609 3 0 
C 3 -0.795609 2.683901 -1.55874 2.12132 -2.12132 
C 1.55874 -2.683901 0.795609 -3 0 -3 
C -0.795609 -3 -1.55874 -2.683901 -2.12132 -2.12132 
C -2.683901 -1.55874 -3 -0.795609 -3 0 
C -3 0.795609 -2.683901 1.55874 -2.12132 2.12132 
C -1.55874 2.683901 -0.795609 3 0 3 
z
" id="mfad2c2ceb7" style="stroke:#ff0000;"/>
    </defs>
    <g clip-path="url(#pfe5f22b368)">
     <use style="fill:#ff0000;stroke:#ff0000;" x="88.059308" xlink:href="#mfad2c2ceb7" y="344.273564"/>
     <use style="fill:#ff0000;stroke:#ff0000;" x="108.168616" xlink:href="#mfad2c2ceb7" y="338.689817"/>
     <use style="fill:#ff0000;stroke:#ff0000;" x="128.277924" xlink:href="#mfad2c2ceb7" y="323.427578"/>
     <use style="fill:#ff0000;stroke:#ff0000;" x="148.387232" xlink:href="#mfad2c2ceb7" y="311.068886"/>
     <use style="fill:#ff0000;stroke:#ff0000;" x="168.496539" xlink:href="#mfad2c2ceb7" y="296.104446"/>
     <use style="fill:#ff0000;stroke:#ff0000;" x="188.605847" xlink:href="#mfad2c2ceb7" y="287.825612"/>
     <use style="fill:#ff0000;stroke:#ff0000;" x="208.715155" xlink:href="#mfad2c2ceb7" y="282.241865"/>
     <use style="fill:#ff0000;stroke:#ff0000;" x="228.824463" xlink:href="#mfad2c2ceb7" y="267.277426"/>
     <use style="fill:#ff0000;stroke:#ff0000;" x="248.933771" xlink:href="#mfad2c2ceb7" y="258.045632"/>
     <use style="fill:#ff0000;stroke:#ff0000;" x="269.043079" xlink:href="#mfad2c2ceb7" y="251.940736"/>
     <use style="fill:#ff0000;stroke:#ff0000;" x="289.152387" xlink:href="#mfad2c2ceb7" y="195.373664"/>
     <use style="fill:#ff0000;stroke:#ff0000;" x="309.261695" xlink:href="#mfad2c2ceb7" y="189.789918"/>
     <use style="fill:#ff0000;stroke:#ff0000;" x="329.371002" xlink:href="#mfad2c2ceb7" y="174.527678"/>
     <use style="fill:#ff0000;stroke:#ff0000;" x="349.48031" xlink:href="#mfad2c2ceb7" y="161.424487"/>
     <use style="fill:#ff0000;stroke:#ff0000;" x="369.589618" xlink:href="#mfad2c2ceb7" y="146.519607"/>
     <use style="fill:#ff0000;stroke:#ff0000;" x="389.698926" xlink:href="#mfad2c2ceb7" y="138.627912"/>
     <use style="fill:#ff0000;stroke:#ff0000;" x="409.808234" xlink:href="#mfad2c2ceb7" y="133.044166"/>
     <use style="fill:#ff0000;stroke:#ff0000;" x="429.917542" xlink:href="#mfad2c2ceb7" y="118.079726"/>
     <use style="fill:#ff0000;stroke:#ff0000;" x="450.02685" xlink:href="#mfad2c2ceb7" y="109.145732"/>
     <use style="fill:#ff0000;stroke:#ff0000;" x="470.136158" xlink:href="#mfad2c2ceb7" y="103.040836"/>
    </g>
   </g>
   <g id="patch_3">
    <path d="M 67.95 356.3352 
L 67.95 90.9792 
" style="fill:none;stroke:#000000;stroke-linecap:square;stroke-linejoin:miter;stroke-width:0.8;"/>
   </g>
   <g id="patch_4">
    <path d="M 489.24 356.3352 
L 489.24 90.9792 
" style="fill:none;stroke:#000000;stroke-linecap:square;stroke-linejoin:miter;stroke-width:0.8;"/>
   </g>
   <g id="patch_5">
    <path d="M 67.95 356.3352 
L 489.24 356.3352 
" style="fill:none;stroke:#000000;stroke-linecap:square;stroke-linejoin:miter;stroke-width:0.8;"/>
   </g>
   <g id="patch_6">
    <path d="M 67.95 90.9792 
L 489.24 90.9792 
" style="fill:none;stroke:#000000;stroke-linecap:square;stroke-linejoin:miter;stroke-width:0.8;"/>
   </g>
   <g id="text_33">
    <!-- The finish time of critical frames from Class A, Uti: 0.6 with 10 ST flow -->
    <g transform="translate(68.289375 80.9792)scale(0.12 -0.12)">
     <defs>
      <path d="M -0.296875 72.90625 
L 61.375 72.90625 
L 61.375 64.59375 
L 35.5 64.59375 
L 35.5 0 
L 25.59375 0 
L 25.59375 64.59375 
L -0.296875 64.59375 
z
" id="DejaVuSans-84"/>
      <path d="M 30.609375 48.390625 
Q 23.390625 48.390625 19.1875 42.75 
Q 14.984375 37.109375 14.984375 27.296875 
Q 14.984375 17.484375 19.15625 11.84375 
Q 23.34375 6.203125 30.609375 6.203125 
Q 37.796875 6.203125 41.984375 11.859375 
Q 46.1875 17.53125 46.1875 27.296875 
Q 46.1875 37.015625 41.984375 42.703125 
Q 37.796875 48.390625 30.609375 48.390625 
z
M 30.609375 56 
Q 42.328125 56 49.015625 48.375 
Q 55.71875 40.765625 55.71875 27.296875 
Q 55.71875 13.875 49.015625 6.21875 
Q 42.328125 -1.421875 30.609375 -1.421875 
Q 18.84375 -1.421875 12.171875 6.21875 
Q 5.515625 13.875 5.515625 27.296875 
Q 5.515625 40.765625 12.171875 48.375 
Q 18.84375 56 30.609375 56 
z
" id="DejaVuSans-111"/>
      <path d="M 48.78125 52.59375 
L 48.78125 44.1875 
Q 44.96875 46.296875 41.140625 47.34375 
Q 37.3125 48.390625 33.40625 48.390625 
Q 24.65625 48.390625 19.8125 42.84375 
Q 14.984375 37.3125 14.984375 27.296875 
Q 14.984375 17.28125 19.8125 11.734375 
Q 24.65625 6.203125 33.40625 6.203125 
Q 37.3125 6.203125 41.140625 7.25 
Q 44.96875 8.296875 48.78125 10.40625 
L 48.78125 2.09375 
Q 45.015625 0.34375 40.984375 -0.53125 
Q 36.96875 -1.421875 32.421875 -1.421875 
Q 20.0625 -1.421875 12.78125 6.34375 
Q 5.515625 14.109375 5.515625 27.296875 
Q 5.515625 40.671875 12.859375 48.328125 
Q 20.21875 56 33.015625 56 
Q 37.15625 56 41.109375 55.140625 
Q 45.0625 54.296875 48.78125 52.59375 
z
" id="DejaVuSans-99"/>
      <path d="M 9.421875 75.984375 
L 18.40625 75.984375 
L 18.40625 0 
L 9.421875 0 
z
" id="DejaVuSans-108"/>
      <path d="M 64.40625 67.28125 
L 64.40625 56.890625 
Q 59.421875 61.53125 53.78125 63.8125 
Q 48.140625 66.109375 41.796875 66.109375 
Q 29.296875 66.109375 22.65625 58.46875 
Q 16.015625 50.828125 16.015625 36.375 
Q 16.015625 21.96875 22.65625 14.328125 
Q 29.296875 6.6875 41.796875 6.6875 
Q 48.140625 6.6875 53.78125 8.984375 
Q 59.421875 11.28125 64.40625 15.921875 
L 64.40625 5.609375 
Q 59.234375 2.09375 53.4375 0.328125 
Q 47.65625 -1.421875 41.21875 -1.421875 
Q 24.65625 -1.421875 15.125 8.703125 
Q 5.609375 18.84375 5.609375 36.375 
Q 5.609375 53.953125 15.125 64.078125 
Q 24.65625 74.21875 41.21875 74.21875 
Q 47.75 74.21875 53.53125 72.484375 
Q 59.328125 70.75 64.40625 67.28125 
z
" id="DejaVuSans-67"/>
      <path d="M 34.1875 63.1875 
L 20.796875 26.90625 
L 47.609375 26.90625 
z
M 28.609375 72.90625 
L 39.796875 72.90625 
L 67.578125 0 
L 57.328125 0 
L 50.6875 18.703125 
L 17.828125 18.703125 
L 11.1875 0 
L 0.78125 0 
z
" id="DejaVuSans-65"/>
      <path d="M 11.71875 12.40625 
L 22.015625 12.40625 
L 22.015625 4 
L 14.015625 -11.625 
L 7.71875 -11.625 
L 11.71875 4 
z
" id="DejaVuSans-44"/>
      <path d="M 8.6875 72.90625 
L 18.609375 72.90625 
L 18.609375 28.609375 
Q 18.609375 16.890625 22.84375 11.734375 
Q 27.09375 6.59375 36.625 6.59375 
Q 46.09375 6.59375 50.34375 11.734375 
Q 54.59375 16.890625 54.59375 28.609375 
L 54.59375 72.90625 
L 64.5 72.90625 
L 64.5 27.390625 
Q 64.5 13.140625 57.4375 5.859375 
Q 50.390625 -1.421875 36.625 -1.421875 
Q 22.796875 -1.421875 15.734375 5.859375 
Q 8.6875 13.140625 8.6875 27.390625 
z
" id="DejaVuSans-85"/>
      <path d="M 11.71875 12.40625 
L 22.015625 12.40625 
L 22.015625 0 
L 11.71875 0 
z
M 11.71875 51.703125 
L 22.015625 51.703125 
L 22.015625 39.3125 
L 11.71875 39.3125 
z
" id="DejaVuSans-58"/>
      <path d="M 10.6875 12.40625 
L 21 12.40625 
L 21 0 
L 10.6875 0 
z
" id="DejaVuSans-46"/>
      <path d="M 4.203125 54.6875 
L 13.1875 54.6875 
L 24.421875 12.015625 
L 35.59375 54.6875 
L 46.1875 54.6875 
L 57.421875 12.015625 
L 68.609375 54.6875 
L 77.59375 54.6875 
L 63.28125 0 
L 52.6875 0 
L 40.921875 44.828125 
L 29.109375 0 
L 18.5 0 
z
" id="DejaVuSans-119"/>
      <path d="M 53.515625 70.515625 
L 53.515625 60.890625 
Q 47.90625 63.578125 42.921875 64.890625 
Q 37.9375 66.21875 33.296875 66.21875 
Q 25.25 66.21875 20.875 63.09375 
Q 16.5 59.96875 16.5 54.203125 
Q 16.5 49.359375 19.40625 46.890625 
Q 22.3125 44.4375 30.421875 42.921875 
L 36.375 41.703125 
Q 47.40625 39.59375 52.65625 34.296875 
Q 57.90625 29 57.90625 20.125 
Q 57.90625 9.515625 50.796875 4.046875 
Q 43.703125 -1.421875 29.984375 -1.421875 
Q 24.8125 -1.421875 18.96875 -0.25 
Q 13.140625 0.921875 6.890625 3.21875 
L 6.890625 13.375 
Q 12.890625 10.015625 18.65625 8.296875 
Q 24.421875 6.59375 29.984375 6.59375 
Q 38.421875 6.59375 43.015625 9.90625 
Q 47.609375 13.234375 47.609375 19.390625 
Q 47.609375 24.75 44.3125 27.78125 
Q 41.015625 30.8125 33.5 32.328125 
L 27.484375 33.5 
Q 16.453125 35.6875 11.515625 40.375 
Q 6.59375 45.0625 6.59375 53.421875 
Q 6.59375 63.09375 13.40625 68.65625 
Q 20.21875 74.21875 32.171875 74.21875 
Q 37.3125 74.21875 42.625 73.28125 
Q 47.953125 72.359375 53.515625 70.515625 
z
" id="DejaVuSans-83"/>
     </defs>
     <use xlink:href="#DejaVuSans-84"/>
     <use x="61.083984" xlink:href="#DejaVuSans-104"/>
     <use x="124.462891" xlink:href="#DejaVuSans-101"/>
     <use x="185.986328" xlink:href="#DejaVuSans-32"/>
     <use x="217.773438" xlink:href="#DejaVuSans-102"/>
     <use x="252.978516" xlink:href="#DejaVuSans-105"/>
     <use x="280.761719" xlink:href="#DejaVuSans-110"/>
     <use x="344.140625" xlink:href="#DejaVuSans-105"/>
     <use x="371.923828" xlink:href="#DejaVuSans-115"/>
     <use x="424.023438" xlink:href="#DejaVuSans-104"/>
     <use x="487.402344" xlink:href="#DejaVuSans-32"/>
     <use x="519.189453" xlink:href="#DejaVuSans-116"/>
     <use x="558.398438" xlink:href="#DejaVuSans-105"/>
     <use x="586.181641" xlink:href="#DejaVuSans-109"/>
     <use x="683.59375" xlink:href="#DejaVuSans-101"/>
     <use x="745.117188" xlink:href="#DejaVuSans-32"/>
     <use x="776.904297" xlink:href="#DejaVuSans-111"/>
     <use x="838.085938" xlink:href="#DejaVuSans-102"/>
     <use x="873.291016" xlink:href="#DejaVuSans-32"/>
     <use x="905.078125" xlink:href="#DejaVuSans-99"/>
     <use x="960.058594" xlink:href="#DejaVuSans-114"/>
     <use x="1001.171875" xlink:href="#DejaVuSans-105"/>
     <use x="1028.955078" xlink:href="#DejaVuSans-116"/>
     <use x="1068.164062" xlink:href="#DejaVuSans-105"/>
     <use x="1095.947266" xlink:href="#DejaVuSans-99"/>
     <use x="1150.927734" xlink:href="#DejaVuSans-97"/>
     <use x="1212.207031" xlink:href="#DejaVuSans-108"/>
     <use x="1239.990234" xlink:href="#DejaVuSans-32"/>
     <use x="1271.777344" xlink:href="#DejaVuSans-102"/>
     <use x="1306.982422" xlink:href="#DejaVuSans-114"/>
     <use x="1348.095703" xlink:href="#DejaVuSans-97"/>
     <use x="1409.375" xlink:href="#DejaVuSans-109"/>
     <use x="1506.787109" xlink:href="#DejaVuSans-101"/>
     <use x="1568.310547" xlink:href="#DejaVuSans-115"/>
     <use x="1620.410156" xlink:href="#DejaVuSans-32"/>
     <use x="1652.197266" xlink:href="#DejaVuSans-102"/>
     <use x="1687.402344" xlink:href="#DejaVuSans-114"/>
     <use x="1726.265625" xlink:href="#DejaVuSans-111"/>
     <use x="1787.447266" xlink:href="#DejaVuSans-109"/>
     <use x="1884.859375" xlink:href="#DejaVuSans-32"/>
     <use x="1916.646484" xlink:href="#DejaVuSans-67"/>
     <use x="1986.470703" xlink:href="#DejaVuSans-108"/>
     <use x="2014.253906" xlink:href="#DejaVuSans-97"/>
     <use x="2075.533203" xlink:href="#DejaVuSans-115"/>
     <use x="2127.632812" xlink:href="#DejaVuSans-115"/>
     <use x="2179.732422" xlink:href="#DejaVuSans-32"/>
     <use x="2211.519531" xlink:href="#DejaVuSans-65"/>
     <use x="2279.927734" xlink:href="#DejaVuSans-44"/>
     <use x="2311.714844" xlink:href="#DejaVuSans-32"/>
     <use x="2343.501953" xlink:href="#DejaVuSans-85"/>
     <use x="2416.695312" xlink:href="#DejaVuSans-116"/>
     <use x="2455.904297" xlink:href="#DejaVuSans-105"/>
     <use x="2483.6875" xlink:href="#DejaVuSans-58"/>
     <use x="2517.378906" xlink:href="#DejaVuSans-32"/>
     <use x="2549.166016" xlink:href="#DejaVuSans-48"/>
     <use x="2612.789062" xlink:href="#DejaVuSans-46"/>
     <use x="2644.576172" xlink:href="#DejaVuSans-54"/>
     <use x="2708.199219" xlink:href="#DejaVuSans-32"/>
     <use x="2739.986328" xlink:href="#DejaVuSans-119"/>
     <use x="2821.773438" xlink:href="#DejaVuSans-105"/>
     <use x="2849.556641" xlink:href="#DejaVuSans-116"/>
     <use x="2888.765625" xlink:href="#DejaVuSans-104"/>
     <use x="2952.144531" xlink:href="#DejaVuSans-32"/>
     <use x="2983.931641" xlink:href="#DejaVuSans-49"/>
     <use x="3047.554688" xlink:href="#DejaVuSans-48"/>
     <use x="3111.177734" xlink:href="#DejaVuSans-32"/>
     <use x="3142.964844" xlink:href="#DejaVuSans-83"/>
     <use x="3206.441406" xlink:href="#DejaVuSans-84"/>
     <use x="3267.525391" xlink:href="#DejaVuSans-32"/>
     <use x="3299.3125" xlink:href="#DejaVuSans-102"/>
     <use x="3334.517578" xlink:href="#DejaVuSans-108"/>
     <use x="3362.300781" xlink:href="#DejaVuSans-111"/>
     <use x="3423.482422" xlink:href="#DejaVuSans-119"/>
    </g>
   </g>
   <g id="legend_1">
    <g id="patch_7">
     <path d="M 76.35 136.4742 
L 256.72875 136.4742 
Q 259.12875 136.4742 259.12875 134.0742 
L 259.12875 99.3792 
Q 259.12875 96.9792 256.72875 96.9792 
L 76.35 96.9792 
Q 73.95 96.9792 73.95 99.3792 
L 73.95 134.0742 
Q 73.95 136.4742 76.35 136.4742 
z
" style="fill:#ffffff;opacity:0.8;stroke:#cccccc;stroke-linejoin:miter;"/>
    </g>
    <g id="line2d_33">
     <path d="M 78.75 106.697325 
L 102.75 106.697325 
" style="fill:none;stroke:#008000;stroke-linecap:square;stroke-width:2;"/>
    </g>
    <g id="line2d_34">
     <g>
      <use style="fill:#008000;stroke:#008000;" x="90.75" xlink:href="#maa65b0d003" y="106.697325"/>
     </g>
    </g>
    <g id="text_34">
     <!-- CBServer_based_classA -->
     <g transform="translate(112.35 110.897325)scale(0.12 -0.12)">
      <defs>
       <path d="M 19.671875 34.8125 
L 19.671875 8.109375 
L 35.5 8.109375 
Q 43.453125 8.109375 47.28125 11.40625 
Q 51.125 14.703125 51.125 21.484375 
Q 51.125 28.328125 47.28125 31.5625 
Q 43.453125 34.8125 35.5 34.8125 
z
M 19.671875 64.796875 
L 19.671875 42.828125 
L 34.28125 42.828125 
Q 41.5 42.828125 45.03125 45.53125 
Q 48.578125 48.25 48.578125 53.8125 
Q 48.578125 59.328125 45.03125 62.0625 
Q 41.5 64.796875 34.28125 64.796875 
z
M 9.8125 72.90625 
L 35.015625 72.90625 
Q 46.296875 72.90625 52.390625 68.21875 
Q 58.5 63.53125 58.5 54.890625 
Q 58.5 48.1875 55.375 44.234375 
Q 52.25 40.28125 46.1875 39.3125 
Q 53.46875 37.75 57.5 32.78125 
Q 61.53125 27.828125 61.53125 20.40625 
Q 61.53125 10.640625 54.890625 5.3125 
Q 48.25 0 35.984375 0 
L 9.8125 0 
z
" id="DejaVuSans-66"/>
       <path d="M 2.984375 54.6875 
L 12.5 54.6875 
L 29.59375 8.796875 
L 46.6875 54.6875 
L 56.203125 54.6875 
L 35.6875 0 
L 23.484375 0 
z
" id="DejaVuSans-118"/>
       <path d="M 50.984375 -16.609375 
L 50.984375 -23.578125 
L -0.984375 -23.578125 
L -0.984375 -16.609375 
z
" id="DejaVuSans-95"/>
       <path d="M 48.6875 27.296875 
Q 48.6875 37.203125 44.609375 42.84375 
Q 40.53125 48.484375 33.40625 48.484375 
Q 26.265625 48.484375 22.1875 42.84375 
Q 18.109375 37.203125 18.109375 27.296875 
Q 18.109375 17.390625 22.1875 11.75 
Q 26.265625 6.109375 33.40625 6.109375 
Q 40.53125 6.109375 44.609375 11.75 
Q 48.6875 17.390625 48.6875 27.296875 
z
M 18.109375 46.390625 
Q 20.953125 51.265625 25.265625 53.625 
Q 29.59375 56 35.59375 56 
Q 45.5625 56 51.78125 48.09375 
Q 58.015625 40.1875 58.015625 27.296875 
Q 58.015625 14.40625 51.78125 6.484375 
Q 45.5625 -1.421875 35.59375 -1.421875 
Q 29.59375 -1.421875 25.265625 0.953125 
Q 20.953125 3.328125 18.109375 8.203125 
L 18.109375 0 
L 9.078125 0 
L 9.078125 75.984375 
L 18.109375 75.984375 
z
" id="DejaVuSans-98"/>
      </defs>
      <use xlink:href="#DejaVuSans-67"/>
      <use x="69.824219" xlink:href="#DejaVuSans-66"/>
      <use x="136.677734" xlink:href="#DejaVuSans-83"/>
      <use x="200.154297" xlink:href="#DejaVuSans-101"/>
      <use x="261.677734" xlink:href="#DejaVuSans-114"/>
      <use x="302.791016" xlink:href="#DejaVuSans-118"/>
      <use x="361.970703" xlink:href="#DejaVuSans-101"/>
      <use x="423.494141" xlink:href="#DejaVuSans-114"/>
      <use x="464.607422" xlink:href="#DejaVuSans-95"/>
      <use x="514.607422" xlink:href="#DejaVuSans-98"/>
      <use x="578.083984" xlink:href="#DejaVuSans-97"/>
      <use x="639.363281" xlink:href="#DejaVuSans-115"/>
      <use x="691.462891" xlink:href="#DejaVuSans-101"/>
      <use x="752.986328" xlink:href="#DejaVuSans-100"/>
      <use x="816.462891" xlink:href="#DejaVuSans-95"/>
      <use x="866.462891" xlink:href="#DejaVuSans-99"/>
      <use x="921.443359" xlink:href="#DejaVuSans-108"/>
      <use x="949.226562" xlink:href="#DejaVuSans-97"/>
      <use x="1010.505859" xlink:href="#DejaVuSans-115"/>
      <use x="1062.605469" xlink:href="#DejaVuSans-115"/>
      <use x="1114.705078" xlink:href="#DejaVuSans-65"/>
     </g>
    </g>
    <g id="line2d_35">
     <path d="M 78.75 124.644825 
L 102.75 124.644825 
" style="fill:none;stroke:#ff0000;stroke-linecap:square;stroke-width:2;"/>
    </g>
    <g id="line2d_36">
     <g>
      <use style="fill:#ff0000;stroke:#ff0000;" x="90.75" xlink:href="#mfad2c2ceb7" y="124.644825"/>
     </g>
    </g>
    <g id="text_35">
     <!-- AVB_based_classA -->
     <g transform="translate(112.35 128.844825)scale(0.12 -0.12)">
      <defs>
       <path d="M 28.609375 0 
L 0.78125 72.90625 
L 11.078125 72.90625 
L 34.1875 11.53125 
L 57.328125 72.90625 
L 67.578125 72.90625 
L 39.796875 0 
z
" id="DejaVuSans-86"/>
      </defs>
      <use xlink:href="#DejaVuSans-65"/>
      <use x="62.033203" xlink:href="#DejaVuSans-86"/>
      <use x="130.441406" xlink:href="#DejaVuSans-66"/>
      <use x="199.044922" xlink:href="#DejaVuSans-95"/>
      <use x="249.044922" xlink:href="#DejaVuSans-98"/>
      <use x="312.521484" xlink:href="#DejaVuSans-97"/>
      <use x="373.800781" xlink:href="#DejaVuSans-115"/>
      <use x="425.900391" xlink:href="#DejaVuSans-101"/>
      <use x="487.423828" xlink:href="#DejaVuSans-100"/>
      <use x="550.900391" xlink:href="#DejaVuSans-95"/>
      <use x="600.900391" xlink:href="#DejaVuSans-99"/>
      <use x="655.880859" xlink:href="#DejaVuSans-108"/>
      <use x="683.664062" xlink:href="#DejaVuSans-97"/>
      <use x="744.943359" xlink:href="#DejaVuSans-115"/>
      <use x="797.042969" xlink:href="#DejaVuSans-115"/>
      <use x="849.142578" xlink:href="#DejaVuSans-65"/>
     </g>
    </g>
   </g>
  </g>
  <g id="axes_2">
   <g id="patch_8">
    <path d="M 67.95 674.7624 
L 489.24 674.7624 
L 489.24 409.4064 
L 67.95 409.4064 
z
" style="fill:#ffffff;"/>
   </g>
   <g id="matplotlib.axis_3">
    <g id="xtick_22">
     <g id="line2d_37">
      <g>
       <use style="stroke:#000000;stroke-width:0.8;" x="67.95" xlink:href="#mce87429018" y="674.7624"/>
      </g>
     </g>
     <g id="text_36">
      <!-- 0 -->
      <g transform="translate(64.76875 689.360838)scale(0.1 -0.1)">
       <use xlink:href="#DejaVuSans-48"/>
      </g>
     </g>
    </g>
    <g id="xtick_23">
     <g id="line2d_38">
      <g>
       <use style="stroke:#000000;stroke-width:0.8;" x="108.264833" xlink:href="#mce87429018" y="674.7624"/>
      </g>
     </g>
     <g id="text_37">
      <!-- 1 -->
      <g transform="translate(105.083583 689.360838)scale(0.1 -0.1)">
       <use xlink:href="#DejaVuSans-49"/>
      </g>
     </g>
    </g>
    <g id="xtick_24">
     <g id="line2d_39">
      <g>
       <use style="stroke:#000000;stroke-width:0.8;" x="148.579665" xlink:href="#mce87429018" y="674.7624"/>
      </g>
     </g>
     <g id="text_38">
      <!-- 2 -->
      <g transform="translate(145.398415 689.360838)scale(0.1 -0.1)">
       <use xlink:href="#DejaVuSans-50"/>
      </g>
     </g>
    </g>
    <g id="xtick_25">
     <g id="line2d_40">
      <g>
       <use style="stroke:#000000;stroke-width:0.8;" x="188.894498" xlink:href="#mce87429018" y="674.7624"/>
      </g>
     </g>
     <g id="text_39">
      <!-- 3 -->
      <g transform="translate(185.713248 689.360838)scale(0.1 -0.1)">
       <use xlink:href="#DejaVuSans-51"/>
      </g>
     </g>
    </g>
    <g id="xtick_26">
     <g id="line2d_41">
      <g>
       <use style="stroke:#000000;stroke-width:0.8;" x="229.20933" xlink:href="#mce87429018" y="674.7624"/>
      </g>
     </g>
     <g id="text_40">
      <!-- 4 -->
      <g transform="translate(226.02808 689.360838)scale(0.1 -0.1)">
       <use xlink:href="#DejaVuSans-52"/>
      </g>
     </g>
    </g>
    <g id="xtick_27">
     <g id="line2d_42">
      <g>
       <use style="stroke:#000000;stroke-width:0.8;" x="269.524163" xlink:href="#mce87429018" y="674.7624"/>
      </g>
     </g>
     <g id="text_41">
      <!-- 5 -->
      <g transform="translate(266.342913 689.360838)scale(0.1 -0.1)">
       <use xlink:href="#DejaVuSans-53"/>
      </g>
     </g>
    </g>
    <g id="xtick_28">
     <g id="line2d_43">
      <g>
       <use style="stroke:#000000;stroke-width:0.8;" x="309.838995" xlink:href="#mce87429018" y="674.7624"/>
      </g>
     </g>
     <g id="text_42">
      <!-- 6 -->
      <g transform="translate(306.657745 689.360838)scale(0.1 -0.1)">
       <use xlink:href="#DejaVuSans-54"/>
      </g>
     </g>
    </g>
    <g id="xtick_29">
     <g id="line2d_44">
      <g>
       <use style="stroke:#000000;stroke-width:0.8;" x="350.153828" xlink:href="#mce87429018" y="674.7624"/>
      </g>
     </g>
     <g id="text_43">
      <!-- 7 -->
      <g transform="translate(346.972578 689.360838)scale(0.1 -0.1)">
       <use xlink:href="#DejaVuSans-55"/>
      </g>
     </g>
    </g>
    <g id="xtick_30">
     <g id="line2d_45">
      <g>
       <use style="stroke:#000000;stroke-width:0.8;" x="390.46866" xlink:href="#mce87429018" y="674.7624"/>
      </g>
     </g>
     <g id="text_44">
      <!-- 8 -->
      <g transform="translate(387.28741 689.360838)scale(0.1 -0.1)">
       <use xlink:href="#DejaVuSans-56"/>
      </g>
     </g>
    </g>
    <g id="xtick_31">
     <g id="line2d_46">
      <g>
       <use style="stroke:#000000;stroke-width:0.8;" x="430.783493" xlink:href="#mce87429018" y="674.7624"/>
      </g>
     </g>
     <g id="text_45">
      <!-- 9 -->
      <g transform="translate(427.602243 689.360838)scale(0.1 -0.1)">
       <use xlink:href="#DejaVuSans-57"/>
      </g>
     </g>
    </g>
    <g id="xtick_32">
     <g id="line2d_47">
      <g>
       <use style="stroke:#000000;stroke-width:0.8;" x="471.098325" xlink:href="#mce87429018" y="674.7624"/>
      </g>
     </g>
     <g id="text_46">
      <!-- 10 -->
      <g transform="translate(464.735825 689.360838)scale(0.1 -0.1)">
       <use xlink:href="#DejaVuSans-49"/>
       <use x="63.623047" xlink:href="#DejaVuSans-48"/>
      </g>
     </g>
    </g>
    <g id="text_47">
     <!-- frame index -->
     <g transform="translate(242.479688 704.55865)scale(0.12 -0.12)">
      <use xlink:href="#DejaVuSans-102"/>
      <use x="35.205078" xlink:href="#DejaVuSans-114"/>
      <use x="76.318359" xlink:href="#DejaVuSans-97"/>
      <use x="137.597656" xlink:href="#DejaVuSans-109"/>
      <use x="235.009766" xlink:href="#DejaVuSans-101"/>
      <use x="296.533203" xlink:href="#DejaVuSans-32"/>
      <use x="328.320312" xlink:href="#DejaVuSans-105"/>
      <use x="356.103516" xlink:href="#DejaVuSans-110"/>
      <use x="419.482422" xlink:href="#DejaVuSans-100"/>
      <use x="482.958984" xlink:href="#DejaVuSans-101"/>
      <use x="542.732422" xlink:href="#DejaVuSans-120"/>
     </g>
    </g>
   </g>
   <g id="matplotlib.axis_4">
    <g id="ytick_10">
     <g id="line2d_48">
      <g>
       <use style="stroke:#000000;stroke-width:0.8;" x="67.95" xlink:href="#m321feaf57c" y="658.264771"/>
      </g>
     </g>
     <g id="text_48">
      <!-- 400 -->
      <g transform="translate(41.8625 662.06399)scale(0.1 -0.1)">
       <use xlink:href="#DejaVuSans-52"/>
       <use x="63.623047" xlink:href="#DejaVuSans-48"/>
       <use x="127.246094" xlink:href="#DejaVuSans-48"/>
      </g>
     </g>
    </g>
    <g id="ytick_11">
     <g id="line2d_49">
      <g>
       <use style="stroke:#000000;stroke-width:0.8;" x="67.95" xlink:href="#m321feaf57c" y="626.691873"/>
      </g>
     </g>
     <g id="text_49">
      <!-- 600 -->
      <g transform="translate(41.8625 630.491092)scale(0.1 -0.1)">
       <use xlink:href="#DejaVuSans-54"/>
       <use x="63.623047" xlink:href="#DejaVuSans-48"/>
       <use x="127.246094" xlink:href="#DejaVuSans-48"/>
      </g>
     </g>
    </g>
    <g id="ytick_12">
     <g id="line2d_50">
      <g>
       <use style="stroke:#000000;stroke-width:0.8;" x="67.95" xlink:href="#m321feaf57c" y="595.118975"/>
      </g>
     </g>
     <g id="text_50">
      <!-- 800 -->
      <g transform="translate(41.8625 598.918194)scale(0.1 -0.1)">
       <use xlink:href="#DejaVuSans-56"/>
       <use x="63.623047" xlink:href="#DejaVuSans-48"/>
       <use x="127.246094" xlink:href="#DejaVuSans-48"/>
      </g>
     </g>
    </g>
    <g id="ytick_13">
     <g id="line2d_51">
      <g>
       <use style="stroke:#000000;stroke-width:0.8;" x="67.95" xlink:href="#m321feaf57c" y="563.546077"/>
      </g>
     </g>
     <g id="text_51">
      <!-- 1000 -->
      <g transform="translate(35.5 567.345296)scale(0.1 -0.1)">
       <use xlink:href="#DejaVuSans-49"/>
       <use x="63.623047" xlink:href="#DejaVuSans-48"/>
       <use x="127.246094" xlink:href="#DejaVuSans-48"/>
       <use x="190.869141" xlink:href="#DejaVuSans-48"/>
      </g>
     </g>
    </g>
    <g id="ytick_14">
     <g id="line2d_52">
      <g>
       <use style="stroke:#000000;stroke-width:0.8;" x="67.95" xlink:href="#m321feaf57c" y="531.973179"/>
      </g>
     </g>
     <g id="text_52">
      <!-- 1200 -->
      <g transform="translate(35.5 535.772398)scale(0.1 -0.1)">
       <use xlink:href="#DejaVuSans-49"/>
       <use x="63.623047" xlink:href="#DejaVuSans-50"/>
       <use x="127.246094" xlink:href="#DejaVuSans-48"/>
       <use x="190.869141" xlink:href="#DejaVuSans-48"/>
      </g>
     </g>
    </g>
    <g id="ytick_15">
     <g id="line2d_53">
      <g>
       <use style="stroke:#000000;stroke-width:0.8;" x="67.95" xlink:href="#m321feaf57c" y="500.400281"/>
      </g>
     </g>
     <g id="text_53">
      <!-- 1400 -->
      <g transform="translate(35.5 504.1995)scale(0.1 -0.1)">
       <use xlink:href="#DejaVuSans-49"/>
       <use x="63.623047" xlink:href="#DejaVuSans-52"/>
       <use x="127.246094" xlink:href="#DejaVuSans-48"/>
       <use x="190.869141" xlink:href="#DejaVuSans-48"/>
      </g>
     </g>
    </g>
    <g id="ytick_16">
     <g id="line2d_54">
      <g>
       <use style="stroke:#000000;stroke-width:0.8;" x="67.95" xlink:href="#m321feaf57c" y="468.827383"/>
      </g>
     </g>
     <g id="text_54">
      <!-- 1600 -->
      <g transform="translate(35.5 472.626602)scale(0.1 -0.1)">
       <use xlink:href="#DejaVuSans-49"/>
       <use x="63.623047" xlink:href="#DejaVuSans-54"/>
       <use x="127.246094" xlink:href="#DejaVuSans-48"/>
       <use x="190.869141" xlink:href="#DejaVuSans-48"/>
      </g>
     </g>
    </g>
    <g id="ytick_17">
     <g id="line2d_55">
      <g>
       <use style="stroke:#000000;stroke-width:0.8;" x="67.95" xlink:href="#m321feaf57c" y="437.254485"/>
      </g>
     </g>
     <g id="text_55">
      <!-- 1800 -->
      <g transform="translate(35.5 441.053704)scale(0.1 -0.1)">
       <use xlink:href="#DejaVuSans-49"/>
       <use x="63.623047" xlink:href="#DejaVuSans-56"/>
       <use x="127.246094" xlink:href="#DejaVuSans-48"/>
       <use x="190.869141" xlink:href="#DejaVuSans-48"/>
      </g>
     </g>
    </g>
    <g id="text_56">
     <!-- finish time -->
     <g transform="translate(29.004375 573.72315)rotate(-90)scale(0.12 -0.12)">
      <use xlink:href="#DejaVuSans-102"/>
      <use x="35.205078" xlink:href="#DejaVuSans-105"/>
      <use x="62.988281" xlink:href="#DejaVuSans-110"/>
      <use x="126.367188" xlink:href="#DejaVuSans-105"/>
      <use x="154.150391" xlink:href="#DejaVuSans-115"/>
      <use x="206.25" xlink:href="#DejaVuSans-104"/>
      <use x="269.628906" xlink:href="#DejaVuSans-32"/>
      <use x="301.416016" xlink:href="#DejaVuSans-116"/>
      <use x="340.625" xlink:href="#DejaVuSans-105"/>
      <use x="368.408203" xlink:href="#DejaVuSans-109"/>
      <use x="465.820312" xlink:href="#DejaVuSans-101"/>
     </g>
    </g>
   </g>
   <g id="line2d_56">
    <path clip-path="url(#p1533f30df2)" d="M 108.264833 660.332796 
L 148.579665 642.478322 
L 188.894498 629.912309 
L 229.20933 610.905424 
L 269.524163 579.332526 
L 309.838995 502.468306 
L 350.153828 484.613832 
L 390.46866 471.147991 
L 430.783493 453.040934 
L 471.098325 421.468036 
" style="fill:none;stroke:#0000ff;stroke-linecap:square;stroke-width:2;"/>
    <defs>
     <path d="M -3 3 
L 3 -3 
M -3 -3 
L 3 3 
" id="m31cc0c134f" style="stroke:#0000ff;"/>
    </defs>
    <g clip-path="url(#p1533f30df2)">
     <use style="fill:#0000ff;stroke:#0000ff;" x="108.264833" xlink:href="#m31cc0c134f" y="660.332796"/>
     <use style="fill:#0000ff;stroke:#0000ff;" x="148.579665" xlink:href="#m31cc0c134f" y="642.478322"/>
     <use style="fill:#0000ff;stroke:#0000ff;" x="188.894498" xlink:href="#m31cc0c134f" y="629.912309"/>
     <use style="fill:#0000ff;stroke:#0000ff;" x="229.20933" xlink:href="#m31cc0c134f" y="610.905424"/>
     <use style="fill:#0000ff;stroke:#0000ff;" x="269.524163" xlink:href="#m31cc0c134f" y="579.332526"/>
     <use style="fill:#0000ff;stroke:#0000ff;" x="309.838995" xlink:href="#m31cc0c134f" y="502.468306"/>
     <use style="fill:#0000ff;stroke:#0000ff;" x="350.153828" xlink:href="#m31cc0c134f" y="484.613832"/>
     <use style="fill:#0000ff;stroke:#0000ff;" x="390.46866" xlink:href="#m31cc0c134f" y="471.147991"/>
     <use style="fill:#0000ff;stroke:#0000ff;" x="430.783493" xlink:href="#m31cc0c134f" y="453.040934"/>
     <use style="fill:#0000ff;stroke:#0000ff;" x="471.098325" xlink:href="#m31cc0c134f" y="421.468036"/>
    </g>
   </g>
   <g id="line2d_57">
    <path clip-path="url(#p1533f30df2)" d="M 108.264833 662.700764 
L 148.579665 646.440721 
L 188.894498 633.337968 
L 229.20933 611.221153 
L 269.524163 579.648255 
L 309.838995 504.836274 
L 350.153828 488.576231 
L 390.46866 474.684156 
L 430.783493 453.040934 
L 471.098325 421.783765 
" style="fill:none;stroke:#ffa500;stroke-linecap:square;stroke-width:2;"/>
    <defs>
     <path d="M 0 3 
C 0.795609 3 1.55874 2.683901 2.12132 2.12132 
C 2.683901 1.55874 3 0.795609 3 0 
C 3 -0.795609 2.683901 -1.55874 2.12132 -2.12132 
C 1.55874 -2.683901 0.795609 -3 0 -3 
C -0.795609 -3 -1.55874 -2.683901 -2.12132 -2.12132 
C -2.683901 -1.55874 -3 -0.795609 -3 0 
C -3 0.795609 -2.683901 1.55874 -2.12132 2.12132 
C -1.55874 2.683901 -0.795609 3 0 3 
z
" id="m2b1c084960" style="stroke:#ffa500;"/>
    </defs>
    <g clip-path="url(#p1533f30df2)">
     <use style="fill:#ffa500;stroke:#ffa500;" x="108.264833" xlink:href="#m2b1c084960" y="662.700764"/>
     <use style="fill:#ffa500;stroke:#ffa500;" x="148.579665" xlink:href="#m2b1c084960" y="646.440721"/>
     <use style="fill:#ffa500;stroke:#ffa500;" x="188.894498" xlink:href="#m2b1c084960" y="633.337968"/>
     <use style="fill:#ffa500;stroke:#ffa500;" x="229.20933" xlink:href="#m2b1c084960" y="611.221153"/>
     <use style="fill:#ffa500;stroke:#ffa500;" x="269.524163" xlink:href="#m2b1c084960" y="579.648255"/>
     <use style="fill:#ffa500;stroke:#ffa500;" x="309.838995" xlink:href="#m2b1c084960" y="504.836274"/>
     <use style="fill:#ffa500;stroke:#ffa500;" x="350.153828" xlink:href="#m2b1c084960" y="488.576231"/>
     <use style="fill:#ffa500;stroke:#ffa500;" x="390.46866" xlink:href="#m2b1c084960" y="474.684156"/>
     <use style="fill:#ffa500;stroke:#ffa500;" x="430.783493" xlink:href="#m2b1c084960" y="453.040934"/>
     <use style="fill:#ffa500;stroke:#ffa500;" x="471.098325" xlink:href="#m2b1c084960" y="421.783765"/>
    </g>
   </g>
   <g id="patch_9">
    <path d="M 67.95 674.7624 
L 67.95 409.4064 
" style="fill:none;stroke:#000000;stroke-linecap:square;stroke-linejoin:miter;stroke-width:0.8;"/>
   </g>
   <g id="patch_10">
    <path d="M 489.24 674.7624 
L 489.24 409.4064 
" style="fill:none;stroke:#000000;stroke-linecap:square;stroke-linejoin:miter;stroke-width:0.8;"/>
   </g>
   <g id="patch_11">
    <path d="M 67.95 674.7624 
L 489.24 674.7624 
" style="fill:none;stroke:#000000;stroke-linecap:square;stroke-linejoin:miter;stroke-width:0.8;"/>
   </g>
   <g id="patch_12">
    <path d="M 67.95 409.4064 
L 489.24 409.4064 
" style="fill:none;stroke:#000000;stroke-linecap:square;stroke-linejoin:miter;stroke-width:0.8;"/>
   </g>
   <g id="text_57">
    <!-- The finish time of critical frames from Class B, Uti: 0.6 with 10 ST flow -->
    <g transform="translate(68.277188 399.4064)scale(0.12 -0.12)">
     <use xlink:href="#DejaVuSans-84"/>
     <use x="61.083984" xlink:href="#DejaVuSans-104"/>
     <use x="124.462891" xlink:href="#DejaVuSans-101"/>
     <use x="185.986328" xlink:href="#DejaVuSans-32"/>
     <use x="217.773438" xlink:href="#DejaVuSans-102"/>
     <use x="252.978516" xlink:href="#DejaVuSans-105"/>
     <use x="280.761719" xlink:href="#DejaVuSans-110"/>
     <use x="344.140625" xlink:href="#DejaVuSans-105"/>
     <use x="371.923828" xlink:href="#DejaVuSans-115"/>
     <use x="424.023438" xlink:href="#DejaVuSans-104"/>
     <use x="487.402344" xlink:href="#DejaVuSans-32"/>
     <use x="519.189453" xlink:href="#DejaVuSans-116"/>
     <use x="558.398438" xlink:href="#DejaVuSans-105"/>
     <use x="586.181641" xlink:href="#DejaVuSans-109"/>
     <use x="683.59375" xlink:href="#DejaVuSans-101"/>
     <use x="745.117188" xlink:href="#DejaVuSans-32"/>
     <use x="776.904297" xlink:href="#DejaVuSans-111"/>
     <use x="838.085938" xlink:href="#DejaVuSans-102"/>
     <use x="873.291016" xlink:href="#DejaVuSans-32"/>
     <use x="905.078125" xlink:href="#DejaVuSans-99"/>
     <use x="960.058594" xlink:href="#DejaVuSans-114"/>
     <use x="1001.171875" xlink:href="#DejaVuSans-105"/>
     <use x="1028.955078" xlink:href="#DejaVuSans-116"/>
     <use x="1068.164062" xlink:href="#DejaVuSans-105"/>
     <use x="1095.947266" xlink:href="#DejaVuSans-99"/>
     <use x="1150.927734" xlink:href="#DejaVuSans-97"/>
     <use x="1212.207031" xlink:href="#DejaVuSans-108"/>
     <use x="1239.990234" xlink:href="#DejaVuSans-32"/>
     <use x="1271.777344" xlink:href="#DejaVuSans-102"/>
     <use x="1306.982422" xlink:href="#DejaVuSans-114"/>
     <use x="1348.095703" xlink:href="#DejaVuSans-97"/>
     <use x="1409.375" xlink:href="#DejaVuSans-109"/>
     <use x="1506.787109" xlink:href="#DejaVuSans-101"/>
     <use x="1568.310547" xlink:href="#DejaVuSans-115"/>
     <use x="1620.410156" xlink:href="#DejaVuSans-32"/>
     <use x="1652.197266" xlink:href="#DejaVuSans-102"/>
     <use x="1687.402344" xlink:href="#DejaVuSans-114"/>
     <use x="1726.265625" xlink:href="#DejaVuSans-111"/>
     <use x="1787.447266" xlink:href="#DejaVuSans-109"/>
     <use x="1884.859375" xlink:href="#DejaVuSans-32"/>
     <use x="1916.646484" xlink:href="#DejaVuSans-67"/>
     <use x="1986.470703" xlink:href="#DejaVuSans-108"/>
     <use x="2014.253906" xlink:href="#DejaVuSans-97"/>
     <use x="2075.533203" xlink:href="#DejaVuSans-115"/>
     <use x="2127.632812" xlink:href="#DejaVuSans-115"/>
     <use x="2179.732422" xlink:href="#DejaVuSans-32"/>
     <use x="2211.519531" xlink:href="#DejaVuSans-66"/>
     <use x="2280.123047" xlink:href="#DejaVuSans-44"/>
     <use x="2311.910156" xlink:href="#DejaVuSans-32"/>
     <use x="2343.697266" xlink:href="#DejaVuSans-85"/>
     <use x="2416.890625" xlink:href="#DejaVuSans-116"/>
     <use x="2456.099609" xlink:href="#DejaVuSans-105"/>
     <use x="2483.882812" xlink:href="#DejaVuSans-58"/>
     <use x="2517.574219" xlink:href="#DejaVuSans-32"/>
     <use x="2549.361328" xlink:href="#DejaVuSans-48"/>
     <use x="2612.984375" xlink:href="#DejaVuSans-46"/>
     <use x="2644.771484" xlink:href="#DejaVuSans-54"/>
     <use x="2708.394531" xlink:href="#DejaVuSans-32"/>
     <use x="2740.181641" xlink:href="#DejaVuSans-119"/>
     <use x="2821.96875" xlink:href="#DejaVuSans-105"/>
     <use x="2849.751953" xlink:href="#DejaVuSans-116"/>
     <use x="2888.960938" xlink:href="#DejaVuSans-104"/>
     <use x="2952.339844" xlink:href="#DejaVuSans-32"/>
     <use x="2984.126953" xlink:href="#DejaVuSans-49"/>
     <use x="3047.75" xlink:href="#DejaVuSans-48"/>
     <use x="3111.373047" xlink:href="#DejaVuSans-32"/>
     <use x="3143.160156" xlink:href="#DejaVuSans-83"/>
     <use x="3206.636719" xlink:href="#DejaVuSans-84"/>
     <use x="3267.720703" xlink:href="#DejaVuSans-32"/>
     <use x="3299.507812" xlink:href="#DejaVuSans-102"/>
     <use x="3334.712891" xlink:href="#DejaVuSans-108"/>
     <use x="3362.496094" xlink:href="#DejaVuSans-111"/>
     <use x="3423.677734" xlink:href="#DejaVuSans-119"/>
    </g>
   </g>
   <g id="legend_2">
    <g id="patch_13">
     <path d="M 76.35 454.9014 
L 256.753125 454.9014 
Q 259.153125 454.9014 259.153125 452.5014 
L 259.153125 417.8064 
Q 259.153125 415.4064 256.753125 415.4064 
L 76.35 415.4064 
Q 73.95 415.4064 73.95 417.8064 
L 73.95 452.5014 
Q 73.95 454.9014 76.35 454.9014 
z
" style="fill:#ffffff;opacity:0.8;stroke:#cccccc;stroke-linejoin:miter;"/>
    </g>
    <g id="line2d_58">
     <path d="M 78.75 425.124525 
L 102.75 425.124525 
" style="fill:none;stroke:#0000ff;stroke-linecap:square;stroke-width:2;"/>
    </g>
    <g id="line2d_59">
     <g>
      <use style="fill:#0000ff;stroke:#0000ff;" x="90.75" xlink:href="#m31cc0c134f" y="425.124525"/>
     </g>
    </g>
    <g id="text_58">
     <!-- CBServer_based_classB -->
     <g transform="translate(112.35 429.324525)scale(0.12 -0.12)">
      <use xlink:href="#DejaVuSans-67"/>
      <use x="69.824219" xlink:href="#DejaVuSans-66"/>
      <use x="136.677734" xlink:href="#DejaVuSans-83"/>
      <use x="200.154297" xlink:href="#DejaVuSans-101"/>
      <use x="261.677734" xlink:href="#DejaVuSans-114"/>
      <use x="302.791016" xlink:href="#DejaVuSans-118"/>
      <use x="361.970703" xlink:href="#DejaVuSans-101"/>
      <use x="423.494141" xlink:href="#DejaVuSans-114"/>
      <use x="464.607422" xlink:href="#DejaVuSans-95"/>
      <use x="514.607422" xlink:href="#DejaVuSans-98"/>
      <use x="578.083984" xlink:href="#DejaVuSans-97"/>
      <use x="639.363281" xlink:href="#DejaVuSans-115"/>
      <use x="691.462891" xlink:href="#DejaVuSans-101"/>
      <use x="752.986328" xlink:href="#DejaVuSans-100"/>
      <use x="816.462891" xlink:href="#DejaVuSans-95"/>
      <use x="866.462891" xlink:href="#DejaVuSans-99"/>
      <use x="921.443359" xlink:href="#DejaVuSans-108"/>
      <use x="949.226562" xlink:href="#DejaVuSans-97"/>
      <use x="1010.505859" xlink:href="#DejaVuSans-115"/>
      <use x="1062.605469" xlink:href="#DejaVuSans-115"/>
      <use x="1114.705078" xlink:href="#DejaVuSans-66"/>
     </g>
    </g>
    <g id="line2d_60">
     <path d="M 78.75 443.072025 
L 102.75 443.072025 
" style="fill:none;stroke:#ffa500;stroke-linecap:square;stroke-width:2;"/>
    </g>
    <g id="line2d_61">
     <g>
      <use style="fill:#ffa500;stroke:#ffa500;" x="90.75" xlink:href="#m2b1c084960" y="443.072025"/>
     </g>
    </g>
    <g id="text_59">
     <!-- AVB_based_classB -->
     <g transform="translate(112.35 447.272025)scale(0.12 -0.12)">
      <use xlink:href="#DejaVuSans-65"/>
      <use x="62.033203" xlink:href="#DejaVuSans-86"/>
      <use x="130.441406" xlink:href="#DejaVuSans-66"/>
      <use x="199.044922" xlink:href="#DejaVuSans-95"/>
      <use x="249.044922" xlink:href="#DejaVuSans-98"/>
      <use x="312.521484" xlink:href="#DejaVuSans-97"/>
      <use x="373.800781" xlink:href="#DejaVuSans-115"/>
      <use x="425.900391" xlink:href="#DejaVuSans-101"/>
      <use x="487.423828" xlink:href="#DejaVuSans-100"/>
      <use x="550.900391" xlink:href="#DejaVuSans-95"/>
      <use x="600.900391" xlink:href="#DejaVuSans-99"/>
      <use x="655.880859" xlink:href="#DejaVuSans-108"/>
      <use x="683.664062" xlink:href="#DejaVuSans-97"/>
      <use x="744.943359" xlink:href="#DejaVuSans-115"/>
      <use x="797.042969" xlink:href="#DejaVuSans-115"/>
      <use x="849.142578" xlink:href="#DejaVuSans-66"/>
     </g>
    </g>
   </g>
  </g>
 </g>
 <defs>
  <clipPath id="pfe5f22b368">
   <rect height="265.356" width="421.29" x="67.95" y="90.9792"/>
  </clipPath>
  <clipPath id="p1533f30df2">
   <rect height="265.356" width="421.29" x="67.95" y="409.4064"/>
  </clipPath>
 </defs>
</svg>
